<?xml version="1.0" encoding="iso-8859-1"?>
<!-- Generator: Adobe Illustrator 19.0.0, SVG Export Plug-In . SVG Version: 6.00 Build 0)  -->
<svg version="1.1" id="Capa_1" xmlns="http://www.w3.org/2000/svg" xmlns:xlink="http://www.w3.org/1999/xlink" x="0px" y="0px"
	 viewBox="0 0 409.6 409.6" style="enable-background:new 0 0 409.6 409.6;" xml:space="preserve">
<rect x="40.96" y="6.827" style="fill:#DDDDDD;" width="232.107" height="354.987"/>
<path d="M273.067,368.64H40.96c-3.768,0-6.827-3.058-6.827-6.827V6.827C34.133,3.058,37.192,0,40.96,0h232.107
	c3.768,0,6.827,3.058,6.827,6.827v354.987C279.893,365.582,276.835,368.64,273.067,368.64z M47.787,354.987H266.24V13.653H47.787
	V354.987z"/>
<rect x="88.747" y="27.307" style="fill:#DDDDDD;" width="232.107" height="354.987"/>
<path d="M320.853,389.12H88.747c-3.768,0-6.827-3.058-6.827-6.827V27.307c0-3.768,3.058-6.827,6.827-6.827h232.107
	c3.768,0,6.827,3.058,6.827,6.827v354.987C327.68,386.062,324.622,389.12,320.853,389.12z M95.573,375.467h218.453V34.133H95.573
	V375.467z"/>
<rect x="136.533" y="47.787" style="fill:#FFFFFF;" width="232.107" height="354.987"/>
<path d="M368.64,409.6H136.533c-3.768,0-6.827-3.058-6.827-6.827V47.787c0-3.768,3.058-6.827,6.827-6.827H368.64
	c3.768,0,6.827,3.058,6.827,6.827v354.987C375.467,406.542,372.408,409.6,368.64,409.6z M143.36,395.947h218.453V54.613H143.36
	V395.947z"/>
<path d="M300.373,95.573H170.667c-3.768,0-6.827-3.058-6.827-6.827c0-3.768,3.058-6.827,6.827-6.827h129.707
	c3.768,0,6.827,3.058,6.827,6.827C307.2,92.515,304.142,95.573,300.373,95.573z"/>
<path d="M334.507,150.187h-163.84c-3.768,0-6.827-3.058-6.827-6.827c0-3.768,3.058-6.827,6.827-6.827h163.84
	c3.768,0,6.827,3.058,6.827,6.827C341.333,147.128,338.275,150.187,334.507,150.187z"/>
<path d="M334.507,191.147h-163.84c-3.768,0-6.827-3.058-6.827-6.827s3.058-6.827,6.827-6.827h163.84
	c3.768,0,6.827,3.058,6.827,6.827S338.275,191.147,334.507,191.147z"/>
<path d="M334.507,232.107h-163.84c-3.768,0-6.827-3.058-6.827-6.827c0-3.768,3.058-6.827,6.827-6.827h163.84
	c3.768,0,6.827,3.058,6.827,6.827C341.333,229.048,338.275,232.107,334.507,232.107z"/>
<path d="M334.507,273.067h-163.84c-3.768,0-6.827-3.058-6.827-6.827c0-3.768,3.058-6.827,6.827-6.827h163.84
	c3.768,0,6.827,3.058,6.827,6.827C341.333,270.008,338.275,273.067,334.507,273.067z"/>
<path d="M334.507,314.027h-163.84c-3.768,0-6.827-3.058-6.827-6.827s3.058-6.827,6.827-6.827h163.84
	c3.768,0,6.827,3.058,6.827,6.827S338.275,314.027,334.507,314.027z"/>
<path d="M225.28,354.987h-54.613c-3.768,0-6.827-3.058-6.827-6.827s3.058-6.827,6.827-6.827h54.613c3.768,0,6.827,3.058,6.827,6.827
	S229.048,354.987,225.28,354.987z"/>
<g>
</g>
<g>
</g>
<g>
</g>
<g>
</g>
<g>
</g>
<g>
</g>
<g>
</g>
<g>
</g>
<g>
</g>
<g>
</g>
<g>
</g>
<g>
</g>
<g>
</g>
<g>
</g>
<g>
</g>
</svg>
