<?xml version="1.0" ?><!DOCTYPE svg  PUBLIC '-//W3C//DTD SVG 1.1//EN'  'http://www.w3.org/Graphics/SVG/1.1/DTD/svg11.dtd'><svg enable-background="new 0 0 136 136" id="Layer_1" version="1.1" viewBox="0 0 136 136" xml:space="preserve" xmlns="http://www.w3.org/2000/svg" xmlns:xlink="http://www.w3.org/1999/xlink"><g><g id="XMLID_11006_"><circle cx="68" cy="68" fill="#E9BB06" r="64"/></g><g id="XMLID_3800_"><g id="XMLID_3844_"><path d="M59.1,60.4c-1.4,6.6-1.4,13.4,0,20c-8.1,0-16.1,0-24.2,0c1.4-6.6,1.4-13.4,0-20     C43,60.4,51,60.4,59.1,60.4z" fill="#F1B97C"/></g><g id="XMLID_3582_"><path d="M60.2,74.1l-2.7,57.1c-0.8-0.1-1.6-0.3-2.4-0.4c0,0-0.1,0-0.1,0c-1.3-0.3-2.6-0.6-3.9-0.9     c-3.4-0.9-6.6-2.1-9.7-3.5c-1-0.4-1.9-0.9-2.9-1.4c-0.1,0-0.2-0.1-0.3-0.2c-0.7-0.4-1.4-0.8-2.1-1.1l-2.4-49.5l2,0.6L47,78.2     l11.2-3.5L60.2,74.1z" fill="#FCFCFC"/></g><g id="XMLID_3374_"><path d="M52.8,128.5l-1.5,1.2c-3.4-0.9-6.6-2.1-9.7-3.5L45,85.8l0.3-3.7h3.4l0.3,3.7L52.8,128.5z" fill="#E34D30"/></g><g id="XMLID_3839_"><g id="XMLID_3840_"><g id="XMLID_3841_"><path d="M65.3,49.3c0,4.6-1.3,8.4-3,8.4c-0.1,0-0.2,0-0.3,0c-2.4,8.5-8.2,14.5-15,14.5s-12.6-6-15-14.5       c-0.1,0-0.2,0-0.3,0c-1.6,0-3-3.7-3-8.4c0-4.6,1.3-8.4,3-8.4h0.1c2.2-9,8.2-15.5,15.2-15.5s13.4,3.7,15.6,12.8l-0.3,2.7       C64,40.9,65.3,44.7,65.3,49.3z" fill="#F8CFA3"/></g></g></g><g id="XMLID_3837_"><polygon fill="#D54232" points="47,78.2 42.1,82.7 47,88 52,82.7    "/></g><g id="XMLID_3830_"><g id="XMLID_3833_"><g id="XMLID_3482_"><path d="M95.8,125.7c-3,1.4-6.1,2.7-9.3,3.6c-0.8,0.3-1.7,0.5-2.5,0.7c-5.1,1.3-10.4,2-15.9,2       c-3.3,0-6.5-0.3-9.7-0.7c-0.3,0-0.5-0.1-0.7-0.1c-0.8-0.1-1.6-0.3-2.4-0.4l5-56.6L90,85.5c0,0,1.4-0.6,3.6,16.4L95.8,125.7z" fill="#4C525E"/></g><g id="XMLID_3457_"><path d="M61.3,94.7l9.1,9.1l-12.1,27.5c-0.3,0-0.5-0.1-0.7-0.1c-0.8-0.1-1.6-0.3-2.4-0.4c0,0-0.1,0-0.1,0       c0.4-9,2.1-40.8,5-55.8l0.2-0.8l10.2,13.8L61.3,94.7z" fill="#646C79"/></g><g id="XMLID_3339_"><path d="M87.5,103l-1.1,26.3c-0.8,0.3-1.7,0.5-2.5,0.7L87.5,103z" fill="#343843"/></g></g><g id="XMLID_3832_"><polygon fill="#D1D1D3" points="60.2,74.1 58,70.8 47,78.2 57.5,88     "/></g></g><g id="XMLID_3822_"><g id="XMLID_3824_"><g id="XMLID_3372_"><path d="M38.3,124.7c-0.7-0.4-1.4-0.8-2.1-1.1c-1.9-1.1-3.7-2.2-5.4-3.5c-11.9-8.5-20.7-20.9-24.6-35.4       l27.6-10.6L38.3,124.7z" fill="#4C525E"/></g><g id="XMLID_3368_"><path d="M38.6,124.9c-0.1,0-0.2-0.1-0.3-0.2c-0.7-0.4-1.4-0.8-2.1-1.1c-1.9-1.1-3.7-2.2-5.4-3.5l-7.2-16.3       l9.1-9.1l-9.1-6.9l10.2-13.8l0.2,0.8C36.3,87.5,37.9,112,38.6,124.9z" fill="#646C79"/></g></g><g id="XMLID_3823_"><polygon fill="#D1D1D3" points="33.8,74.1 36,70.8 47,78.2 36.6,88     "/></g></g><g id="XMLID_3821_"><path d="M30.3,45.7c0-1.4,1.6-3.1,2.2-4.1l2.7-6.6c0,0,1.2-2.9,4.8-1.6c0,0,2,1.4,7,0.3c0,0,9.4-0.8,11.6,0.7     c0,0,4.6,1.4,4.7,11.4h1.6c0.3-1.2,1.2-4.6,0.5-7.3c0,0,2.6-11.8-4.3-14.5c0,0,0.5-1,0.8-0.9c0,0-2.3-0.6-4.1,0.3     c0,0-0.8-3.8-6-3.4c0,0-8.8-2.6-10.5,0.4c0,0-4-0.5-3.9,1.2c0,0-7.8,1.3-8.9,12.6c0,0-0.5,6.6,0.6,11.5H30.3z" fill="#343843"/></g><g id="XMLID_3801_"><g id="XMLID_3805_"><path d="M63.2,44.3c-3.6-0.4-6.6-0.4-6.6-0.4c-1.8,0-3.2,0.2-4.3,0.4c-0.9,0.2-1.7,0.5-2.5,0.8      c-1.1,0.5-1.8,0.5-1.8,0.5H46c0,0-0.7,0-1.8-0.5c-0.8-0.4-1.6-0.6-2.5-0.8c-1-0.2-2.5-0.4-4.3-0.4c0,0-3,0-6.6,0.4      c-0.4,0-0.8,0.1-1.2,0.2v2c0,0,1,0.1,1.2,1.4c0,0,0.6,5.1,2.5,6.5c0,0,2.1,2.1,6.6,1c0,0,3.2-0.4,5-4.2c0,0,0.5-1.1,0.7-2.1      c0,0,0.2-1.8,1.5-1.6c1.3-0.2,1.4,1.6,1.4,1.6c0.2,1.1,0.7,2.1,0.7,2.1c1.7,3.8,5,4.2,5,4.2c4.5,1.1,6.6-1,6.6-1      c1.9-1.4,2.5-6.5,2.5-6.5c0.2-1.3,1.2-1.4,1.2-1.4v-2C64,44.4,63.6,44.3,63.2,44.3z M44,50.2c-0.4,1.7-1.7,3-1.7,3      c-1.3,1.4-5.1,1.5-5.1,1.5c-2.5,0-3.6-1.4-3.9-1.9c-0.1-0.1-0.2-0.3-0.3-0.5C32.1,51,32,48,32,48c-0.2-1.8,1.8-2.7,1.8-2.7      c2.7-0.9,7.7-0.3,7.7-0.3c2.6,0.5,2.7,2.2,2.7,2.2S44.4,48.5,44,50.2z M61,52.3c-0.1,0.2-0.2,0.3-0.3,0.5      c-0.3,0.5-1.4,1.9-3.9,1.9c0,0-3.8-0.1-5.1-1.5c0,0-1.3-1.3-1.7-3c-0.4-1.7-0.2-2.9-0.2-2.9s0.1-1.7,2.7-2.2c0,0,5-0.6,7.7,0.3      c0,0,2,0.9,1.8,2.7C62,48,62,51,61,52.3z" fill="#343843"/></g><g id="XMLID_3802_"><g id="XMLID_3804_"><ellipse cx="31.1" cy="45.4" fill="#FCFCFC" rx="1" ry="0.3"/></g><g id="XMLID_3803_"><ellipse cx="62.9" cy="45.4" fill="#FCFCFC" rx="1" ry="0.3"/></g></g></g></g><g id="XMLID_3027_"><g id="XMLID_3799_"><g id="XMLID_3869_"><path d="M121.4,49.9h-16.2v2.1H93.7v-2.1H74.1c-1.1,0-2,0.9-2,2v60.2c0,1.1,0.9,2,2,2h47.3c1.1,0,2-0.9,2-2V51.9      C123.4,50.8,122.5,49.9,121.4,49.9z" fill="#F1582E"/></g><g id="XMLID_3846_"><rect fill="#FCFCFC" height="56.2" width="43.3" x="76.1" y="53.9"/></g><g id="XMLID_3852_"><path d="M107.5,47.4h-4.6c0-2.8-2.3-5.1-5.1-5.1s-5.1,2.3-5.1,5.1H88c-1.6,0-2.9,1.3-2.9,2.9v5.4h25.2v-5.4      C110.4,48.7,109.1,47.4,107.5,47.4z M97.8,49.9c-1.3,0-2.4-1.1-2.4-2.4c0-1.3,1.1-2.4,2.4-2.4s2.4,1.1,2.4,2.4      C100.2,48.8,99.1,49.9,97.8,49.9z" fill="#4C525E"/></g></g><g id="XMLID_3849_"><g id="XMLID_3856_"><path d="M90.5,59.9c-6.5,0-11.8,5.3-11.8,11.8c0,3.3,1.3,6.2,3.5,8.3l8.3-8.3V59.9z" fill="#5E86C3"/></g><g id="XMLID_3855_"><path d="M82.1,80c2.1,2.1,5.1,3.5,8.3,3.5c3.3,0,6.2-1.3,8.3-3.5l-8.3-8.3L82.1,80z" fill="#4C525E"/></g><g id="XMLID_3854_"><path d="M98.8,80c2.1-2.1,3.5-5.1,3.5-8.3H90.5L98.8,80z" fill="#DC8C01"/></g><g id="XMLID_3853_"><path d="M90.5,59.9v11.8h11.8C102.3,65.2,97,59.9,90.5,59.9z" fill="#E9BB06"/></g></g><g id="XMLID_3848_"><g id="XMLID_3845_"><rect fill="#D1D1D3" height="2.4" width="36.3" x="79.6" y="89.6"/></g><g id="XMLID_3857_"><rect fill="#D1D1D3" height="2.4" width="36.3" x="79.6" y="96.4"/></g><g id="XMLID_3858_"><rect fill="#D1D1D3" height="2.4" width="21.8" x="86.8" y="103.2"/></g></g></g></g></svg>