<?xml version="1.0" ?><!DOCTYPE svg  PUBLIC '-//W3C//DTD SVG 1.1//EN'  'http://www.w3.org/Graphics/SVG/1.1/DTD/svg11.dtd'><svg enable-background="new 0 0 33 33" height="33px" id="Layer_1" version="1.1" viewBox="0 0 33 33" width="33px" xml:space="preserve" xmlns="http://www.w3.org/2000/svg" xmlns:xlink="http://www.w3.org/1999/xlink"><g><circle cx="16.5" cy="16.5" fill="#F9B51C" r="16"/><path d="M32.436,17.779c-3.309-3.309-9.243-9.242-9.268-9.266c-0.08-0.088-0.165-0.172-0.266-0.231   c-0.311-0.213-0.691-0.277-1.039-0.27c-0.354,0.012-0.689,0.085-1.016,0.188c-0.019-0.019-0.04-0.033-0.06-0.051   c-0.031-0.034-0.063-0.066-0.098-0.097c-0.209-0.232-0.506-0.381-0.841-0.376c-0.618,0.012-1.111,0.522-1.102,1.141   c0.002,0.142,0.034,0.273,0.084,0.396c-0.797,0.518-1.549,1.123-2.266,1.777c-0.568-0.589-1.229-1.216-2.025-1.821   c-0.437-0.328-0.91-0.661-1.456-0.928c-0.542-0.264-1.156-0.517-1.905-0.49C9.873,8.021,9.572,8.866,9.481,9.235   c-0.167,0.746-0.075,1.459,0.063,2.147c0.154,0.665,0.373,1.312,0.633,1.944c-0.181,0.034-0.361,0.066-0.548,0.108   c-0.531,0.124-1.09,0.271-1.646,0.52c-0.552,0.245-1.138,0.551-1.598,1.144c-0.857,0.953-0.185,1.95,0.04,2.253   c0.125,0.164,0.262,0.309,0.405,0.443c0.036,0.037,2.93,2.936,2.961,2.965c-0.101,0.3-0.196,0.602-0.271,0.908   c-0.146,0.689-0.245,1.402-0.084,2.15c0.084,0.369,0.254,0.764,0.577,1.053c0,0,4.536,4.535,7.573,7.574   C25.49,31.912,31.811,25.656,32.436,17.779z" fill="#DD9C1B"/><g><path d="M26.915,16.684c-0.052-0.17-0.116-0.334-0.208-0.475c-0.366-0.574-0.891-0.936-1.397-1.232    c-0.511-0.295-1.035-0.506-1.544-0.69c-0.447-0.155-0.881-0.281-1.302-0.394c0.195-0.401,0.386-0.826,0.563-1.28    c0.191-0.503,0.373-1.043,0.48-1.623c0.105-0.577,0.172-1.209-0.026-1.86c-0.048-0.163-0.128-0.319-0.227-0.469    c-0.107-0.142-0.235-0.286-0.39-0.378c-0.311-0.213-0.691-0.277-1.039-0.27C21.462,8.025,21.115,8.1,20.78,8.209    c-0.202-0.323-0.561-0.538-0.968-0.531c-0.618,0.012-1.111,0.522-1.102,1.141c0.002,0.142,0.034,0.273,0.084,0.396    c-0.797,0.518-1.549,1.123-2.266,1.777c-0.568-0.589-1.229-1.216-2.025-1.821c-0.437-0.328-0.91-0.661-1.456-0.928    c-0.542-0.264-1.156-0.517-1.905-0.49c-0.186,0.006-0.38,0.05-0.574,0.112L10.41,7.937l-0.08,0.039l-0.053,0.03l-0.1,0.063    c0.021-0.015-0.04,0.025-0.04,0.026l-0.014,0.014l-0.031,0.026l-0.059,0.051c-0.326,0.285-0.499,0.68-0.589,1.049    c-0.167,0.746-0.075,1.459,0.063,2.147c0.154,0.665,0.373,1.312,0.633,1.944c-0.181,0.034-0.361,0.066-0.548,0.108    c-0.531,0.124-1.09,0.271-1.646,0.52c-0.552,0.245-1.138,0.551-1.598,1.144c-0.115,0.146-0.208,0.323-0.286,0.511l-0.048,0.169    l-0.022,0.085l-0.008,0.062l-0.016,0.114c0-0.021-0.006,0.05-0.006,0.05l0.002,0.018v0.041l0.001,0.082    c0.009,0.433,0.199,0.819,0.423,1.122c0.465,0.607,1.072,0.996,1.688,1.335c0.687,0.348,1.41,0.617,2.151,0.839    c-0.307,0.696-0.565,1.408-0.743,2.143c-0.146,0.689-0.245,1.402-0.084,2.15c0.084,0.369,0.254,0.764,0.577,1.053l0.059,0.052    l0.032,0.028l0.014,0.01c0,0.003,0.058,0.043,0.039,0.03l0.101,0.062l0.052,0.031l0.077,0.04l0.16,0.074    c0.193,0.065,0.387,0.108,0.573,0.116c0.75,0.034,1.364-0.21,1.91-0.471c0.548-0.262,1.022-0.588,1.466-0.911    c0.787-0.591,1.448-1.2,2.016-1.776c0.663,0.613,1.355,1.183,2.087,1.68c-0.042,0.121-0.068,0.25-0.065,0.385    c0.011,0.619,0.521,1.112,1.142,1.101c0.352-0.007,0.658-0.177,0.859-0.433c0.387,0.146,0.789,0.254,1.215,0.273    c0.349,0.011,0.73-0.048,1.043-0.26c0.156-0.091,0.283-0.232,0.394-0.375c0.099-0.148,0.181-0.305,0.23-0.467    c0.204-0.648,0.144-1.281,0.046-1.859c-0.104-0.582-0.278-1.12-0.465-1.627c-0.082-0.216-0.168-0.423-0.256-0.627    c0.405-0.092,0.803-0.202,1.193-0.328c0.209,0.275,0.538,0.452,0.91,0.447c0.619-0.014,1.111-0.523,1.1-1.143    c-0.002-0.077-0.011-0.152-0.027-0.226c0.213-0.147,0.417-0.31,0.598-0.507c0.231-0.258,0.429-0.59,0.472-0.963    C26.98,17.049,26.953,16.859,26.915,16.684z M21.84,8.476c0.288-0.014,0.566,0.033,0.781,0.174    c0.226,0.136,0.385,0.353,0.477,0.614c0.184,0.521,0.159,1.119,0.076,1.669c-0.083,0.556-0.226,1.091-0.389,1.592    c-0.152,0.466-0.324,0.903-0.504,1.318c-0.473-0.12-0.926-0.216-1.352-0.296c-0.857-0.157-1.609-0.258-2.229-0.329    c-0.086-0.01-0.162-0.018-0.242-0.025c-0.086-0.106-0.178-0.219-0.274-0.337c-0.341-0.412-0.756-0.897-1.243-1.427    c0.688-0.655,1.41-1.265,2.166-1.78c0.201,0.171,0.461,0.276,0.746,0.271c0.616-0.012,1.109-0.521,1.1-1.141    c0-0.039-0.009-0.074-0.013-0.112C21.24,8.563,21.543,8.491,21.84,8.476z M16.676,21.512c-0.354-0.353-0.696-0.719-1.031-1.096    c0.247,0.014,0.494,0.029,0.741,0.039c0.462,0.016,0.924,0.02,1.385,0.014C17.457,20.791,17.092,21.145,16.676,21.512z     M20.482,17.111c-0.344,0.521-0.641,0.908-0.838,1.179c-0.203,0.265-0.313,0.403-0.313,0.403s-0.113,0.139-0.324,0.398    c-0.154,0.178-0.356,0.424-0.612,0.711c-0.657,0.006-1.317-0.01-1.976-0.049c-0.487-0.031-0.972-0.079-1.456-0.135    c-0.312-0.379-0.618-0.764-0.912-1.158c-0.453-0.616-0.88-1.25-1.279-1.896c0.414-0.657,0.856-1.302,1.328-1.93    c0.39-0.516,0.799-1.019,1.223-1.507c0.369-0.006,0.677-0.002,0.906-0.002c0.333,0.009,0.511,0.013,0.511,0.013    s0.177,0.01,0.511,0.026c0.264,0.02,0.628,0.041,1.073,0.086c0.29,0.327,0.513,0.605,0.68,0.805c0.21,0.261,0.32,0.398,0.32,0.398    s0.108,0.144,0.308,0.41c0.195,0.269,0.49,0.661,0.828,1.185c0.111,0.17,0.229,0.358,0.352,0.555    C20.698,16.784,20.588,16.955,20.482,17.111z M20.859,16.683c0.236,0.386,0.483,0.817,0.732,1.306    c0.232,0.446,0.464,0.939,0.684,1.468c-0.545,0.1-1.098,0.179-1.657,0.233c-0.675,0.066-1.358,0.103-2.046,0.113    c0.211-0.258,0.387-0.479,0.518-0.646c0.203-0.266,0.311-0.408,0.311-0.408s0.109-0.145,0.31-0.408    c0.198-0.271,0.485-0.668,0.835-1.185C20.645,17.008,20.75,16.849,20.859,16.683z M13.982,19.488    c-0.578-0.086-1.15-0.188-1.713-0.314c-0.279-0.063-0.557-0.133-0.832-0.206c0.128-0.269,0.261-0.536,0.401-0.802    c0.157-0.295,0.322-0.589,0.492-0.879c0.37,0.545,0.758,1.078,1.164,1.598C13.653,19.088,13.818,19.289,13.982,19.488z     M16.728,11.638c0.528,0.479,0.974,0.934,1.335,1.325c0.067,0.072,0.127,0.14,0.188,0.207c-0.411-0.041-0.745-0.068-0.993-0.088    c-0.334-0.02-0.512-0.031-0.512-0.031s-0.18-0.01-0.514-0.029c-0.205-0.008-0.476-0.018-0.795-0.025    C15.852,12.524,16.285,12.071,16.728,11.638z M12.335,15.837c-0.177-0.306-0.346-0.615-0.508-0.925    c-0.219-0.427-0.42-0.86-0.609-1.294c0.467-0.104,0.916-0.184,1.34-0.248c0.69-0.111,1.312-0.169,1.854-0.202    c-0.297,0.341-0.589,0.687-0.872,1.042C13.122,14.736,12.719,15.281,12.335,15.837z M20.525,16.008    c-0.347-0.52-0.629-0.921-0.824-1.193c-0.199-0.27-0.306-0.411-0.306-0.411s-0.106-0.144-0.308-0.413    c-0.14-0.182-0.33-0.426-0.563-0.715c0.057,0.006,0.107,0.011,0.166,0.018c0.619,0.075,1.368,0.186,2.213,0.38    c0.412,0.092,0.85,0.202,1.304,0.337c-0.187,0.42-0.382,0.813-0.576,1.176c-0.263,0.502-0.523,0.945-0.771,1.341    C20.744,16.344,20.631,16.168,20.525,16.008z M10.399,11.189c-0.135-0.609-0.203-1.236-0.089-1.75    c0.058-0.255,0.161-0.468,0.312-0.602l0.029-0.025L10.666,8.8l0.005-0.006c0.008-0.007-0.042,0.028-0.015,0.01l0.098-0.066    c0.015-0.011,0.035-0.023,0.048-0.03l0.025-0.01c0.018-0.008,0.035-0.017,0.052-0.027c0.1-0.034,0.208-0.066,0.326-0.074    c0.483-0.038,1.036,0.117,1.533,0.325c0.503,0.209,0.983,0.469,1.424,0.744c0.803,0.503,1.502,1.05,2.108,1.57    c-0.589,0.553-1.153,1.138-1.694,1.749c-0.586-0.002-1.271,0.008-2.054,0.053c-0.466,0.027-0.966,0.072-1.491,0.144    C10.763,12.518,10.542,11.852,10.399,11.189z M8.503,17.879c-0.556-0.293-1.08-0.643-1.4-1.061    c-0.157-0.207-0.255-0.421-0.259-0.623l-0.002-0.038v-0.02v-0.009c0-0.01-0.005,0.051-0.002,0.019l0.013-0.116    c0.002-0.018,0.002-0.041,0.007-0.057l0.008-0.026c0.004-0.019,0.01-0.036,0.013-0.057c0.037-0.101,0.081-0.202,0.153-0.301    c0.28-0.393,0.754-0.716,1.233-0.964c0.485-0.249,0.99-0.451,1.487-0.612c0.207-0.066,0.41-0.125,0.613-0.182    c0.226,0.497,0.468,0.988,0.735,1.468c0.236,0.427,0.491,0.844,0.754,1.258c-0.257,0.398-0.507,0.799-0.739,1.207    c-0.18,0.316-0.352,0.636-0.515,0.959C9.861,18.492,9.149,18.221,8.503,17.879z M14.122,23.433    c-0.446,0.273-0.927,0.525-1.432,0.73c-0.5,0.204-1.055,0.354-1.536,0.312c-0.12-0.01-0.228-0.043-0.327-0.08    c-0.017-0.008-0.032-0.02-0.05-0.024l-0.028-0.013c-0.011-0.006-0.03-0.021-0.044-0.03l-0.097-0.066    c-0.026-0.021,0.021,0.017,0.014,0.01l-0.006-0.007L10.6,24.25l-0.026-0.024c-0.151-0.134-0.251-0.35-0.307-0.603    c-0.108-0.517-0.035-1.141,0.106-1.752c0.159-0.701,0.408-1.408,0.707-2.11c0.338,0.083,0.679,0.156,1.022,0.224    c0.857,0.164,1.73,0.28,2.608,0.36c0.482,0.544,0.983,1.066,1.503,1.563C15.61,22.417,14.918,22.947,14.122,23.433z     M22.718,20.657c0.157,0.507,0.296,1.04,0.373,1.598c0.078,0.552,0.097,1.149-0.093,1.669c-0.096,0.258-0.255,0.477-0.481,0.609    c-0.217,0.139-0.495,0.18-0.786,0.166c-0.338-0.021-0.681-0.119-1.021-0.253c0.019-0.085,0.032-0.173,0.03-0.265    c-0.01-0.619-0.523-1.111-1.142-1.104c-0.288,0.007-0.546,0.123-0.741,0.305c-0.684-0.49-1.34-1.053-1.965-1.658    c0.434-0.46,0.808-0.885,1.127-1.26c0.895-0.016,1.786-0.068,2.664-0.174c0.608-0.074,1.211-0.175,1.803-0.301    C22.566,20.207,22.645,20.429,22.718,20.657z M26.512,17.173c-0.033,0.255-0.179,0.496-0.377,0.708    c-0.135,0.141-0.295,0.266-0.463,0.381c-0.208-0.27-0.535-0.445-0.904-0.439c-0.619,0.014-1.111,0.522-1.101,1.141    c0.001,0.059,0.011,0.113,0.021,0.169c-0.396,0.115-0.803,0.21-1.217,0.29c-0.251-0.541-0.51-1.043-0.764-1.496    c-0.279-0.492-0.548-0.93-0.797-1.321c0.261-0.401,0.542-0.851,0.836-1.357c0.211-0.364,0.425-0.759,0.635-1.182    c0.421,0.131,0.853,0.28,1.293,0.462c0.488,0.204,0.986,0.441,1.463,0.74c0.473,0.296,0.943,0.666,1.22,1.146    C26.492,16.652,26.557,16.91,26.512,17.173z" fill="#FFFFFF"/><circle cx="16.703" cy="16.408" fill="#FFFFFF" r="1.803"/></g></g></svg>