<?xml version="1.0" ?><!DOCTYPE svg  PUBLIC '-//W3C//DTD SVG 1.1//EN'  'http://www.w3.org/Graphics/SVG/1.1/DTD/svg11.dtd'><svg enable-background="new 0 0 256 256" id="Layer_1" version="1.1" viewBox="0 0 256 256" xml:space="preserve" xmlns="http://www.w3.org/2000/svg" xmlns:xlink="http://www.w3.org/1999/xlink"><g><circle cx="128" cy="128" fill="#2183AA" r="127"/><g><polygon fill="#97542F" points="209.3,87.1 165.3,47.3 129.6,83.9 173.6,123.6   "/><path d="M150.6,102.8l23,20.8l35.6-36.5l-6.5-5.9C188,93.8,169.9,103.7,150.6,102.8z" fill="#914922"/><path d="M160.2,112.5l-7.7-7l-3-2.7l-9.9-8.9l-5.5-5C118.8,96.8,76.6,121,76.6,121c5.7,28.5-1.8,50.2-6.6,60.3    c-4.4-2.8-10.4-2.2-14.1,1.6c-4.2,4.3-4,11,0.5,15l3.1,2.8c4.5,4,11.5,3.8,15.6-0.5c3.7-3.8,3.9-9.6,0.8-13.6    c10.1-5.2,32.2-13.8,62.1-10.1c0,0,22.5-42,29.8-57.1L160.2,112.5z M114.7,152.1c-7.2,0-13.1-5.6-13.1-12.6    c0-6.9,5.9-12.6,13.1-12.6c7.2,0,13.1,5.6,13.1,12.6C127.8,146.4,122,152.1,114.7,152.1z" fill="#EDC55C"/><path d="M160.2,112.5l-2.7-2.4c-12.8,19.2-22,41.2-42,54.3c-13.4,8.8-29.2,15.2-45.3,16.6c0,0.1-0.1,0.2-0.1,0.3    c-0.2-0.1-0.3-0.2-0.5-0.2c-3.7,0.3-7.5,0.3-11.2,0c-0.9,0.5-1.7,1.1-2.5,1.8c-4.2,4.3-4,11,0.5,15l3.1,2.8    c4.5,4,11.5,3.8,15.6-0.5c3.7-3.8,3.9-9.6,0.8-13.6c10.1-5.2,32.2-13.8,62.1-10.1c0,0,22.5-42,29.8-57.1L160.2,112.5z" fill="#EDB048"/></g></g></svg>