<?xml version="1.0" encoding="iso-8859-1"?>
<!-- Generator: Adobe Illustrator 19.0.0, SVG Export Plug-In . SVG Version: 6.00 Build 0)  -->
<svg version="1.1" id="Layer_1" xmlns="http://www.w3.org/2000/svg" xmlns:xlink="http://www.w3.org/1999/xlink" x="0px" y="0px"
	 viewBox="0 0 512 512" style="enable-background:new 0 0 512 512;" xml:space="preserve">
<path style="fill:#F3F3F3;" d="M385.067,512H107.733L0,404.267V32C0,13.867,13.867,0,32,0h353.067c18.133,0,32,13.867,32,32v448
	C417.067,498.133,403.2,512,385.067,512z"/>
<polygon style="fill:#ADB3BA;" points="107.733,512 0,404.267 107.733,404.267 "/>
<rect x="64" y="42.667" style="fill:#415A6B;" width="97.067" height="120.533"/>
<g>
	<rect x="210.133" y="62.933" style="fill:#CED6E0;" width="151.467" height="27.733"/>
	<rect x="210.133" y="134.4" style="fill:#CED6E0;" width="151.467" height="27.733"/>
	<rect x="64" y="206.933" style="fill:#CED6E0;" width="296.533" height="27.733"/>
	<rect x="64" y="278.4" style="fill:#CED6E0;" width="296.533" height="27.733"/>
	<rect x="64" y="349.867" style="fill:#CED6E0;" width="103.467" height="27.733"/>
</g>
<path style="fill:#F3705A;" d="M253.867,457.6c-4.267,0-8.533-1.067-11.733-4.267l-44.8-44.8c-6.4-6.4-6.4-16,0-22.4
	c6.4-6.4,16-6.4,22.4,0L252.8,419.2l82.133-82.133c6.4-6.4,16-6.4,22.4,0c6.4,6.4,6.4,16,0,22.4l-93.867,93.867
	C262.4,456.533,258.133,457.6,253.867,457.6z"/>
<polygon style="fill:#FFD15C;" points="260.267,201.6 253.867,203.733 237.867,273.067 307.2,257.067 309.333,250.667 "/>
<path style="fill:#4EC0AA;" d="M272,220.8c-3.2-8.533-8.533-14.933-18.133-18.133L418.133,40.533l18.133,18.133L272,220.8z"/>
<path style="fill:#66C6B9;" d="M290.133,238.933C286.933,230.4,281.6,224,272,220.8L436.267,57.6L454.4,75.733L290.133,238.933z"/>
<path style="fill:#4EC0AA;" d="M307.2,257.067c-3.2-8.533-8.533-14.933-18.133-18.133L454.4,75.733l18.133,18.133L307.2,257.067z"/>
<path style="fill:#415A6B;" d="M471.467,93.867L508.8,56.533c4.267-4.267,4.267-10.667,0-13.867L470.4,3.2
	c-4.267-4.267-10.667-4.267-13.867,0L419.2,40.533L471.467,93.867z"/>
<rect x="443.257" y="24.683" transform="matrix(-0.709 0.7053 -0.7053 -0.709 813.47 -210.6002)" style="fill:#E8EAE9;" width="13.868" height="75.738"/>
<path style="fill:#415A6B;" d="M261.333,267.733l-23.467,5.333L243.2,249.6C251.733,251.733,259.2,258.133,261.333,267.733z"/>
<g>
</g>
<g>
</g>
<g>
</g>
<g>
</g>
<g>
</g>
<g>
</g>
<g>
</g>
<g>
</g>
<g>
</g>
<g>
</g>
<g>
</g>
<g>
</g>
<g>
</g>
<g>
</g>
<g>
</g>
</svg>
