<?xml version="1.0" ?><!DOCTYPE svg  PUBLIC '-//W3C//DTD SVG 1.1//EN'  'http://www.w3.org/Graphics/SVG/1.1/DTD/svg11.dtd'><svg enable-background="new 0 0 512 512" height="512px" id="Layer_1" version="1.1" viewBox="0 0 512 512" width="512px" xml:space="preserve" xmlns="http://www.w3.org/2000/svg" xmlns:xlink="http://www.w3.org/1999/xlink"><path d="M220.172,332.365c-16.05,41.255-35.066,105.113-35.066,105.113s62.988-17.519,104.865-32.898  C282.467,369.16,255.133,341.086,220.172,332.365z" fill="#D0583B"/><path d="M480.927,183.86l-40.335-40.331c-13.346-13.355-35.926-12.457-50.385,1.985L236.345,299.408  c-0.366,0.329-0.77,1.031-1.142,1.502c42.093,12.986,74.918,47.033,86.493,89.743c1.374-0.87,2.61-1.741,3.369-2.508L478.95,234.262  C493.402,219.803,494.313,197.229,480.927,183.86z" fill="#D0583B"/><rect fill="#3974B1" height="24" width="144" x="69" y="140"/><rect fill="#3974B1" height="24" width="144" x="69" y="213"/><rect fill="#3974B1" height="24" width="144" x="69" y="285"/><rect fill="#3974B1" height="24" width="95" x="69" y="358"/><path d="M353,146.467v-21.409L260.836,33H17v448h336v-84.436l-9.758,9.721c-2.562,2.578-5.391,4.463-7.73,5.987  L327,417.678V455H43V59h207v77h77v36.294L353,146.467z M268,120V60.009L327.869,120H268z" fill="#FFCA71"/></svg>