<?xml version="1.0" ?><svg height="60px" version="1.1" viewBox="0 0 60 60" width="60px" xmlns="http://www.w3.org/2000/svg" xmlns:xlink="http://www.w3.org/1999/xlink"><title/><desc/><defs/><g fill="none" fill-rule="evenodd" id="Page-1" stroke="none" stroke-width="1"><g id="Education-Cartoony" transform="translate(-120.000000, -520.000000)"><g id="11--Essay--(education,-study,-learning,-knowledge)" transform="translate(121.000000, 521.000000)"><path d="M38.8632,58.002 L3.1372,58.002 L3.1372,0.002 L31.2072,0.002 L34.6102,4.002 L38.8632,9.002 L38.8632,58.002 Z" fill="#1CD759" id="Fill-396"/><path d="M0,58.002 L3.137,58.002 L3.137,0.002 L0,0.002 L0,58.002 Z" fill="#FFFFFF" id="Fill-397"/><path d="M37,4.002 L33,0.002 L31.207,0.002 L34.61,4.002 L38.863,9.002 L38.863,58.002 L42,58.002 L42,9.002 L37,4.002 Z" fill="#15A143" id="Fill-398"/><path d="M33,9.002 L42,9.002 L38,5.002 L33,0.002 L33,9.002 Z" fill="#EF1D30" id="Fill-399"/><path d="M57,5.002 L53,5.002 L53,1.502 C53,0.673 53.671,0.002 54.5,0.002 L55.5,0.002 C56.329,0.002 57,0.673 57,1.502 L57,5.002 Z" fill="#FD7308" id="Fill-400"/><path d="M52,50.002 L58,50.002 L58,5.002 L52,5.002 L52,50.002 Z" fill="#FFDD09" id="Fill-401"/><path d="M56,56.002 L54,56.002 L52,50.002 L58,50.002 L56,56.002 Z" fill="#FFDD09" id="Fill-402"/><path d="M52,50.002 L58,50.002 L58,34.002 L52,34.002 L52,50.002 Z" fill="#FCC309" id="Fill-403"/><path d="M42,58.002 L0,58.002 L0,0.002 L33,0.002 L37,4.002 L42,9.002 L42,58.002 L42,58.002 Z" id="Stroke-724" stroke="#000000" stroke-linecap="round" stroke-linejoin="round" stroke-width="2"/><path d="M33,9.002 L42,9.002 L38,5.002 L33,0.002 L33,9.002 L33,9.002 Z" id="Stroke-725" stroke="#000000" stroke-linecap="round" stroke-linejoin="round" stroke-width="2"/><path d="M9,26.002 L33,26.002" id="Stroke-727" stroke="#000000" stroke-linecap="round" stroke-linejoin="round" stroke-width="2"/><path d="M13,32.002 L29,32.002" id="Stroke-728" stroke="#000000" stroke-linecap="round" stroke-linejoin="round" stroke-width="2"/><path d="M9,38.002 L33,38.002" id="Stroke-729" stroke="#000000" stroke-linecap="round" stroke-linejoin="round" stroke-width="2"/><path d="M13,44.002 L29,44.002" id="Stroke-730" stroke="#000000" stroke-linecap="round" stroke-linejoin="round" stroke-width="2"/><path d="M13,20.002 L29,20.002" id="Stroke-731" stroke="#000000" stroke-linecap="round" stroke-linejoin="round" stroke-width="2"/><path d="M52,50.002 L58,50.002 L58,5.002 L52,5.002 L52,50.002 Z" id="Stroke-732" stroke="#000000" stroke-linecap="round" stroke-linejoin="round" stroke-width="2"/><path d="M57,5.002 L53,5.002 L53,1.502 C53,0.673 53.671,0.002 54.5,0.002 L55.5,0.002 C56.329,0.002 57,0.673 57,1.502 L57,5.002 L57,5.002 Z" id="Stroke-733" stroke="#000000" stroke-linecap="round" stroke-linejoin="round" stroke-width="2"/><path d="M52,6.002 L48,8.002" id="Stroke-734" stroke="#000000" stroke-linecap="round" stroke-linejoin="round" stroke-width="2"/><path d="M48,8.002 L48,21.002" id="Stroke-735" stroke="#000000" stroke-linecap="round" stroke-linejoin="round" stroke-width="2"/><path d="M56,56.002 L54,56.002 L52,50.002 L58,50.002 L56,56.002 L56,56.002 Z" id="Stroke-736" stroke="#000000" stroke-linecap="round" stroke-linejoin="round" stroke-width="2"/><path d="M55,56.002 L55,58.002" id="Stroke-737" stroke="#000000" stroke-linecap="round" stroke-linejoin="round" stroke-width="2"/><path d="M52,50.002 L58,50.002 L58,34.002 L52,34.002 L52,50.002 Z" id="Stroke-738" stroke="#000000" stroke-linecap="round" stroke-linejoin="round" stroke-width="2"/><path d="M52,46.002 L58,46.002" id="Stroke-739" stroke="#000000" stroke-linecap="round" stroke-linejoin="round" stroke-width="2"/><path d="M52,42.002 L58,42.002" id="Stroke-740" stroke="#000000" stroke-linecap="round" stroke-linejoin="round" stroke-width="2"/><path d="M52,38.002 L58,38.002" id="Stroke-741" stroke="#000000" stroke-linecap="round" stroke-linejoin="round" stroke-width="2"/></g></g></g></svg>