<?xml version="1.0" ?><!DOCTYPE svg  PUBLIC '-//W3C//DTD SVG 1.1//EN'  'http://www.w3.org/Graphics/SVG/1.1/DTD/svg11.dtd'><svg enable-background="new 0 0 33 33" height="33px" id="Layer_1" version="1.1" viewBox="0 0 33 33" width="33px" xml:space="preserve" xmlns="http://www.w3.org/2000/svg" xmlns:xlink="http://www.w3.org/1999/xlink"><g><circle cx="16.5" cy="16.5" fill="#2CA5C3" r="16"/><path d="M31.846,21.004l-8.586-8.585c0,0-0.436-0.144-0.439-0.147c-0.029-0.037-4.398-4.404-4.441-4.44   c-0.057-0.073-0.123-0.143-0.264-0.221c-0.129-0.071-0.273-0.11-0.424-0.11H8.768C8.179,7.5,7.7,8.104,7.7,8.85v13.08   c0,0.421,0.162,0.781,0.4,1.029c0.069,0.094,0.148,0.173,0.235,0.238c0.024,0.033,7.093,7.113,9.231,9.248   C24.363,31.996,29.994,27.316,31.846,21.004z" fill="#1C90A3"/><g><g><path d="M9.023,9.381c3.113,0,6.227,0,9.338,0c0.457,0,0.457-0.71,0-0.71c-3.112,0-6.225,0-9.338,0     C8.565,8.671,8.565,9.381,9.023,9.381L9.023,9.381z" fill="#FFFFFF"/></g><path d="M18.436,7.899c-0.074-0.104-0.135-0.187-0.32-0.289c-0.129-0.071-0.273-0.11-0.424-0.11H8.768    C8.179,7.5,7.7,8.104,7.7,8.85v13.08c0,0.746,0.479,1.352,1.068,1.352h3.916c-0.382-0.254-0.573-0.733-0.426-1.193l3.726-11.811    c0.04-0.129,0.105-0.243,0.187-0.342c-1.7,0-3.396,0-5.093,0l1.087,9.893l-1.839-5.142L9.051,16.12l0.71-6.185    c-0.239,0-0.477,0-0.715,0c-1.072,0-1.072-1.85,0-1.85c2.502,0,5.004,0,7.507,0c0.671,0,1.722,0,1.722,0    C18.438,8.086,18.512,8.002,18.436,7.899z" fill="#FFFFFF"/><path d="M22.375,25.5l2.926-9.109l-0.457-0.889l-0.139-0.27l-0.852-1.654l-0.139-0.271l-0.455-0.889L16.973,10.4    l-3.89,12.115L22.375,25.5z M24.627,16.176l-2.645,8.231l-7.946-2.552l3.327-10.362l5.613,1.803l-0.682,2.129L24.627,16.176z" fill="#FFFFFF"/><path d="M18.506,14.564c0.02,0.002,0.055,0.011,0.107,0.024c0.053,0.015,0.098,0.035,0.133,0.061    c-0.002,0.012-0.01,0.043-0.023,0.094c-0.012,0.052-0.031,0.115-0.051,0.19c-0.023,0.075-0.045,0.155-0.068,0.243    c-0.027,0.088-0.051,0.173-0.07,0.255c-0.021,0.081-0.041,0.155-0.059,0.219c-0.016,0.063-0.025,0.111-0.027,0.141    c0.092,0.02,0.168,0.035,0.229,0.048c0.061,0.014,0.109,0.024,0.148,0.035c0.041,0.011,0.078,0.021,0.111,0.029    s0.074,0.018,0.121,0.027c0.063,0.019,0.109,0.035,0.145,0.046c0.031,0.012,0.057,0.024,0.07,0.036    c0.014,0.013,0.02,0.023,0.02,0.033c-0.002,0.01-0.006,0.023-0.012,0.038c-0.055-0.012-0.121-0.025-0.195-0.035    c-0.074-0.011-0.148-0.021-0.229-0.034c-0.076-0.011-0.156-0.021-0.234-0.031c-0.078-0.013-0.152-0.021-0.219-0.034    c-0.004,0.02-0.014,0.063-0.027,0.13c-0.016,0.065-0.033,0.144-0.055,0.232c-0.02,0.09-0.041,0.185-0.063,0.287    c-0.021,0.102-0.043,0.202-0.061,0.299c-0.02,0.097-0.035,0.185-0.047,0.266c-0.014,0.081-0.02,0.142-0.02,0.184    c0.006,0.032,0.004,0.06,0,0.082c-0.008,0.022-0.01,0.061-0.01,0.112c-0.037-0.002-0.08-0.009-0.127-0.019    s-0.084-0.024-0.111-0.046c-0.008-0.037-0.012-0.067-0.012-0.095s0-0.058,0.004-0.09c0.004-0.031,0.01-0.067,0.016-0.105    c0.01-0.039,0.018-0.087,0.027-0.147c0.004-0.028,0.016-0.071,0.031-0.131c0.014-0.061,0.031-0.127,0.049-0.204    c0.018-0.076,0.035-0.156,0.055-0.239c0.02-0.085,0.041-0.164,0.059-0.239c0.02-0.073,0.035-0.139,0.053-0.195    c0.014-0.057,0.027-0.096,0.035-0.117c-0.068-0.014-0.127-0.024-0.178-0.034c-0.049-0.01-0.104-0.021-0.156-0.032    c-0.055-0.011-0.117-0.022-0.184-0.035c-0.068-0.013-0.148-0.029-0.246-0.047c-0.02,0.052-0.037,0.106-0.053,0.165    c-0.018,0.058-0.039,0.134-0.063,0.228c-0.02,0.059-0.047,0.151-0.084,0.275c-0.039,0.123-0.082,0.268-0.135,0.432    c-0.039-0.001-0.082-0.003-0.129-0.008c-0.046-0.004-0.083-0.01-0.112-0.021c0.002-0.017,0.018-0.065,0.047-0.146    c0.029-0.082,0.063-0.178,0.103-0.288c0.039-0.109,0.078-0.225,0.119-0.348c0.043-0.121,0.076-0.23,0.104-0.329    c-0.158-0.02-0.289-0.04-0.394-0.062c-0.107-0.021-0.168-0.046-0.184-0.068c-0.006-0.004-0.002-0.015,0.017-0.034    c0.02-0.019,0.042-0.035,0.065-0.049c0.061,0.014,0.111,0.023,0.154,0.032s0.084,0.016,0.119,0.021    c0.035,0.006,0.072,0.012,0.109,0.015c0.035,0.003,0.082,0.007,0.137,0.01c0.035-0.132,0.066-0.248,0.092-0.352    c0.027-0.104,0.051-0.2,0.068-0.29c0.02-0.089,0.033-0.179,0.045-0.267c0.01-0.088,0.02-0.185,0.023-0.29    c0.025-0.014,0.068-0.021,0.133-0.022c0.061-0.001,0.123,0.019,0.186,0.06c-0.041,0.107-0.076,0.206-0.102,0.298    c-0.023,0.091-0.047,0.185-0.068,0.279c-0.021,0.093-0.045,0.191-0.068,0.293c-0.023,0.101-0.057,0.213-0.094,0.333    c0.082,0.022,0.186,0.042,0.311,0.057c0.121,0.017,0.264,0.042,0.428,0.075c0.023-0.061,0.049-0.143,0.082-0.246    c0.033-0.104,0.064-0.212,0.092-0.323c0.029-0.111,0.053-0.217,0.072-0.315c0.021-0.098,0.033-0.172,0.035-0.225    c0.004-0.018,0.004-0.031,0.002-0.039c-0.002-0.007-0.002-0.012-0.002-0.016c-0.002-0.003-0.002-0.006,0-0.012    C18.492,14.584,18.498,14.575,18.506,14.564z" fill="#FFFFFF"/><path d="M18.957,16.401c0.064,0.026,0.139,0.061,0.215,0.101c0.078,0.04,0.154,0.083,0.225,0.128    c0.072,0.048,0.137,0.094,0.195,0.141c0.057,0.047,0.102,0.092,0.133,0.137c0.031,0.042,0.043,0.092,0.031,0.149    c-0.012,0.059-0.039,0.116-0.08,0.176c-0.043,0.06-0.094,0.117-0.154,0.174c-0.064,0.057-0.127,0.104-0.193,0.144    s-0.135,0.068-0.199,0.087c-0.066,0.018-0.123,0.018-0.17,0.001c-0.078-0.027-0.139-0.063-0.182-0.108    c-0.045-0.044-0.076-0.092-0.096-0.14s-0.029-0.095-0.033-0.141c0-0.045,0.004-0.084,0.01-0.114    c0.037-0.134,0.074-0.25,0.117-0.348c0.043-0.097,0.086-0.176,0.127-0.234c-0.008-0.017-0.014-0.031-0.02-0.046    c-0.008-0.013-0.016-0.026-0.023-0.038c-0.006-0.012-0.018-0.025-0.027-0.037c0.016,0,0.031-0.002,0.049-0.007    C18.914,16.421,18.939,16.412,18.957,16.401z M18.836,17.342c0.008,0.015,0.018,0.029,0.033,0.047    c0.012,0.018,0.033,0.033,0.057,0.049s0.053,0.026,0.082,0.032c0.029,0.004,0.064,0.002,0.105-0.009    c0.107-0.029,0.193-0.07,0.26-0.12c0.064-0.049,0.113-0.101,0.148-0.153c0.031-0.053,0.049-0.104,0.047-0.154    c0-0.049-0.014-0.091-0.043-0.123c-0.023-0.021-0.043-0.041-0.061-0.057c-0.016-0.015-0.039-0.032-0.066-0.05    c-0.027-0.019-0.063-0.039-0.105-0.065c-0.045-0.025-0.1-0.058-0.17-0.1c-0.063,0.065-0.115,0.136-0.158,0.209    c-0.041,0.072-0.074,0.142-0.094,0.208c-0.021,0.064-0.035,0.123-0.039,0.175C18.826,17.283,18.828,17.32,18.836,17.342z" fill="#FFFFFF"/><path d="M20.098,16.655c0.006-0.021,0.02-0.03,0.039-0.028s0.037,0.009,0.055,0.021    c0.018,0.014,0.035,0.028,0.051,0.047c0.016,0.017,0.025,0.029,0.033,0.037c-0.018,0.065-0.053,0.151-0.105,0.257    c-0.053,0.104-0.107,0.238-0.168,0.402c0.029-0.034,0.066-0.072,0.115-0.116c0.047-0.044,0.1-0.086,0.156-0.129    c0.057-0.041,0.115-0.078,0.178-0.11c0.061-0.031,0.117-0.054,0.17-0.066c0.055-0.012,0.1-0.012,0.139,0.002    c0.039,0.015,0.068,0.048,0.084,0.1c0.002,0.016,0,0.042-0.008,0.082s-0.021,0.087-0.039,0.141    c-0.018,0.056-0.035,0.116-0.057,0.184c-0.018,0.066-0.039,0.136-0.055,0.206c0.051-0.042,0.107-0.088,0.172-0.139    c0.064-0.049,0.129-0.093,0.193-0.128c0.066-0.036,0.131-0.06,0.193-0.069c0.064-0.011,0.123,0.003,0.178,0.042    c0.025,0.018,0.037,0.046,0.033,0.089c-0.002,0.04-0.01,0.09-0.02,0.143c-0.012,0.054-0.023,0.111-0.035,0.173    c-0.01,0.061-0.014,0.117-0.004,0.172c0.008,0.057,0.029,0.105,0.066,0.15s0.096,0.077,0.176,0.098    c0.043,0.016,0.072,0.028,0.092,0.034c0.02,0.009,0.033,0.016,0.041,0.021c0.008,0.007,0.01,0.011,0.006,0.015    c-0.004,0.005-0.006,0.012-0.01,0.021c-0.148,0-0.262-0.023-0.338-0.069c-0.078-0.046-0.133-0.104-0.162-0.173    c-0.027-0.068-0.039-0.145-0.033-0.227c0.008-0.082,0.021-0.16,0.041-0.235c0.004-0.034-0.008-0.054-0.031-0.058    c-0.027-0.003-0.061,0.006-0.105,0.025c-0.047,0.019-0.096,0.046-0.152,0.08c-0.057,0.033-0.111,0.071-0.166,0.112    s-0.104,0.081-0.15,0.122c-0.043,0.041-0.078,0.073-0.105,0.101c-0.023,0.016-0.053,0.013-0.09-0.012s-0.055-0.051-0.055-0.081    c0-0.045,0.008-0.096,0.027-0.154c0.02-0.058,0.039-0.115,0.063-0.174c0.021-0.058,0.045-0.113,0.068-0.168    c0.021-0.054,0.039-0.101,0.049-0.141c0.012-0.04,0.014-0.07,0.008-0.089c-0.004-0.019-0.025-0.021-0.063-0.01    c-0.082,0.043-0.164,0.095-0.244,0.157c-0.08,0.062-0.154,0.13-0.225,0.202c-0.072,0.072-0.135,0.147-0.191,0.226    c-0.059,0.076-0.104,0.149-0.137,0.217c-0.063-0.011-0.104-0.031-0.121-0.062c-0.018-0.029-0.029-0.058-0.041-0.087    c0.02-0.028,0.047-0.088,0.086-0.178c0.037-0.09,0.08-0.193,0.127-0.308c0.047-0.115,0.096-0.233,0.143-0.354    C20.02,16.849,20.061,16.744,20.098,16.655z" fill="#FFFFFF"/><path d="M22.34,17.679c0.012,0.001,0.045,0.005,0.098,0.012c0.055,0.008,0.096,0.02,0.125,0.038    c0.104,0.034,0.176,0.08,0.217,0.14c0.043,0.06,0.018,0.137-0.066,0.232c-0.113,0.101-0.24,0.172-0.381,0.215    s-0.303,0.075-0.482,0.097c0.012,0.077,0.055,0.131,0.121,0.164c0.07,0.031,0.146,0.051,0.232,0.056s0.176,0.001,0.262-0.012    c0.09-0.014,0.164-0.025,0.219-0.038c0.092-0.018,0.164-0.033,0.219-0.048c0.057-0.015,0.117-0.035,0.182-0.062    c0.012-0.001,0.02,0.001,0.02,0.008c-0.002,0.008-0.006,0.017-0.014,0.027s-0.02,0.026-0.035,0.045    c-0.016,0.014-0.033,0.025-0.047,0.035c-0.018,0.01-0.037,0.019-0.061,0.026c-0.027,0.01-0.059,0.02-0.098,0.03    c-0.041,0.011-0.09,0.025-0.15,0.046c-0.064,0.015-0.129,0.03-0.189,0.046c-0.063,0.016-0.125,0.025-0.188,0.029    c-0.064,0.005-0.131,0-0.201-0.012c-0.068-0.015-0.143-0.042-0.227-0.081c-0.064-0.043-0.115-0.081-0.15-0.116    c-0.037-0.034-0.061-0.067-0.076-0.096c-0.018-0.029-0.027-0.055-0.031-0.074c-0.004-0.021-0.006-0.038-0.006-0.053    c0-0.055,0.018-0.123,0.049-0.205c0.035-0.081,0.107-0.177,0.221-0.285c0.072-0.051,0.143-0.092,0.211-0.119    C22.184,17.695,22.26,17.681,22.34,17.679z M21.875,18.243c0.051-0.001,0.113-0.005,0.188-0.014    c0.072-0.007,0.145-0.022,0.213-0.044c0.07-0.02,0.135-0.047,0.191-0.082c0.059-0.034,0.1-0.077,0.121-0.13    c0.025-0.032,0.031-0.06,0.023-0.079c-0.006-0.01-0.012-0.017-0.018-0.019c-0.053-0.04-0.117-0.056-0.188-0.047    c-0.072,0.012-0.143,0.037-0.213,0.078c-0.072,0.04-0.137,0.091-0.195,0.151C21.938,18.118,21.896,18.18,21.875,18.243z" fill="#FFFFFF"/><path d="M16.196,19.563c0.01,0.003,0.018,0.011,0.018,0.021c0,0.013-0.004,0.023-0.01,0.037    c-0.008,0.013-0.016,0.023-0.024,0.035c-0.011,0.01-0.018,0.015-0.022,0.02c-0.039-0.016-0.101-0.039-0.187-0.068    c-0.085-0.028-0.176-0.059-0.269-0.087c-0.093-0.029-0.179-0.055-0.255-0.074c-0.077-0.021-0.125-0.03-0.142-0.024    c-0.002-0.053,0.014-0.089,0.047-0.107c0.032-0.019,0.077-0.018,0.133,0.006c0.063,0.023,0.119,0.043,0.168,0.058    c0.049,0.017,0.097,0.033,0.147,0.051c0.05,0.019,0.105,0.037,0.167,0.058S16.104,19.531,16.196,19.563z" fill="#FFFFFF"/><path d="M16.59,20.532c0.01,0.005,0.03,0.001,0.059-0.007c0.029-0.01,0.07-0.035,0.125-0.078    c0.053-0.043,0.121-0.105,0.205-0.188c0.083-0.081,0.183-0.193,0.302-0.336c0.025-0.029,0.051-0.031,0.076-0.008    c0.021,0.023,0.035,0.054,0.037,0.095c0.006,0.017,0.018,0.053,0.033,0.112c0.014,0.059,0.031,0.123,0.051,0.192    s0.041,0.133,0.066,0.192c0.023,0.06,0.049,0.096,0.078,0.108c0.033,0.018,0.074,0.004,0.119-0.041    c0.045-0.043,0.09-0.099,0.133-0.167c0.041-0.068,0.08-0.139,0.117-0.211c0.035-0.072,0.059-0.127,0.074-0.166    c0.01-0.006,0.029-0.013,0.063-0.023c0.031-0.01,0.063-0.018,0.09-0.02c0.029-0.002,0.047,0.004,0.055,0.016    c0.008,0.013-0.004,0.037-0.039,0.078c-0.043,0.12-0.096,0.227-0.16,0.32c-0.063,0.092-0.127,0.17-0.189,0.232    c-0.066,0.062-0.125,0.106-0.184,0.134c-0.059,0.025-0.105,0.032-0.141,0.019c-0.043-0.012-0.082-0.047-0.115-0.104    c-0.033-0.059-0.063-0.12-0.086-0.187c-0.025-0.066-0.045-0.13-0.061-0.193c-0.018-0.063-0.029-0.104-0.041-0.127    c-0.047,0.061-0.107,0.127-0.182,0.202c-0.074,0.073-0.15,0.141-0.227,0.201s-0.151,0.108-0.224,0.143    c-0.074,0.035-0.133,0.042-0.178,0.02c-0.033-0.037-0.054-0.092-0.059-0.163c-0.004-0.071,0.001-0.154,0.016-0.243    c0.014-0.089,0.033-0.183,0.057-0.279c0.025-0.094,0.051-0.187,0.078-0.275c0.026-0.088,0.053-0.165,0.076-0.233    c0.024-0.067,0.041-0.114,0.052-0.144c0.006-0.018,0.021-0.028,0.039-0.033c0.021-0.005,0.042-0.008,0.068-0.008    c0.026,0.002,0.05,0.005,0.072,0.01s0.037,0.01,0.048,0.013c0.018,0.003,0.021,0.016,0.014,0.036    c-0.009,0.021-0.024,0.053-0.046,0.103c-0.024,0.046-0.052,0.108-0.086,0.188c-0.034,0.078-0.067,0.177-0.101,0.293    c-0.014,0.034-0.027,0.082-0.045,0.14c-0.017,0.059-0.031,0.115-0.045,0.172c-0.016,0.056-0.023,0.104-0.025,0.146    C16.557,20.504,16.567,20.527,16.59,20.532z" fill="#FFFFFF"/><path d="M18.553,20.15c0.066,0.027,0.139,0.061,0.217,0.101s0.152,0.083,0.225,0.129    c0.07,0.045,0.137,0.094,0.193,0.14c0.057,0.045,0.104,0.092,0.135,0.136c0.031,0.042,0.043,0.093,0.029,0.149    c-0.012,0.059-0.039,0.115-0.08,0.178c-0.041,0.059-0.092,0.116-0.154,0.172c-0.064,0.057-0.127,0.104-0.193,0.145    s-0.133,0.067-0.199,0.086c-0.066,0.018-0.121,0.018-0.168,0.002c-0.078-0.028-0.141-0.064-0.184-0.108    c-0.045-0.045-0.076-0.091-0.096-0.141c-0.018-0.047-0.029-0.093-0.031-0.141c-0.002-0.045,0.002-0.083,0.01-0.114    c0.035-0.133,0.074-0.249,0.115-0.346c0.045-0.098,0.086-0.177,0.129-0.236c-0.008-0.017-0.014-0.031-0.021-0.044    c-0.006-0.013-0.014-0.026-0.021-0.04c-0.008-0.012-0.018-0.024-0.029-0.036c0.016,0,0.033-0.002,0.051-0.007    C18.512,20.169,18.535,20.161,18.553,20.15z M18.434,21.091c0.008,0.015,0.018,0.029,0.031,0.046    c0.014,0.018,0.033,0.034,0.059,0.05c0.023,0.017,0.051,0.026,0.08,0.031c0.031,0.005,0.066,0.003,0.107-0.007    c0.105-0.031,0.193-0.072,0.258-0.121c0.066-0.05,0.115-0.101,0.148-0.154c0.033-0.053,0.049-0.104,0.049-0.154    c0-0.049-0.016-0.09-0.045-0.122c-0.023-0.022-0.043-0.041-0.059-0.057c-0.018-0.017-0.041-0.032-0.066-0.052    c-0.029-0.018-0.064-0.038-0.107-0.063s-0.1-0.058-0.17-0.099c-0.063,0.064-0.115,0.134-0.158,0.208    c-0.041,0.072-0.072,0.142-0.094,0.207c-0.02,0.065-0.033,0.123-0.039,0.176C18.424,21.031,18.424,21.068,18.434,21.091z" fill="#FFFFFF"/><path d="M19.746,20.51c0.004-0.023,0.023-0.023,0.057,0.002c0.033,0.024,0.068,0.05,0.104,0.076    c-0.008,0.061-0.014,0.108-0.018,0.145s-0.01,0.068-0.018,0.099c-0.006,0.031-0.014,0.064-0.021,0.1    c-0.01,0.035-0.02,0.082-0.033,0.142c0.053-0.045,0.109-0.083,0.172-0.114s0.137-0.051,0.223-0.06    c0.084-0.008,0.182-0.001,0.289,0.019c0.105,0.02,0.23,0.059,0.371,0.113c-0.008,0.021-0.025,0.033-0.049,0.04    c-0.023,0.006-0.072,0-0.146-0.018c-0.107-0.024-0.205-0.033-0.295-0.024c-0.088,0.008-0.168,0.024-0.24,0.052    s-0.135,0.061-0.188,0.101c-0.051,0.041-0.096,0.079-0.133,0.115c-0.012,0.021-0.027,0.051-0.047,0.089    c-0.02,0.039-0.039,0.08-0.057,0.125s-0.035,0.088-0.053,0.13s-0.025,0.076-0.027,0.104c-0.002,0.014-0.012,0.02-0.035,0.019    c-0.021-0.001-0.045-0.004-0.07-0.011s-0.047-0.017-0.066-0.027c-0.02-0.014-0.027-0.025-0.023-0.037    c0.096-0.251,0.164-0.471,0.201-0.662C19.682,20.834,19.715,20.662,19.746,20.51z" fill="#FFFFFF"/><path d="M21.211,21.528c0.074,0.041,0.145,0.076,0.209,0.107c0.063,0.03,0.127,0.062,0.191,0.09    c0.063,0.031,0.133,0.062,0.213,0.095c0.076,0.034,0.17,0.073,0.277,0.121c0.023,0.035,0.039,0.063,0.043,0.082    c0.006,0.021,0.01,0.051,0.016,0.09c-0.109-0.055-0.207-0.102-0.297-0.143c-0.092-0.039-0.18-0.079-0.268-0.115    c-0.09-0.037-0.18-0.075-0.275-0.113c-0.096-0.037-0.199-0.081-0.316-0.131c-0.045,0.123-0.082,0.235-0.105,0.335    c-0.023,0.102-0.055,0.188-0.094,0.263c-0.021-0.006-0.037-0.014-0.047-0.025s-0.02-0.023-0.025-0.038    c-0.008-0.014-0.016-0.027-0.025-0.044c-0.008-0.015-0.021-0.028-0.041-0.041c0.131-0.334,0.24-0.646,0.326-0.933    c0.086-0.288,0.18-0.562,0.279-0.817c0.018-0.049,0.037-0.104,0.063-0.166c0.021-0.062,0.047-0.122,0.066-0.181    c0.021-0.062,0.039-0.116,0.053-0.164c0.016-0.05,0.018-0.083,0.014-0.105c0.031-0.01,0.061-0.015,0.086-0.011    c0.023,0.003,0.066,0.016,0.129,0.034c-0.1,0.301-0.203,0.595-0.316,0.883c-0.109,0.288-0.207,0.563-0.295,0.828    c0.07-0.011,0.15-0.026,0.234-0.049c0.084-0.023,0.164-0.045,0.238-0.068c0.072-0.023,0.139-0.043,0.193-0.062    c0.053-0.019,0.086-0.025,0.098-0.024c0.025,0.031,0.053,0.06,0.08,0.085c0.029,0.025,0.045,0.037,0.047,0.035    c-0.113,0.036-0.232,0.076-0.355,0.117C21.482,21.506,21.35,21.528,21.211,21.528z" fill="#FFFFFF"/></g></g></svg>