<?xml version="1.0" encoding="iso-8859-1"?>
<!-- Generator: Adobe Illustrator 19.0.0, SVG Export Plug-In . SVG Version: 6.00 Build 0)  -->
<svg version="1.1" id="Layer_1" xmlns="http://www.w3.org/2000/svg" xmlns:xlink="http://www.w3.org/1999/xlink" x="0px" y="0px"
	 viewBox="0 0 512 512" style="enable-background:new 0 0 512 512;" xml:space="preserve">
<g>
	<polygon style="fill:#8AD7F8;" points="93.867,0 122.667,58.667 187.733,68.267 140.8,114.133 152.533,179.2 93.867,148.267 
		36.267,179.2 46.933,114.133 0,68.267 65.067,58.667 	"/>
	<polygon style="fill:#8AD7F8;" points="418.133,0 446.933,58.667 512,68.267 465.067,114.133 475.733,179.2 418.133,148.267 
		359.467,179.2 371.2,114.133 324.267,68.267 389.333,58.667 	"/>
</g>
<path style="fill:#FFD15C;" d="M161.067,481.067L144,478.933h-17.067v-118.4H137.6l26.667-14.933
	c33.067-18.133,59.733-45.867,76.8-78.933c0,0,0,0,0-1.067c2.133-4.267,4.267-8.533,4.267-13.867l4.267-19.2
	c0,0,12.8-8.533,20.267,8.533c0,0,10.667,28.8-4.267,52.267c-2.133,10.667-17.067,22.4-16,32c0,0,9.6,7.467,19.2,4.267
	c9.6-3.2,35.2,2.133,40.533,14.933c5.333,8.533,7.467,22.4-9.6,29.867c0,0,11.733,7.467,10.667,19.2
	c-1.067,13.867-11.733,18.133-11.733,18.133s9.6,8.533,4.267,20.267c-5.333,11.733-11.733,12.8-11.733,12.8s9.6,13.867,3.2,23.467
	l0,0c-5.333,6.4-12.8,11.733-20.267,13.867C244.267,490.667,203.733,486.4,161.067,481.067z"/>
<path style="fill:#F3F3F3;" d="M249.6,233.6l-4.267,19.2c0,2.133-1.067,4.267-2.133,6.4c9.6,1.067,12.8-7.467,13.867-14.933
	C258.133,237.867,249.6,233.6,249.6,233.6z"/>
<rect x="96" y="355.2" style="fill:#E8EAE9;" width="43.733" height="135.467"/>
<rect y="349.867" style="fill:#415A6B;" width="118.4" height="162.133"/>
<circle style="fill:#344A5E;" cx="82.133" cy="477.867" r="16"/>
<polygon style="fill:#F3705A;" points="256,0 296.533,82.133 387.2,96 322.133,160 337.067,249.6 256,206.933 174.933,249.6 
	189.867,160 124.8,96 215.467,82.133 "/>
<g>
</g>
<g>
</g>
<g>
</g>
<g>
</g>
<g>
</g>
<g>
</g>
<g>
</g>
<g>
</g>
<g>
</g>
<g>
</g>
<g>
</g>
<g>
</g>
<g>
</g>
<g>
</g>
<g>
</g>
</svg>
