<?xml version="1.0" encoding="iso-8859-1"?>
<!-- Generator: Adobe Illustrator 19.0.0, SVG Export Plug-In . SVG Version: 6.00 Build 0)  -->
<svg version="1.1" id="Capa_1" xmlns="http://www.w3.org/2000/svg" xmlns:xlink="http://www.w3.org/1999/xlink" x="0px" y="0px"
	 viewBox="0 0 56 56" style="enable-background:new 0 0 56 56;" xml:space="preserve">
<path style="fill:#556080;" d="M31.245,5.793h-6.759l-0.705-4.232C23.645,0.744,24.275,0,25.103,0h5.525
	c0.828,0,1.459,0.744,1.322,1.561L31.245,5.793z"/>
<path style="fill:#556080;" d="M31.245,50.207h-6.759l-0.705,4.232C23.645,55.256,24.275,56,25.103,56h5.525
	c0.828,0,1.459-0.744,1.322-1.561L31.245,50.207z"/>
<path style="fill:#556080;" d="M6.142,24.38v6.759L1.561,31.95C0.744,32.087,0,31.456,0,30.628l0-5.525
	c0-0.828,0.744-1.459,1.561-1.322L6.142,24.38z"/>
<path style="fill:#556080;" d="M50.555,24.621v6.759l4.232,0.705C55.605,32.221,56,31.456,56,30.628v-5.525
	c0-0.828-0.395-1.324-1.212-1.188L50.555,24.621z"/>
<path style="fill:#556080;" d="M14.694,10.249l-4.779,4.779l-3.491-2.494c-0.674-0.482-0.755-1.453-0.169-2.039l3.906-3.906
	c0.586-0.586,1.557-0.505,2.039,0.169L14.694,10.249z"/>
<path style="fill:#556080;" d="M9.038,16.414l-2.897,5.793l-3.93-0.596c-0.805-0.196-1.241-1.068-0.915-1.83l2.173-5.079
	c0.326-0.762,1.258-1.048,1.955-0.602L9.038,16.414z"/>
<path style="fill:#556080;" d="M47.532,16.414l2.897,5.793l3.93-0.596c0.805-0.196,1.241-1.068,0.915-1.83l-2.173-5.079
	c-0.326-0.762-1.258-1.048-1.955-0.602L47.532,16.414z"/>
<path style="fill:#556080;" d="M47.659,39.586l2.897-5.793l3.93,0.596c0.805,0.196,1.241,1.068,0.915,1.83l-2.173,5.079
	c-0.326,0.762-1.258,1.048-1.955,0.602L47.659,39.586z"/>
<path style="fill:#556080;" d="M9.165,39.586l-2.897-5.793l-3.93,0.596c-0.805,0.196-1.241,1.068-0.915,1.83l2.173,5.079
	c0.326,0.762,1.258,1.048,1.955,0.602L9.165,39.586z"/>
<path style="fill:#556080;" d="M22.676,6.043l-6.081,2.95l-2.482-3.5c-0.479-0.676-0.237-1.62,0.508-1.982l4.97-2.412
	c0.745-0.362,1.637,0.033,1.871,0.827L22.676,6.043z"/>
<path style="fill:#556080;" d="M33.176,5.793l6.081,2.95l2.482-3.5c0.479-0.676,0.237-1.62-0.508-1.982L36.26,0.85
	c-0.745-0.362-1.637,0.033-1.871,0.827L33.176,5.793z"/>
<path style="fill:#556080;" d="M22.555,50.207l-6.081-2.95l-2.482,3.5c-0.479,0.676-0.237,1.62,0.508,1.982l4.97,2.412
	c0.745,0.362,1.637-0.033,1.871-0.827L22.555,50.207z"/>
<path style="fill:#556080;" d="M46.099,41.654l-4.779,4.779l2.494,3.491c0.481,0.674,1.453,0.755,2.039,0.169l3.906-3.906
	c0.586-0.586,0.505-1.557-0.169-2.039L46.099,41.654z"/>
<path style="fill:#556080;" d="M10.086,41.143l4.779,4.779l-2.494,3.491c-0.482,0.674-1.453,0.755-2.039,0.169l-3.906-3.906
	c-0.586-0.586-0.505-1.557,0.169-2.039L10.086,41.143z"/>
<path style="fill:#556080;" d="M41.662,9.908l4.779,4.779l3.491-2.494c0.674-0.482,0.755-1.453,0.169-2.039l-3.906-3.906
	c-0.586-0.586-1.557-0.505-2.039,0.169L41.662,9.908z"/>
<path style="fill:#556080;" d="M39.074,47.437c-1.477,0.818-3.058,1.47-4.716,1.937l-1.302,0.583l1.213,4.116
	c0.234,0.795,1.126,1.189,1.871,0.827l4.97-2.412c0.745-0.362,0.988-1.306,0.508-1.982L39.074,47.437z"/>
<path style="fill:#559A92;" d="M28.361,5c-12.682,0-23,10.317-23,23s10.318,23,23,23s23-10.317,23-23S41.043,5,28.361,5z M28.361,42
	c-7.72,0-14-6.28-14-14s6.28-14,14-14s14,6.28,14,14S36.081,42,28.361,42z"/>
<circle style="fill:#D9B24C;" cx="28.361" cy="28" r="6"/>
<g>
</g>
<g>
</g>
<g>
</g>
<g>
</g>
<g>
</g>
<g>
</g>
<g>
</g>
<g>
</g>
<g>
</g>
<g>
</g>
<g>
</g>
<g>
</g>
<g>
</g>
<g>
</g>
<g>
</g>
</svg>
