<?xml version="1.0" encoding="iso-8859-1"?>
<!-- Generator: Adobe Illustrator 19.0.0, SVG Export Plug-In . SVG Version: 6.00 Build 0)  -->
<svg xmlns="http://www.w3.org/2000/svg" xmlns:xlink="http://www.w3.org/1999/xlink" version="1.1" id="Capa_1" x="0px" y="0px" viewBox="0 0 405.2 405.2" style="enable-background:new 0 0 405.2 405.2;" xml:space="preserve" width="512px" height="512px">
<g>
	<g>
		<g>
			<path d="M170,371c-44-4.8-82.8-25.6-110.4-56.4C32,283.8,15.2,243,15.2,199c0-48,19.6-91.2,50.8-122.4     c31.2-31.2,74.8-50.8,122.8-50.8S280,45.4,311.6,76.6C342.4,107.8,362,151,362,199c0,4.8,0,9.6-0.4,14.4     c-0.4,4.8-0.8,9.6-1.6,14.4c-0.8,4,2,8,6,8.8s8-2,8.8-6c0.8-5.2,1.6-10.4,2-15.6c0.4-5.2,0.8-10.4,0.8-15.6     c0-52-21.2-99.2-55.2-133.2S241.2,11,189.2,11S90,32.2,56,66.2C21.2,99.8,0,147,0,199c0,48,18,92.4,48.4,126     c30,33.2,72.4,56,120,61.2c4,0.4,8-2.4,8.4-6.8C177.2,375.4,174.4,371.4,170,371z" fill="#ebba33"/>
			<path d="M174,329.8c-33.6-3.6-62.8-19.6-84-43.2C70.4,265,58.4,237,56.4,206.2h18.8c4,0,7.6-3.2,7.6-7.6c0-4-3.2-7.6-7.6-7.6     H56.4c2-33.6,16-63.6,38.4-85.6C117.2,83,147.2,69,180.4,67v18.8c0,4,3.2,7.6,7.6,7.6c4,0,7.6-3.2,7.6-7.6V67     c33.6,2,63.6,16,85.6,38.4c22.4,22.4,36.4,52.4,38.4,85.6h-18.8c-4,0-7.6,3.2-7.6,7.6c0,4,3.2,7.6,7.6,7.6h18.8     c-0.4,7.6-1.6,14.8-3.2,22.4c-1.6,9.6-4.8,19.2-9.2,28.4c-2,3.6-0.4,8.4,3.6,10c3.6,2,8.4,0.4,10-3.6c4.8-10,8.8-20.8,11.2-31.6     c2.4-10.8,3.6-22,3.6-33.2c0-40.4-16.4-77.2-43.2-104c-26.4-26.4-63.2-43.2-104-43.2c-40.4,0-77.2,16.4-104,43.2     C58,121.4,41.6,158.2,41.6,199c0,37.6,14,72,37.6,98c23.6,26,56,44,93.2,48c4,0.4,8-2.4,8.4-6.8     C181.2,334.2,178.4,330.2,174,329.8z" fill="#ebba33"/>
			<path d="M212,199c0-6.4-2.8-12.4-6.8-16.8c-2.4-2.4-5.6-4.4-9.2-5.6v-61.2c0-4.4-3.2-7.6-7.6-7.6c-4,0-7.6,3.2-7.6,7.6v61.2     c-3.2,1.2-6.4,2.8-8.8,5.2l-0.4,0.4c-2.4,2.4-4.4,5.6-5.6,9.2h-45.6c-4,0-7.6,3.2-7.6,7.6c0,4,3.2,7.6,7.6,7.6H166     c1.2,3.6,3.2,6.8,5.6,9.2c4.4,4.4,10.4,6.8,16.8,6.8c6.4,0,12.4-2.8,16.8-6.8C209.6,211.4,212,205.4,212,199z M194.8,205     c-1.6,1.6-3.6,2.4-6,2.4c-2.4,0-4.8-0.8-6-2.4c-1.6-1.6-2.4-3.6-2.4-6c0-2.4,0.8-4.4,2.4-6c0,0,0,0,0.4-0.4     c1.6-1.6,3.6-2.4,6-2.4c2.4,0,4.8,0.8,6,2.4c1.6,1.6,2.4,3.6,2.4,6C197.2,201.4,196.4,203.4,194.8,205z" fill="#ebba33"/>
			<path d="M404,342.2c-0.8-2.4-2-4.8-4-6.8s-4-3.2-6.4-4.4c-2.4-0.8-4.8-1.2-7.6-1.2v-9.2c0-0.4,0-1.2,0-1.6     c-0.4-2.4-0.8-4.4-1.6-6.4c-1.2-2.4-2.8-4.4-4.8-6c-2-1.6-4.4-2.8-7.2-3.6c-3.6,1.2-6.4,0.8-9.2,0.8c-0.8,0-1.6,0-2.4,0     c1.2-2,2.4-4,3.2-5.6c0,0,0-0.4,0.4-0.4c2-3.6,3.6-6.4,5.2-9.2c0.8-1.6,1.6-3.6,2-5.2c0.4-2,0.8-3.6,0.8-5.6     c0-2.8-0.8-5.6-2.4-8.4c-1.2-2.4-3.2-4.4-6-6c-2.4-1.6-4.8-3.2-7.2-4c-2.8-0.8-5.2-1.6-8-1.6c-4.4,0-8,1.2-11.6,3.2     c-3.2,2-6,5.2-8,8.8c-8.4,14.8-15.2,27.2-20.4,36.8c-5.2,9.6-9.2,16-11.2,19.6c-2,3.2-4,6.8-4.8,10.4c-1.2,4-1.6,7.6-1.6,12     c0,2.8,0.4,5.6,1.6,8.4c0.8,2.8,2.4,5.2,4,7.2c2,2.4,4.4,4.4,7.2,6c2.8,1.2,5.6,2,8.8,2H344v3.6c0,2.8,0.4,5.6,1.6,8     c1.2,2.8,2.8,4.8,5.2,6.4c2,1.6,4.4,2.8,6.8,3.2c2.4,0.8,4.8,0.8,7.6,0.8c6,0,10.8-1.6,14.4-4.8c4-3.2,6-8,6.4-14     c0-1.2,0-2.4,0-3.6h0.4c6.4,0,11.2-2.4,14.4-6.4c2.8-4,4.4-8.8,4.4-15.6C405.2,347,404.8,344.6,404,342.2z M387.6,357.4     c-0.4,0.4-1.2,0.8-2.4,0.8h-7.6c-4,0-7.6,3.2-7.6,7.6c0,3.2,0,5.2,0,6c0,1.6,0,3.2,0,4.8s-0.4,2.4-0.8,3.2     c-0.8,0.8-2.4,1.2-5.2,1.2h-0.4c-1.2,0-2.4,0-3.2-0.4c-0.8,0-1.2-0.4-1.6-0.8l-0.4-0.4c-0.4-0.4-0.4-1.2-0.4-2v-11.2     c0-4-3.2-7.6-7.6-7.6H312c-0.8,0-1.6,0-2.4-0.4c-0.8-0.4-1.2-0.8-2-1.6c-0.8-1.2-1.2-2-1.6-3.2c-0.4-0.8-0.4-2-0.4-3.2     c0-2.8,0.4-5.2,1.2-7.6c0.8-2.4,1.6-4.4,3.2-6.8l0.4-0.4c2.4-4,6-10.4,11.6-20c5.2-9.2,12-21.6,20.8-37.2c0.8-1.6,2-2.8,3.2-3.6     c0.8-0.4,2-0.8,3.6-0.8c1.2,0,2,0,3.2,0.4c1.2,0.4,2.4,1.2,3.6,2c0.8,0.8,1.6,1.2,2,2v0.4c0,0.4,0,1.2-0.4,1.6     c0,0.8-0.4,1.6-0.8,2.4c-1.2,2.4-2.8,5.2-4.8,8.4c0,0,0,0.4-0.4,0.4c-2,3.6-4.4,7.2-6.8,11.6c-3.2,5.2-5.2,8.8-6.4,10.8     c-1.6,2.4-2.8,4.4-3.6,6l-9.2,16.4c-0.8,1.2-1.2,2.4-1.2,4c0,4,3.6,7.6,7.6,7.2l19.2-0.4c4,0,7.2-3.2,7.2-7.6v-13.6     c0-0.4,0-0.4,0-0.8c0-2.4,0.4-4.4,1.2-5.2c0.8-0.8,2-0.8,4-0.8c1.6,0,3.2,0,4,0.4c0.8,0,1.2,0.4,1.2,0.4c0.4,0,0.4,0.4,0.4,0.8     c0.4,0.4,0.4,1.2,0.4,1.6v16.4c-0.4,4.4,2.8,7.6,7.2,7.6h7.6c0.8,0,1.6,0,2,0.4c0.4,0,0.8,0.4,0.8,0.4c0.4,0.4,0.4,0.8,0.8,1.2     c0.4,0.8,0.4,1.6,0.4,2.8C388.8,354.2,388.4,356.2,387.6,357.4z" fill="#ebba33"/>
			<path d="M290.8,357.8c-2-2.4-4-4-6.4-5.2c-2.4-1.2-5.2-2-8-2c-0.4,0-0.4,0-2,0c-0.8,0-1.6,0-2.4,0s-1.6,0-2,0c-0.4,0-0.4,0-2,0     c-0.4,0-0.8,0-1.2,0H266h-2.8l2.4-2c1.2,0,2.8-1.2,4-2s2.4-2,3.6-3.2s2.8-2.8,4.8-4.8s4-4,5.2-5.6c1.6-2,2.8-3.6,3.6-5.2     c0.8-1.2,1.6-2.8,2.4-4.8c0.8-1.6,1.6-3.6,2-5.6c0.8-2,1.2-4.4,1.6-6.8c0.4-2.4,0.4-4.8,0.4-6.8c0-14-5.2-25.6-16-34     c-5.2-4-10.8-7.2-17.2-9.2c-6-2-12.8-2.8-20-2.8c-5.6,0-11.2,1.2-16.4,2.8c-5.2,2-10,4.4-14.8,8c-4.4,3.2-7.6,6.8-10,10     c-2.8,4-4,8.4-4,12.4c0,2.8,0.4,5.2,1.6,8c0.8,2.4,2.4,4.8,4,6.8c2,2,4,4,6.8,4.8c2.4,1.2,5.2,1.6,8,1.6c7.2,0,13.2-2.4,17.6-6.8     l0.4-0.4c2-1.6,3.6-3.2,5.2-4c1.2-0.8,2.4-0.8,3.6-0.8s2.4,0,3.2,0.4c0.8,0.4,1.6,0.8,2.4,1.2c0.4,0.4,0.8,0.4,0.8,0.8     c0,0.4,0,0.4,0,1.2c0,0.4-0.4,1.2-1.2,2.4v0.4c-1.6,2-6,7.2-14,14.8l-0.4,0.4c-1.6,1.2-3.2,3.2-6,5.6c-3.2,2.8-6,5.6-9.2,8     c-4.4,4-7.2,6.4-8.4,7.6c-2.4,2-3.6,3.2-4,3.6c0,0,0,0.4-0.4,0.4c-1.6,1.6-3.2,3.6-4.8,5.2c-1.6,2-2.8,4-3.6,5.6     c-0.8,2-1.6,4-2,6.4c-0.4,2.4-0.8,4.4-0.8,6.8c0,6.4,2,12,6,16c2,2.4,4.4,4,7.2,5.2c2.8,1.2,5.6,1.6,8.8,1.6h0.4     c8,0,15.2,0,22,0.4c8.8,0,14.4,0,16.8,0h19.6h0.4c2.8,0,5.2-0.4,7.6-1.2c0.4,0,0.4,0,0.8-0.4c2.4-0.8,4.4-2.4,6.4-4     c2-2,3.6-4.4,4.8-7.6c0.8-2.8,1.2-5.6,1.2-8.8c0-2.4-0.4-5.2-1.2-7.6C293.6,362.2,292.4,359.8,290.8,357.8z M281.2,377.4     c-0.4,0.8-0.4,1.2-0.8,1.6c-0.4,0.4-0.8,0.8-1.2,0.8h-0.4c-0.8,0.4-1.6,0.4-2.4,0.4c-0.4,0-0.4,0-0.8,0H256c-6.8,0-12.4,0-16.8,0     c-6.4,0-13.6,0-21.6-0.4c-0.4,0-0.4,0-0.8,0c-1.2,0-2,0-2.8-0.4c-0.8-0.4-1.6-0.8-2-1.6c-1.2-1.6-2-3.2-2-6c0-1.6,0-2.8,0.4-3.6     c0.4-1.2,0.4-2,0.8-2.8c0.4-0.8,1.2-2,2-3.2s2-2.4,3.2-3.6l0.4-0.4c0.4-0.4,1.6-1.6,3.6-3.2c3.2-2.8,5.6-5.2,8.4-7.2     c4-3.6,7.2-6.4,9.2-8.4c2.4-2,4.4-4,6-5.6l0.4-0.4c8.4-8.4,13.6-14,15.6-17.2v-0.4c2.4-3.6,3.6-7.2,3.6-10.8c0-2.8-0.8-5.6-2-8     c-1.2-2.4-2.8-4.4-5.2-6c-2-1.6-4.4-2.8-6.8-3.6c-2.4-0.8-4.8-1.2-7.6-1.2c-3.6,0-6.8,0.8-10.4,2.8c-2.8,1.6-5.6,3.6-8.8,6.4     l-0.4,0.4c-1.6,1.6-4,2.4-7.2,2.4c-0.8,0-1.6,0-2-0.4c-0.4-0.4-1.2-0.8-1.6-1.2c-0.8-0.8-1.2-1.6-1.2-2c-0.4-0.8-0.4-1.6-0.4-2.8     c0-1.6,0.4-2.8,1.6-4.4c1.2-2,3.6-4,6.4-6.4c3.2-2.8,6.8-4.4,10.8-6c3.6-1.2,7.6-2,12-2c5.6,0,10.4,0.4,15.2,2     c4.4,1.6,8.8,3.6,12.4,6.4c6.8,5.6,10.4,12.8,10.4,22.4c0,1.6,0,3.2-0.4,4.4c-0.4,1.2-0.4,2.8-1.2,4.4c-0.4,1.6-1.2,3.2-1.6,4.4     c-0.4,1.2-1.2,2.4-1.6,3.2c-0.4,0.8-1.2,1.6-2,2.8c-1.2,1.2-2.4,2.8-4.4,4.4c-1.6,1.6-3.2,3.2-4.8,4.8c-1.2,1.2-2.4,2.4-3.2,2.8     c-0.8,0.4-2,1.6-4,3.6c-1.2,1.2-3.6,2.8-6.8,5.6l-11.6,9.6c-1.6,1.2-2.8,3.2-2.8,5.6c0,4,3.2,7.6,7.2,8c2.8,0,6,0,10.4,0     c4,0,8.8,0,14.4-0.4c0.4,0,0.4,0,0.8,0h1.2c0.4,0,0.8,0,2,0c0.8,0,1.6,0,2.4,0s1.6,0,2.4,0c0.4,0,0.4,0,2,0c0.8,0,1.2,0,1.6,0.4     c0.4,0.4,0.8,0.4,1.2,1.2c0.4,0.8,0.8,1.6,1.2,2.4s0.4,1.6,0.4,2.8C281.6,375.4,281.6,376.6,281.2,377.4z" fill="#ebba33"/>
		</g>
	</g>
</g>
<g>
</g>
<g>
</g>
<g>
</g>
<g>
</g>
<g>
</g>
<g>
</g>
<g>
</g>
<g>
</g>
<g>
</g>
<g>
</g>
<g>
</g>
<g>
</g>
<g>
</g>
<g>
</g>
<g>
</g>
</svg>
