<?xml version="1.0" encoding="iso-8859-1"?>
<!-- Generator: Adobe Illustrator 19.0.0, SVG Export Plug-In . SVG Version: 6.00 Build 0)  -->
<svg version="1.1" id="Layer_1" xmlns="http://www.w3.org/2000/svg" xmlns:xlink="http://www.w3.org/1999/xlink" x="0px" y="0px"
	 viewBox="0 0 473.931 473.931" style="enable-background:new 0 0 473.931 473.931;" xml:space="preserve">
<circle style="fill:#4ABC96;" cx="236.966" cy="236.966" r="236.966"/>
<rect x="126.01" y="89.353" transform="matrix(-0.9875 0.1577 -0.1577 -0.9875 503.9807 438.8846)" style="fill:#FFFFFF;" width="217.137" height="300.168"/>
<g>
	
		<rect x="333.381" y="148.94" transform="matrix(-0.9788 -0.2046 0.2046 -0.9788 648.2473 366.614)" style="fill:#F7D98B;" width="19.393" height="1.706"/>
	<polygon style="fill:#F7D98B;" points="349.088,117.925 333.784,146.984 352.766,150.95 	"/>
</g>
<polygon style="fill:#626463;" points="349.076,117.738 342.405,130.434 350.7,132.166 "/>
<path style="fill:#F2BE3E;" d="M300.632,400.129c-0.827,3.959-4.052,3.368-8.011,2.544l-4.557-0.954
	c-3.955-0.823-7.147-1.579-6.316-5.53l0.655-3.132c0.823-3.955,19.708-0.015,18.885,3.948L300.632,400.129z"/>
<rect x="283.516" y="382.203" transform="matrix(-0.979 -0.2041 0.2041 -0.979 500.9268 829.0092)" style="fill:#818282;" width="19.391" height="12.943"/>
<g>
	
		<rect x="284.642" y="382.316" transform="matrix(-0.979 -0.2041 0.2041 -0.979 504.2504 818.6085)" style="fill:#A4A5A4;" width="19.391" height="1.972"/>
	
		<rect x="283.729" y="386.603" transform="matrix(-0.9789 -0.2043 0.2043 -0.9789 501.4775 826.9543)" style="fill:#A4A5A4;" width="19.393" height="1.976"/>
	
		<rect x="282.902" y="390.863" transform="matrix(-0.9789 -0.2044 0.2044 -0.9789 498.9277 835.2355)" style="fill:#A4A5A4;" width="19.394" height="1.976"/>
</g>
<g>
	<polygon style="fill:#E84849;" points="348.392,151.594 299.902,383.83 304.055,384.694 352.541,152.462 351.83,149.053 	"/>
	<polygon style="fill:#E84849;" points="336.5,149.113 288.011,381.349 293.5,382.494 341.997,150.262 339.785,146.539 	"/>
</g>
<g>
	<polygon style="fill:#F06668;" points="333.38,148.462 284.886,380.69 288.011,381.349 336.5,149.113 334.835,145.506 	"/>
	<polygon style="fill:#F06668;" points="341.997,150.262 293.5,382.494 299.902,383.83 348.392,151.594 345.843,147.803 	"/>
</g>
<g>
	
		<rect x="126.479" y="120.739" transform="matrix(-0.9875 0.1578 -0.1578 -0.9875 447.2661 217.1708)" style="fill:#357180;" width="177.065" height="11.203"/>
	
		<rect x="131.519" y="148.387" transform="matrix(-0.9875 0.1577 -0.1577 -0.9875 461.6308 271.3483)" style="fill:#357180;" width="177.062" height="11.203"/>
	
		<rect x="136.171" y="177.755" transform="matrix(-0.9875 0.1578 -0.1578 -0.9875 475.525 328.9635)" style="fill:#357180;" width="177.065" height="11.207"/>
	
		<rect x="141.238" y="212.506" transform="matrix(-0.9875 0.1578 -0.1578 -0.9875 412.1374 403.493)" style="fill:#357180;" width="97.625" height="11.203"/>
</g>
<g>
</g>
<g>
</g>
<g>
</g>
<g>
</g>
<g>
</g>
<g>
</g>
<g>
</g>
<g>
</g>
<g>
</g>
<g>
</g>
<g>
</g>
<g>
</g>
<g>
</g>
<g>
</g>
<g>
</g>
</svg>
