<?xml version="1.0" encoding="iso-8859-1"?>
<!-- Generator: Adobe Illustrator 19.0.0, SVG Export Plug-In . SVG Version: 6.00 Build 0)  -->
<svg version="1.1" id="Layer_1" xmlns="http://www.w3.org/2000/svg" xmlns:xlink="http://www.w3.org/1999/xlink" x="0px" y="0px"
	 viewBox="0 0 509.287 509.287" style="enable-background:new 0 0 509.287 509.287;" xml:space="preserve">
<circle style="fill:#3EB9E3;" cx="254.644" cy="254.644" r="254.644"/>
<path style="fill:#FED9C9;" d="M153.939,408.583l-79.682,25.77c28.143,28.482,63.068,50.183,102.4,62.728
	c9.833-4.747,25.091-14.58,28.143-30.856C209.208,441.473,153.939,408.583,153.939,408.583z"/>
<path style="fill:#EDC3B4;" d="M167.163,483.857c-11.189,0-40.689-13.224-65.102-25.43c20.683,15.597,44.079,28.143,69.171,36.959
	c11.528-5.086,23.396-18.31,23.396-18.31S187.846,484.196,167.163,483.857z"/>
<path style="fill:#FAD404;" d="M124.779,104.434V395.02c0,14.241,11.528,26.109,26.109,26.109h296.35
	c38.654-44.758,61.711-102.739,61.711-166.146c0-68.493-27.126-130.543-70.866-176.318H150.887
	C136.646,78.326,124.779,89.854,124.779,104.434z"/>
<g>
	<rect x="177.335" y="277.701" style="fill:#E6BD20;" width="206.156" height="30.856"/>
	<path style="fill:#E6BD20;" d="M491.317,348.567H177.335v30.856h299.062C482.162,369.589,486.909,359.417,491.317,348.567z"/>
</g>
<path style="fill:#FED9C9;" d="M0,252.948c0,0.678,0,1.356,0,1.695c0,62.728,22.718,120.032,60.016,164.111l79.004-33.907v-39.672
	c0,0-111.555-87.142-127.83-91.889C9.833,253.287,5.764,252.948,0,252.948z"/>
<path style="fill:#EDC3B4;" d="M34.925,383.152c8.138,3.052,14.58,5.086,14.58,5.086l18.649-13.902c0,0-27.465-7.46-45.097-14.241
	C26.448,367.894,30.517,375.693,34.925,383.152z"/>
<path style="fill:#393D47;" d="M481.144,138.342H125.118v98.331h383.491C505.897,201.409,496.403,168.18,481.144,138.342z"/>
<path style="opacity:0.2;fill:#414753;enable-background:new    ;" d="M103.078,459.105c35.603-12.546,61.711-50.522,61.711-50.522
	l-92.228,23.735C81.717,441.812,91.889,450.967,103.078,459.105z"/>
<path style="fill:#FFE1D7;" d="M191.237,305.505c-9.494-6.103-21.023-7.799-32.212-7.799c-34.246,0-66.797,15.936-95.279,35.264
	c-13.563,9.494-26.787,19.666-40.011,29.499c15.936,34.246,39.332,64.424,68.154,88.159c7.46-2.034,14.58-4.747,21.701-7.799
	c26.448-11.528,48.148-31.195,69.171-50.522c8.138-7.46,16.275-14.919,21.701-24.413
	C216.328,347.211,211.242,318.05,191.237,305.505z"/>
<path style="fill:#FFF2EE;" d="M202.426,326.866L202.426,326.866c-10.85-17.971-34.246-23.735-51.878-12.885l-29.16,17.632
	c-12.546,7.799-16.615,24.074-9.155,36.959l11.528,18.988c7.799,12.546,24.074,16.615,36.959,9.155l29.16-17.632
	C207.852,367.894,213.277,344.837,202.426,326.866z"/>
<path style="fill:#FFFFFF;" d="M192.932,335.343L192.932,335.343c7.121,11.528,8.477,24.752,5.425,36.62
	c10.85-12.207,13.224-30.517,4.069-45.097l0,0c-10.172-16.615-31.195-22.718-48.826-14.58
	C169.197,312.964,184.117,321.102,192.932,335.343z"/>
<g>
</g>
<g>
</g>
<g>
</g>
<g>
</g>
<g>
</g>
<g>
</g>
<g>
</g>
<g>
</g>
<g>
</g>
<g>
</g>
<g>
</g>
<g>
</g>
<g>
</g>
<g>
</g>
<g>
</g>
</svg>
