<?xml version="1.0" encoding="iso-8859-1"?>
<!-- Generator: Adobe Illustrator 19.0.0, SVG Export Plug-In . SVG Version: 6.00 Build 0)  -->
<svg version="1.1" id="Layer_1" xmlns="http://www.w3.org/2000/svg" xmlns:xlink="http://www.w3.org/1999/xlink" x="0px" y="0px"
	 viewBox="0 0 473.931 473.931" style="enable-background:new 0 0 473.931 473.931;" xml:space="preserve">
<circle style="fill:#EFC849;" cx="236.966" cy="236.966" r="236.966"/>
<path style="fill:#F5F5F5;" d="M144.395,93.791c-8.823,0-15.981,7.158-15.981,15.985v255.753c0,8.827,7.158,15.985,15.981,15.985
	H328.22c8.827,0,15.981-7.158,15.981-15.985V167.814l-77.047-74.023H144.395z"/>
<path style="fill:#E1E1E1;" d="M344.205,167.814h-61.066c-8.827,0-15.981-7.158-15.981-15.985V93.791L344.205,167.814z"/>
<g>
	<path style="fill:#C9C9C8;" d="M321.717,189.64c0,2.754-2.234,4.988-4.992,4.988H157.079c-2.754,0-4.988-2.234-4.988-4.988l0,0
		c0-2.754,2.234-4.988,4.988-4.988h159.646C319.483,184.652,321.717,186.886,321.717,189.64L321.717,189.64z"/>
	<path style="fill:#C9C9C8;" d="M321.717,215.832c0,2.754-2.234,4.988-4.992,4.988H157.079c-2.754,0-4.988-2.234-4.988-4.988l0,0
		c0-2.754,2.234-4.988,4.988-4.988h159.646C319.483,210.844,321.717,213.078,321.717,215.832L321.717,215.832z"/>
	<path style="fill:#C9C9C8;" d="M321.717,240.779c0,2.754-2.234,4.988-4.992,4.988H157.079c-2.754,0-4.988-2.234-4.988-4.988l0,0
		c0-2.754,2.234-4.988,4.988-4.988h159.646C319.483,235.787,321.717,238.025,321.717,240.779L321.717,240.779z"/>
	<path style="fill:#C9C9C8;" d="M321.717,266.971c0,2.754-2.234,4.988-4.992,4.988H157.079c-2.754,0-4.988-2.234-4.988-4.988l0,0
		c0-2.754,2.234-4.988,4.988-4.988h159.646C319.483,261.979,321.717,264.217,321.717,266.971L321.717,266.971z"/>
	<path style="fill:#C9C9C8;" d="M240.648,288.172h-83.568c-2.754,0-4.988,2.234-4.988,4.988s2.234,4.988,4.988,4.988h83.568
		c2.758,0,4.992-2.234,4.992-4.988S243.405,288.172,240.648,288.172z"/>
</g>
<circle style="fill:#0EA24A;" cx="328.227" cy="358.012" r="57.062"/>
<g>
	<path style="fill:#FFFFFF;" d="M327.524,371.134l-17.74-17.736c-3.514-3.514-9.208-3.514-12.722,0c-3.51,3.51-3.51,9.208,0,12.722
		l17.74,17.74c3.514,3.514,9.216,3.514,12.726,0C331.045,380.346,331.045,374.651,327.524,371.134z"/>
	<path style="fill:#FFFFFF;" d="M361.001,338.693c-3.51-3.51-9.208-3.51-12.718,0l-32.841,32.834
		c-3.517,3.514-3.517,9.208-0.004,12.726c3.514,3.51,9.216,3.51,12.726-0.004l32.838-32.834
		C364.511,347.898,364.519,342.206,361.001,338.693z"/>
</g>
<g>
</g>
<g>
</g>
<g>
</g>
<g>
</g>
<g>
</g>
<g>
</g>
<g>
</g>
<g>
</g>
<g>
</g>
<g>
</g>
<g>
</g>
<g>
</g>
<g>
</g>
<g>
</g>
<g>
</g>
</svg>
