<svg xmlns="http://www.w3.org/2000/svg" width="115.845" height="1900.028" xmlns:dc="http://purl.org/dc/elements/1.1/" xmlns:cc="http://creativecommons.org/ns#" xmlns:rdf="http://www.w3.org/1999/02/22-rdf-syntax-ns#" xmlns:svg="http://www.w3.org/2000/svg" xmlns:xlink="http://www.w3.org/1999/xlink" viewBox="0 0 115.84495 1900.0281"><defs><clipPath id="aP"><use width="100%" height="100%" overflow="visible" xlink:href="#SVGID_1_"/></clipPath><clipPath id="aQ"><use width="100%" height="100%" overflow="visible" xlink:href="#SVGID_3_"/></clipPath><clipPath id="aR"><use width="100%" height="100%" overflow="visible" xlink:href="#SVGID_5_"/></clipPath><clipPath id="aS"><use width="100%" height="100%" overflow="visible" xlink:href="#SVGID_7_"/></clipPath><path d="M130.28 147.98h2v10h-2z"/><path d="M130.28 147.98h2v10h-2z"/><path d="M213.18 147.98h2v10h-2z"/><path d="M213.18 147.98h2v10h-2z"/><clipPath><use width="100%" height="100%" overflow="visible" xlink:href="#SVGID_9_"/></clipPath><clipPath><use width="100%" height="100%" overflow="visible" xlink:href="#SVGID_9_"/></clipPath><clipPath><use width="100%" height="100%" overflow="visible" xlink:href="#SVGID_9_"/></clipPath><clipPath><use width="100%" height="100%" overflow="visible" xlink:href="#SVGID_9_"/></clipPath><clipPath><use width="100%" height="100%" overflow="visible" xlink:href="#SVGID_9_"/></clipPath><clipPath><use width="100%" height="100%" overflow="visible" xlink:href="#SVGID_9_"/></clipPath><clipPath><use width="100%" height="100%" overflow="visible" xlink:href="#SVGID_9_"/></clipPath><clipPath><use width="100%" height="100%" overflow="visible" xlink:href="#SVGID_9_"/></clipPath><clipPath><use width="100%" height="100%" overflow="visible" xlink:href="#SVGID_9_"/></clipPath><clipPath><use width="100%" height="100%" overflow="visible" xlink:href="#SVGID_9_"/></clipPath><clipPath><use width="100%" height="100%" overflow="visible" xlink:href="#SVGID_9_"/></clipPath><clipPath><use width="100%" height="100%" overflow="visible" xlink:href="#SVGID_9_"/></clipPath><clipPath><use width="100%" height="100%" overflow="visible" xlink:href="#SVGID_9_"/></clipPath><clipPath><use width="100%" height="100%" overflow="visible" xlink:href="#SVGID_9_"/></clipPath><clipPath><use width="100%" height="100%" overflow="visible" xlink:href="#SVGID_9_"/></clipPath><clipPath><use width="100%" height="100%" overflow="visible" xlink:href="#SVGID_9_"/></clipPath></defs><g transform="translate(0 .001)"><svg width="32" height="40" enable-background="new 0 0 22.031 30.021" viewBox="-5 -5 32.031 40.021"><path fill="#7bb048" d="M11.32 29.28l8.14-11.1.02-.04c1.6-1.92 2.55-4.38 2.55-7.07C22.03 4.95 17.1 0 11 0 4.94 0 0 4.95 0 11.07c0 2.7.95 5.15 2.54 7.07zm-.3-23c3.08 0 5.58 2.5 5.58 5.6 0 3.1-2.5 5.6-5.58 5.6-3.1 0-5.6-2.5-5.6-5.6 0-3.1 2.5-5.6 5.6-5.6zM2.46 29.64c0 .2 3.9.37 8.7.37 4.8 0 8.7-.17 8.7-.37 0-.2-3.9-.37-8.7-.37-4.8 0-8.7.16-8.7.37z"/></svg><svg width="42" height="42" y="40" enable-background="new 0 0 31.97 31.97" viewBox="-5 -5 41.97 41.97"><path fill="#7bb048" d="M9.4 13.4c.33-.24.5-.55.5-.94 0-.36-.14-.64-.4-.84-.25-.2-.64-.36-1.17-.47-.34-.06-.57-.14-.7-.23-.1-.08-.16-.2-.16-.32 0-.14.06-.25.18-.34.12-.1.28-.14.5-.14.13 0 .26.02.38.07.12.03.22.08.3.14l.13.54h.77V9.8c-.18-.13-.4-.24-.7-.33-.3-.1-.62-.14-.96-.14-.54 0-.96.13-1.26.4-.3.25-.43.56-.43.92 0 .35.12.63.38.83.26.2.64.35 1.15.46.33.07.56.15.68.24.13.1.2.2.2.33 0 .16-.07.27-.2.36-.12.08-.3.12-.53.12-.13 0-.26 0-.38-.04-.12-.03-.2-.07-.28-.13l-.17-.55h-.8v.97c.22.18.47.3.74.4.28.1.58.16.9.16.55 0 1-.13 1.32-.37zm1.53-.52l-.55.12v.7h2.27V13l-.56-.12V9.4H10.3v.7l.6.12zM12.1 7.5h-1.17v.88h1.16zm5.7 5.5l-.54-.12V11c0-.57-.12-1-.37-1.27s-.6-.4-1.02-.4c-.26 0-.5.05-.7.18-.2.13-.4.3-.53.52l-.05-.62h-1.7v.7l.62.12v2.66l-.56.12v.7h2.18V13l-.46-.12v-2.3c.08-.1.18-.2.3-.26.12-.07.26-.1.4-.1.25 0 .43.06.54.18.12.12.18.33.18.62v1.86l-.5.12v.7h2.2zm2.36.78c.5 0 .9-.15 1.25-.44.34-.3.5-.66.5-1.1h-1.06c0 .2-.07.35-.2.47-.1.13-.28.2-.5.2-.3 0-.5-.13-.64-.36-.12-.24-.18-.55-.18-.93v-.1c0-.38.06-.7.2-.93.13-.24.36-.36.7-.36.1 0 .2.03.28.06.08.04.15.08.2.13l.2.66h.94l-.02-1.15c-.18-.17-.4-.32-.68-.42-.28-.1-.6-.16-.93-.16-.65 0-1.16.2-1.5.6-.37.42-.55.94-.55 1.57v.1c0 .65.18 1.17.52 1.57.35.4.85.6 1.5.6zm6.04-1.9v-.62c0-.6-.16-1.06-.48-1.4-.32-.36-.77-.54-1.35-.54-.6 0-1.06.2-1.4.62-.36.4-.53.93-.53 1.57v.17c0 .6.18 1.1.55 1.5.36.4.86.6 1.47.6.35 0 .66-.04.94-.14.3-.1.53-.2.7-.35l-.3-.7c-.2.1-.4.18-.57.23-.16.06-.38.1-.64.1-.3 0-.52-.1-.7-.3-.16-.17-.25-.4-.27-.68v-.03h2.57zm-2.34-1.42c.13-.16.3-.25.5-.25.24 0 .42.1.53.23.1.15.16.35.16.6v.1h-1.42v-.02c.02-.26.1-.48.22-.64zM10.5 22.56H9v-.03l1-1.13c.46-.47.78-.86.97-1.15.2-.3.3-.62.3-.97 0-.52-.18-.93-.53-1.24-.34-.3-.8-.46-1.4-.46-.6 0-1.08.18-1.44.54-.35.36-.52.8-.5 1.32v.02h1.12c0-.3.07-.54.2-.72.15-.18.35-.27.62-.27.24 0 .43.08.56.23.13.16.2.36.2.6 0 .18-.06.38-.18.6-.1.2-.3.47-.57.77l-1.87 2v.76h3.94v-1.46h-.88zm3.5-4.98c-.58 0-1.06.2-1.4.6-.36.4-.53.97-.53 1.73v1.3c0 .75.17 1.33.52 1.72.34.4.82.6 1.42.6s1.07-.2 1.42-.6c.35-.4.53-.97.53-1.73v-1.3c0-.75-.18-1.33-.53-1.72-.35-.4-.83-.6-1.43-.6zm.82 3.72c0 .46-.07.8-.2 1-.14.22-.34.33-.6.33-.26 0-.46-.1-.6-.32-.13-.2-.2-.54-.2-1v-1.5c0-.46.06-.8.2-1 .13-.22.33-.33.6-.33.25 0 .45.1.6.32.13.2.2.54.2 1zm3.83-3.72c-.6 0-1.07.2-1.42.6-.35.4-.53.97-.53 1.73v1.3c0 .75.18 1.33.53 1.72.35.4.83.6 1.43.6s1.07-.2 1.42-.6c.35-.4.53-.97.53-1.73v-1.3c0-.75-.17-1.33-.52-1.72-.35-.4-.83-.6-1.43-.6zm.8 3.72c0 .46-.06.8-.2 1-.13.22-.33.33-.6.33-.25 0-.45-.1-.6-.32-.13-.2-.2-.54-.2-1v-1.5c0-.46.07-.8.2-1 .14-.22.34-.33.6-.33.26 0 .46.1.6.32.14.2.2.54.2 1zm3.88-1.66c-.18 0-.35.03-.5.1-.15.04-.28.1-.4.18l.17-1.33h1.56l.1.38h.72v-1.32h-3.33l-.33 3.22 1.02.06c.05-.13.14-.25.26-.33.1-.07.28-.1.5-.1.27 0 .48.1.62.3.13.2.2.46.2.8 0 .3-.06.55-.2.74-.12.2-.32.3-.6.3-.23 0-.42-.08-.56-.23-.15-.13-.22-.33-.22-.6l-1.1.07-.02.02c0 .5.17.9.55 1.18.38.3.83.44 1.36.44.63 0 1.1-.18 1.44-.55.34-.37.5-.83.5-1.4 0-.6-.15-1.08-.45-1.42-.3-.35-.73-.5-1.3-.5zM16 0c-8.83 0-16 7.17-16 15.98 0 8.82 7.17 16 15.98 16 8.82 0 16-7.18 16-16 0-8.8-7.18-15.98-16-15.98zm-.02 29.94c-7.7 0-13.95-6.26-13.95-13.96C2.03 8.29 8.3 2.04 16 2.04c7.68 0 13.94 6.26 13.94 13.96 0 7.68-6.26 13.94-13.96 13.94z"/></svg><svg width="63" height="64" y="82" enable-background="new 0 0 53 53.609" viewBox="-5 -5 63 63.609"><path fill="#86b028" d="M52.8 35.88L49.8 6.85h-6.05l-2.4 29.03 5.73 8.16z"/><path fill="#5d8082" d="M51.9 47.06l-3.03-40.2h-5.74l-4.23 40.2 6.5 6.35z"/><defs><path id="a" d="M.2.2h52.6v53.2H.2z"/></defs><clipPath id="b"><use width="100%" height="100%" xlink:href="#a" overflow="visible"/></clipPath><path fill="#8bb89b" d="M49.78 9.27c0 .33-.27.6-.6.6h-5.44c-.34 0-.6-.27-.6-.6L41.9.8c0-.33.27-.6.6-.6h7.87c.32 0 .6.27.6.6z" clip-path="url(#b)"/><path fill="#86b028" d="M14.7 19.55v-4.7c0-3.4 2.8-6.2 6.2-6.2h.3c3.43 0 6.2 2.8 6.2 6.2v4.7h3.64v-4.7c0-5.4-4.4-9.82-9.83-9.82h-.3c-5.4 0-9.82 4.4-9.82 9.83v4.7z" clip-path="url(#b)"/><path fill="#c6ce67" d="M41.32 44.34c0 3-2.44 5.44-5.45 5.44H5.64c-3 0-5.45-2.43-5.45-5.44V23.18c0-3 2.43-5.45 5.44-5.45h30.23c3 0 5.45 2.44 5.45 5.45z" clip-path="url(#b)"/><path fill="#8bb89b" d="M35.87 17.73H5.64c-3 0-5.45 2.44-5.45 5.45v9.07H41.3v-9.07c0-3-2.44-5.45-5.45-5.45" clip-path="url(#b)"/><path fill="#554e46" d="M5.03 30.43h7.86v3.63H5.02z" clip-path="url(#b)"/><path fill="#554e46" d="M28.62 30.43h7.86v3.63h-7.86z" clip-path="url(#b)"/></svg><svg width="63" height="64" y="146" enable-background="new 0 0 53 53.609" viewBox="-5 -5 63 63.609"><defs><path id="c" d="M.23 1.87h52.54v49.87H.23z"/></defs><clipPath id="d"><use width="100%" height="100%" xlink:href="#c" overflow="visible"/></clipPath><path fill="#efd3bd" d="M22.26 28.23c1.9.05 5.3-1.53 6.4-3.08 1.26-1.78 1.84-4.74 2.77-6.76 1.1-2.4 1.52-4.77 1.3-7.4-.14-1.96-1.48-4.87-1-6.77 1.03-4.1 5.85-2.12 7.8.4 3.3 4.33-2.87 11.3-.4 16.06 2.98 5.76 12.58-.47 13.6 6.85.25 1.76-.92 2.52-1.05 4.06-.13 1.56.72 2.37.83 3.82.2 2.3-.8 2.02-1.47 3.52-.8 1.77-.33 2.4-.57 4.12-.2 1.56-.8 1.6-1.26 2.86-5.16 13.96-21.4-1.7-29.55-.83.37-.05 2.2-7.5 2.18-8.4-.05-1.7-1.88-5.93.87-6.7" clip-path="url(#d)"/><path fill="#5d8082" d="M14.33 24.27h8.8v22.9h-8.8z" clip-path="url(#d)"/><path fill="#f9ede5" d="M32 4c1.14-.16 2.32 0 3.47 0 0 0 2.73 1.8 0 4.4-2.86 2.74-3.94-2.33-3.83-4.35.1-.03.23-.05.36-.06" clip-path="url(#d)"/><path fill="#86b028" d="M.23 27.8h14.1v19.37H.23z" clip-path="url(#d)"/></svg><svg width="63" height="64" y="210" enable-background="new 0 0 53 53.609" viewBox="-5 -5 63 63.609"><defs><path id="e" d="M.94.5h51.12v52.6H.94z"/></defs><clipPath id="f"><use width="100%" height="100%" xlink:href="#e" overflow="visible"/></clipPath><path fill="#5d8082" d="M31.9 2.74c0 .4-.32.74-.74.74h-8.2c-.42 0-.75-.33-.75-.74v-1.5c0-.4.34-.74.76-.74h8.2c.42 0 .75.33.75.75z" clip-path="url(#f)"/><path fill="#8bb89b" d="M52.06 27.55c0 14.12-11.44 25.56-25.56 25.56S.94 41.68.94 27.56C.94 13.43 12.38 2 26.5 2s25.56 11.44 25.56 25.55" clip-path="url(#f)"/><path fill="#c6ce67" d="M3.54 27.55C3.54 14.87 13.82 4.6 26.5 4.6c12.68 0 22.95 10.27 22.95 22.95S39.18 50.5 26.5 50.5 3.55 40.24 3.55 27.56" clip-path="url(#f)"/><path fill="#fff" d="M7.77 27.55c0-10.35 8.4-18.73 18.73-18.73 10.35 0 18.73 8.38 18.73 18.73S36.85 46.28 26.5 46.28c-10.34 0-18.73-8.38-18.73-18.73" clip-path="url(#f)"/><g fill="none"><g stroke="#554e46" stroke-linecap="round" stroke-linejoin="round"><path d="M26.7 11.7v4.47" clip-path="url(#f)"/><path d="M26.7 39.3v4.48" clip-path="url(#f)"/><path d="M15.34 16.4l3.17 3.16" clip-path="url(#f)"/><path d="M34.87 35.92l3.16 3.16" clip-path="url(#f)"/><path d="M10.27 28.1h4.48" clip-path="url(#f)"/><path d="M37.88 28.1h5.22" clip-path="url(#f)"/><path d="M15.34 39.6l3.17-3.16" clip-path="url(#f)"/><path d="M34.87 20.1l3.7-3.7" clip-path="url(#f)"/></g><path stroke="#ea535e" d="M26.7 27.36v-11.2" clip-path="url(#f)"/><path stroke="#ea535e" d="M17.73 27.36h5.97" clip-path="url(#f)"/></g><path fill="#5d8082" d="M28.93 27.92c0 1.34-1.1 2.43-2.43 2.43-1.34 0-2.42-1.1-2.42-2.43 0-1.34 1.08-2.42 2.42-2.42 1.34 0 2.43 1.08 2.43 2.42" clip-path="url(#f)"/></svg><svg width="63" height="64" y="274" enable-background="new 0 0 53 53.609" viewBox="-5 -5 63 63.609"><defs><path id="g" d="M1.65.05h49.7v53.5H1.65z"/></defs><clipPath id="h"><use width="100%" height="100%" xlink:href="#g" overflow="visible"/></clipPath><path fill="#554e46" d="M3.42 19.83V7.4C3.42 3.5 6.6.3 10.52.3h3.55c3.93 0 7.1 3.18 7.1 7.1v12.43" clip-path="url(#h)"/><path fill="#bcada0" d="M9.34 22.2h5.33v4.73H9.34z" clip-path="url(#h)"/><path fill="#c6b5a5" d="M20 15.7c0 3.9-3.2 7.1-7.1 7.1h-1.2c-3.9 0-7.1-3.2-7.1-7.1V8.6c0-3.93 3.18-7.1 7.1-7.1h1.2c3.9 0 7.1 3.17 7.1 7.1z" clip-path="url(#h)"/><path fill="#554e46" d="M12.9 3.46c-1.44 2.9-3.93 3.2-6.34 4.93-1.73 1.2-2.2 3.1-3.24 4.78.05-2.76-.13-5.86.87-8.46.86-2.25 2.03-3.3 4.28-4.14 1.24-.47 3.44-1 4.44.2 1.12 1.34-.22 2.25-.52 3.57" clip-path="url(#h)"/><path fill="#554e46" d="M11.48 3.46c1.43 2.9 3.92 3.2 6.33 4.93 1.74 1.2 2.2 3.1 3.25 4.78-.05-2.76.13-5.86-.87-8.46-.87-2.25-2.04-3.3-4.3-4.14-1.23-.47-3.44-1-4.43.2-1.12 1.34.22 2.26.52 3.57" clip-path="url(#h)"/><path fill="#fff" d="M8.17 16.87c0 .07 0 .13 0 .2 0 2.3 1.84 4.14 4.13 4.14 2.3 0 4.14-1.84 4.14-4.13 0-.07 0-.13 0-.2z" clip-path="url(#h)"/><path fill="#c6ce67" d="M23.54 44.1c0 3.9-3.18 7.1-7.1 7.1h-7.7c-3.9 0-7.1-3.2-7.1-7.1V34.02c0-3.92 3.2-7.1 7.1-7.1h7.7c3.92 0 7.1 3.18 7.1 7.1z" clip-path="url(#h)"/><path fill="#bcada0" d="M7.57 26.93s3.77 11.2 9.28.07c-5.93-.27-9.3-.07-9.3-.07" clip-path="url(#h)"/><path fill="#554e46" d="M31.23 20.42V8c0-3.92 3.18-7.1 7.1-7.1h3.56c3.9 0 7.1 3.18 7.1 7.1v12.42" clip-path="url(#h)"/><path fill="#bcada0" d="M37.15 22.8h5.33v4.72h-5.33z" clip-path="url(#h)"/><path fill="#c6b5a5" d="M47.8 16.28c0 3.92-3.18 7.1-7.1 7.1h-1.18c-3.93 0-7.1-3.18-7.1-7.1v-7.1c0-3.92 3.18-7.1 7.1-7.1h1.18c3.92 0 7.1 3.18 7.1 7.1z" clip-path="url(#h)"/><path fill="#554e46" d="M40.7 4.05c-1.43 2.9-3.9 3.2-6.33 4.93-1.73 1.22-2.2 3.1-3.24 4.8C31.18 11 31 7.9 32 5.3c.87-2.26 2.04-3.32 4.3-4.15 1.23-.46 3.44-1 4.43.2 1.12 1.34-.22 2.26-.52 3.57" clip-path="url(#h)"/><path fill="#554e46" d="M39.3 4.05c1.42 2.9 3.9 3.2 6.32 4.93 1.73 1.22 2.2 3.1 3.24 4.8C48.8 11 49 7.9 48 5.3 47.1 3.06 45.94 2 43.7 1.17c-1.24-.46-3.44-1-4.44.2-1.12 1.34.23 2.26.53 3.57" clip-path="url(#h)"/><path fill="#fff" d="M35.98 17.46c0 .07 0 .13 0 .2 0 2.3 1.84 4.14 4.13 4.14 2.3 0 4.15-1.85 4.15-4.14 0-.07 0-.13 0-.2z" clip-path="url(#h)"/><path fill="#c6ce67" d="M51.35 44.68c0 3.92-3.18 7.1-7.1 7.1h-7.7c-3.9 0-7.1-3.18-7.1-7.1V34.62c0-3.92 3.2-7.1 7.1-7.1h7.7c3.92 0 7.1 3.18 7.1 7.1z" clip-path="url(#h)"/><path fill="#bcada0" d="M35.38 27.52s3.77 11.2 9.28.07c-5.93-.28-9.28-.08-9.28-.08" clip-path="url(#h)"/><path fill="#554e46" d="M16.44 22.2V9.77c0-3.92 3.18-7.1 7.1-7.1h3.55c3.9 0 7.1 3.18 7.1 7.1V22.2" clip-path="url(#h)"/><path fill="#bcada0" d="M22.36 24.56h5.32v4.74h-5.32z" clip-path="url(#h)"/><path fill="#c6b5a5" d="M33 18.05c0 3.93-3.17 7.1-7.1 7.1h-1.17c-3.93 0-7.1-3.17-7.1-7.1v-7.1c0-3.92 3.17-7.1 7.1-7.1h1.18c3.93 0 7.1 3.18 7.1 7.1z" clip-path="url(#h)"/><path fill="#554e46" d="M25.9 5.83c-1.42 2.9-3.9 3.2-6.32 4.92-1.73 1.23-2.2 3.1-3.24 4.8.05-2.76-.14-5.86.87-8.46.88-2.27 2.05-3.32 4.3-4.16 1.24-.46 3.44-.98 4.44.2 1.12 1.34-.22 2.26-.52 3.57" clip-path="url(#h)"/><path fill="#554e46" d="M24.5 5.83c1.43 2.9 3.92 3.2 6.33 4.92 1.73 1.23 2.2 3.1 3.24 4.8-.05-2.76.13-5.86-.87-8.46-.87-2.27-2.04-3.32-4.3-4.16-1.23-.46-3.43-.98-4.43.2-1.12 1.34.22 2.26.52 3.58" clip-path="url(#h)"/><path fill="#fff" d="M21.18 19.24c0 .06 0 .13 0 .2 0 2.28 1.85 4.14 4.14 4.14 2.3 0 4.14-1.86 4.14-4.14 0-.07 0-.14 0-.2z" clip-path="url(#h)"/><path fill="#5d8082" d="M33.6 47.05c0 3.92-.22 6.5-4.14 6.5h-7.7c-3.9 0-4.14-3.17-4.14-7.1L14.67 36.4c0-3.92 3.18-7.1 7.1-7.1h7.7c3.9 0 7.1 3.18 7.1 7.1z" clip-path="url(#h)"/><path fill="#bcada0" d="M20.58 29.3s3.78 11.2 9.3.07c-5.94-.27-9.3-.07-9.3-.07" clip-path="url(#h)"/><path fill="#5d8082" d="M37.56 44.41c.92 3.33.58 6.03-.98 7.63-.1.1-.2.22-.27.35h4.98c1.13-2.5 1.23-5.6.26-9.08-1.23-4.4-4.08-8.94-8.03-12.78-.8-.8-2.12-.78-2.92.04-.8.82-.78 2.14.04 2.93 3.44 3.33 5.9 7.2 6.94 10.9" clip-path="url(#h)"/><path fill="#5d8082" d="M13.34 44.41c-.93 3.33-.58 6.03.97 7.63.12.1.2.35.28.35H9.62C8.5 50 8.38 46.77 9.35 43.3c1.23-4.4 4.1-8.94 8.04-12.78.8-.8 2.12-.78 2.92.04.8.82.78 2.14-.04 2.93-3.44 3.33-5.9 7.2-6.94 10.9" clip-path="url(#h)"/></svg><svg width="88" height="89" y="338" enable-background="new 0 0 78 78.897" viewBox="-5 -5 88 88.897"><path fill="#0e7fab" d="M47.57 50.08l4.55-1.6-2.95-2.94z"/><defs><path id="i" d="M.3.76h77.4v77.37H.3z"/></defs><clipPath id="j"><use width="100%" height="100%" xlink:href="#i" overflow="visible"/></clipPath><path fill="#0e7fab" d="M53.14 47.46l16.84-16.84c.8-.8.8-2.13 0-2.94-.8-.82-2.13-.82-2.95 0L50.2 44.5zm13.2-18.3l.44.44-15.2 15.2-.45-.45z" clip-path="url(#j)"/><path fill="#7cb149" d="M37.5 34.44c-6.7 0-12.16-5.45-12.16-12.15S30.8 10.13 37.5 10.13 49.63 15.6 49.63 22.3 44.2 34.43 37.5 34.43m0-22.3c-5.6 0-10.16 4.55-10.16 10.15 0 5.6 4.55 10.14 10.15 10.14 5.6 0 10.14-4.55 10.14-10.15 0-5.6-4.56-10.16-10.15-10.16" clip-path="url(#j)"/><path fill="#0e7fab" d="M40.8 38.58h-6.5l-2.03-6.04h11.58zm-5.07-2h3.84l1.02-2.04h-5.55z" clip-path="url(#j)"/><path fill="#0e7fab" d="M41.17 37.45l1.46 11.3-5.16 3.76-4.88-3.76 1.4-11.3 2 .26-1.28 10.15 2.8 2.16 2.97-2.16-1.3-10.14z" clip-path="url(#j)"/><path fill="#7cb149" d="M54.7 49.16v3.6H20.27V43.9c0-5.16 4.2-9.36 9.35-9.36h15.73c3.34 0 6.27 1.77 7.93 4.4.47-.5.95-1.02 1.4-1.5-2.05-2.95-5.46-4.9-9.33-4.9H29.62c-6.26 0-11.35 5.1-11.35 11.35v10.87H56.7V47.2z" clip-path="url(#j)"/><path fill="#b3b3b3" d="M39 78.13C17.67 78.13.3 60.78.3 39.45S17.68.75 39 .75c21.33 0 38.7 17.37 38.7 38.7 0 21.33-17.37 38.68-38.7 38.68m0-75.37c-20.23 0-36.7 16.46-36.7 36.7 0 20.22 16.47 36.68 36.7 36.68 20.23 0 36.7-16.46 36.7-36.7C75.7 19.23 59.22 2.77 39 2.77" clip-path="url(#j)"/><g fill="#feaa31"><path d="M32.58 61.44l3.53-.52 1.6-3.2 1.56 3.2 3.53.52-2.56 2.48.6 3.52-3.15-1.66-3.17 1.66.6-3.52z" clip-path="url(#j)"/><path d="M22.63 62.9l2.56-.38 1.14-2.33 1.14 2.32 2.57.37-1.86 1.8.43 2.55-2.3-1.2-2.3 1.2.45-2.55z" clip-path="url(#j)"/><path d="M45.63 62.9l2.56-.38 1.14-2.33 1.14 2.32 2.57.37-1.86 1.8.43 2.55-2.3-1.2-2.3 1.2.45-2.55z" clip-path="url(#j)"/></g></svg><svg width="120" height="121" y="427" enable-background="new 0 0 110 111.264" viewBox="-5 -5 120 121.264"><defs><path id="k" d="M.35 10.48h109.3v90.3H.35z"/></defs><clipPath id="l"><use width="100%" height="100%" xlink:href="#k" overflow="visible"/></clipPath><g clip-path="url(#l)"><defs><path id="m" d="M.35 10.48h109.3v90.3H.35z"/></defs><clipPath id="n"><use width="100%" height="100%" xlink:href="#m" overflow="visible"/></clipPath><path fill="#b3b3b3" d="M54.33 100.8c-21.33 0-38.68-17.36-38.68-38.7 0-21.33 17.35-38.68 38.68-38.68 21.34 0 38.7 17.35 38.7 38.68s-17.37 38.7-38.7 38.7m0-75.38c-20.23 0-36.68 16.45-36.68 36.68S34.1 98.8 54.33 98.8s36.7-16.47 36.7-36.7c0-20.23-16.47-36.68-36.7-36.68" clip-path="url(#n)"/><path fill="#0e7fab" d="M62.42 55.7c-1.5 5.5-6.52 9.55-12.48 9.55-7.15 0-12.96-5.8-12.96-12.96 0-7.16 5.8-12.97 12.96-12.97 4.93 0 9.23 2.77 11.42 6.84l3-2.78c-3-4.84-8.34-8.07-14.42-8.07-9.35 0-16.96 7.6-16.96 16.96 0 9.34 7.6 16.95 16.96 16.95 9.35 0 16.96-7.6 16.96-16.96 0-.27-.03-.53-.04-.8z" clip-path="url(#n)"/><path fill="#0e7fab" d="M80.42 79.72c.77.78.76 2.05-.02 2.82l-.7.7c-.8.78-2.07.78-2.84 0L59.3 65.43c-.8-.78-.78-2.05 0-2.82l.72-.7c.78-.78 2.05-.77 2.83 0z" clip-path="url(#n)"/><path fill="none" stroke="#0e7fab" stroke-miterlimit="10" d="M40.96 48.33c-2.54 6.68 4.32 15.44 11.38 12.9" clip-path="url(#n)" stroke-linecap="round" stroke-linejoin="round"/><path fill="#7cb149" d="M14.35 71.08h81v13h-81z" clip-path="url(#n)"/><path fill="#7cb149" d="M.35 86.08h14v-10h-14l4.34 5.15z" clip-path="url(#n)"/><path fill="#5d8434" d="M15.65 84.08h-1.3v2z" clip-path="url(#n)"/><g clip-path="url(#n)" opacity=".3"><defs><path id="o" d="M12.35 76.08h2v10h-2z"/></defs><clipPath id="p"><use width="100%" height="100%" xlink:href="#o" overflow="visible"/></clipPath><path fill="#5d8434" d="M12.35 76.08h2v10h-2z" clip-path="url(#p)"/></g><path fill="#7cb149" d="M109.65 86.08h-14.3v-10h14.3l-4.34 5.15z" clip-path="url(#n)"/><path fill="#5d8434" d="M94.35 84.08h1v2z" clip-path="url(#n)"/><g clip-path="url(#n)" opacity=".3"><defs><path id="q" d="M95.35 76.08h2v10h-2z"/></defs><clipPath id="r"><use width="100%" height="100%" xlink:href="#q" overflow="visible"/></clipPath><path fill="#5d8434" d="M95.35 76.08h2v10h-2z" clip-path="url(#r)"/></g><g fill="#7cb149"><path d="M13.56 30.75c.62-.8 1.32-1.28 2.1-1.43.76-.14 1.48.04 2.15.56.7.5 1.05 1.16 1.1 1.94.05.78-.24 1.58-.85 2.38l-.92 1.2 1.56 1.2.7-.65.86.65-2.24 2.9-.85-.64.43-.86-5.04-3.9-.72.65-.85-.66.57-.75zm2.48 3.8l.92-1.2c.3-.38.42-.76.36-1.13-.06-.36-.25-.67-.58-.93-.34-.27-.7-.38-1.07-.35-.38.03-.72.24-1.02.64l-.9 1.17z" clip-path="url(#n)"/><path d="M22.6 32l-4.93-5-.8.55-.76-.77 1.95-1.92 5.8 5.88.75-.48.75.76-2.5 2.46-.74-.76z" clip-path="url(#n)"/><path d="M28.83 28.2c-.1-.06-.2-.13-.3-.2-.1-.06-.2-.14-.3-.22 0 .32-.08.64-.23.94-.15.3-.38.58-.68.8-.5.4-1.03.6-1.54.54-.52-.04-.96-.3-1.33-.78-.38-.5-.48-1.02-.3-1.6.2-.56.66-1.14 1.42-1.73l.72-.55-.4-.5c-.2-.26-.43-.4-.68-.43-.25-.02-.52.07-.8.3-.16.12-.3.25-.38.38-.1.13-.17.26-.2.37l.34.63-1.06.82-.9-1.16c.13-.36.3-.74.55-1.1.24-.4.56-.73.95-1.03.64-.5 1.3-.75 1.94-.75.65 0 1.2.3 1.65.88L29 25.95c.06.08.12.16.18.23.05.07.1.13.17.2l.47-.3.66.85zm-1.94 0c.2-.16.36-.36.46-.58.1-.23.15-.45.14-.66l-.62-.8-.7.56c-.3.23-.5.48-.53.73-.05.26 0 .5.16.7.15.16.3.26.5.27.2 0 .4-.06.6-.22" clip-path="url(#n)"/><path d="M29.24 23.88c-.5-.9-.7-1.75-.62-2.53.1-.78.5-1.36 1.2-1.76.33-.18.65-.27.98-.26.32 0 .64.1.96.27l-.28-.78 1.35-.74 3.1 5.6c.4.76.5 1.5.28 2.22-.22.7-.75 1.3-1.6 1.76-.28.16-.6.3-1 .4-.36.1-.72.15-1.07.17l-.32-1.26c.32-.03.6-.08.9-.15.28-.08.56-.2.84-.35.38-.2.6-.48.66-.8.06-.35-.02-.72-.25-1.14l-.2-.37c-.06.3-.17.58-.33.82-.17.25-.4.45-.7.6-.7.4-1.4.45-2.1.14-.68-.3-1.25-.88-1.72-1.73zm1.62-.74c.27.5.58.85.9 1.05.34.18.7.18 1.08-.03.24-.14.42-.3.53-.47.12-.18.2-.38.2-.6l-1.4-2.5c-.2-.13-.4-.2-.6-.2-.23 0-.45.06-.7.2-.37.2-.55.52-.54.96 0 .43.17.92.47 1.46z" clip-path="url(#n)"/><path d="M36.15 15.04l-1.66.65-.5-1.25 1.65-.65zm.17 7.57l.73-.48-1.5-3.8-.96.2-.4-1 2.53-1.02 1.98 4.97.86-.15.4 1-3.25 1.28z" clip-path="url(#n)"/><path d="M44.28 21.08c-.07-.1-.14-.2-.2-.3-.07-.1-.13-.2-.18-.3-.14.28-.34.53-.6.75-.25.23-.56.4-.94.5-.63.15-1.17.1-1.62-.13-.46-.25-.76-.66-.92-1.25-.15-.6-.04-1.12.36-1.57.4-.45 1.05-.8 1.98-1.04l.88-.23-.16-.62c-.08-.3-.24-.52-.46-.64-.22-.12-.5-.14-.85-.05-.2.04-.36.1-.5.2-.15.08-.25.17-.33.26l.07.7-1.3.35-.36-1.4c.26-.3.58-.58.94-.83.37-.25.8-.44 1.28-.56.8-.2 1.48-.18 2.07.08.6.26 1 .75 1.18 1.46l.7 2.64c.02.1.05.2.07.27.03.1.06.17.1.24l.53-.07.27 1.03zm-1.8-.76c.27-.07.5-.2.68-.35.18-.17.3-.35.38-.55l-.25-.98-.9.23c-.36.1-.6.26-.76.48-.14.22-.18.45-.12.7.06.2.17.36.34.44.18.08.38.1.63.02" clip-path="url(#n)"/><path d="M46.6 19.5l.82-.3-.5-4.05-.95-.07-.13-1.06 2.58-.32.2.95c.1-.36.27-.64.5-.86.2-.23.48-.36.8-.4.1 0 .2 0 .3 0 .1 0 .2 0 .26 0v1.64l-.72.07c-.26.04-.47.12-.63.24-.15.12-.27.28-.33.47l.38 3.2.87.08.13 1.05-3.46.42z" clip-path="url(#n)"/><path d="M51.52 18.96l.86-.2-.07-4.1-.94-.15-.02-1.07 2.73-.04.08 5.33.86.17.03 1.07-3.5.05zm2.52-7.15l-1.78.04-.02-1.33 1.78-.02z" clip-path="url(#n)"/><path d="M61.16 16.15l-1.2-.12-.1-.83c-.1-.1-.25-.2-.43-.3-.17-.07-.37-.13-.6-.15-.3-.03-.56 0-.76.14-.2.1-.3.27-.32.48-.02.2.05.37.2.52.17.15.5.3 1.02.46.8.24 1.37.54 1.73.9.36.34.52.8.46 1.34-.06.6-.36 1.05-.9 1.37-.55.33-1.23.45-2.06.36-.5-.05-.96-.17-1.37-.36-.4-.2-.76-.43-1.06-.74l.12-1.48 1.23.13.16.88c.1.1.22.17.4.24.18.06.36.1.56.12.36.03.65 0 .84-.12.2-.1.32-.27.34-.5.02-.2-.06-.37-.24-.53-.17-.16-.5-.32-1-.48-.76-.24-1.32-.53-1.7-.88-.35-.35-.5-.8-.45-1.33.05-.55.33-1 .82-1.36.5-.35 1.16-.5 2-.4.5.05.98.16 1.42.35.43.17.77.38 1 .62z" clip-path="url(#n)"/><path d="M62.83 14.96l.3-1.02 2.5.77-.2.86c.3-.24.63-.4 1-.47.34-.08.72-.05 1.12.07.4.13.72.33.96.6.24.26.37.6.4 1 .3-.27.64-.46 1-.55.38-.1.77-.08 1.2.05.6.2 1.03.56 1.26 1.1.23.54.2 1.25-.07 2.13l-.82 2.6.77.44-.32 1.02-3.25-1 .3-1.03.8.06.8-2.64c.16-.48.2-.83.1-1.07-.1-.24-.3-.4-.62-.5-.24-.07-.46-.08-.67-.03-.22.05-.4.15-.57.3-.03.1-.04.15-.06.2 0 .06-.02.1-.04.16l-.9 2.95.62.4-.32 1-3.06-.95.3-1 .76.02.8-2.62c.15-.47.18-.82.08-1.06-.08-.24-.3-.4-.6-.5-.23-.07-.44-.1-.64-.06-.2.04-.38.12-.54.25l-1.06 3.4.68.4-.3 1.02-3.26-1 .32-1.03.87.08 1.2-3.9z" clip-path="url(#n)"/><path d="M83.35 22l-2.4-1.6-1.36 2.03 2.58 1.72-.76 1.14-2.6-1.73-1.34 2.03.7.67-.6.9-3.06-2.04.6-.9.88.38 3.53-5.3-.7-.66.6-.9 5.88 3.9-1.33 2.04-1.14-.76z" clip-path="url(#n)"/><path d="M81.33 28.54l.76.44 2.7-3.06-.57-.76.7-.8 1.95 1.73-.58.76c.35-.15.67-.22.98-.2.3.02.58.14.82.35.07.08.14.15.2.23.08.08.13.15.17.2l-1.22 1.1-.54-.5c-.18-.18-.37-.3-.57-.33-.2-.03-.4 0-.58.07l-2.13 2.4.5.7-.7.8-2.6-2.33z" clip-path="url(#n)"/><path d="M86.13 34.94c-.62-.72-.9-1.5-.8-2.32.1-.83.5-1.55 1.2-2.17l.18-.16c.75-.65 1.54-.97 2.37-.98.83 0 1.54.34 2.13 1.02.58.68.83 1.37.75 2.1-.1.72-.47 1.38-1.17 1.98l-.73.63-2.57-2.98-.04.02c-.3.3-.48.64-.52 1.02-.05.38.08.73.37 1.07.24.3.5.5.72.65.23.15.5.28.84.4l-.52 1.1c-.34-.08-.7-.23-1.1-.46-.4-.24-.76-.56-1.1-.96m4.02-3.7c-.2-.25-.48-.36-.8-.34-.3.02-.64.15-.97.38l-.02.03 1.42 1.66.12-.1c.3-.25.46-.5.5-.8.07-.27-.02-.55-.26-.82" clip-path="url(#n)"/><path d="M89.85 40c-.5-.8-.65-1.6-.44-2.4.22-.82.72-1.47 1.5-1.98l.22-.13c.82-.53 1.65-.74 2.47-.62.82.1 1.47.56 1.95 1.32.48.75.62 1.48.43 2.18-.2.7-.67 1.3-1.44 1.8l-.82.5-2.1-3.3h-.04c-.36.26-.58.57-.68.94-.1.37-.03.74.2 1.1.22.34.43.6.64.78.2.17.46.34.77.5l-.66 1c-.33-.1-.67-.3-1.02-.6-.36-.28-.68-.65-.97-1.1m4.54-3.06c-.2-.28-.43-.43-.75-.46-.3-.03-.65.05-1.02.23l-.02.05 1.18 1.84.13-.1c.33-.2.54-.43.63-.7.1-.27.05-.56-.14-.86" clip-path="url(#n)"/></g><g fill="#f4f4f4"><path d="M30.18 80.45c-.23.23-.57.44-1 .62-.45.18-1 .28-1.7.28-.95 0-1.73-.33-2.33-.97-.6-.64-.9-1.48-.9-2.5v-.25c0-1.07.3-1.93.9-2.6.58-.67 1.35-1 2.3-1 .57 0 1.08.1 1.54.27.45.17.83.4 1.14.72v1.43h-1.06l-.2-.95c-.13-.12-.3-.2-.5-.27-.23-.07-.47-.1-.75-.1-.62 0-1.1.23-1.45.7-.34.45-.52 1.05-.52 1.8v.24c0 .73.17 1.3.5 1.73.35.44.84.65 1.48.65.28 0 .52-.02.7-.07.17-.05.3-.1.4-.17v-1.2l-1-.08v-1h2.44z" clip-path="url(#n)"/><path d="M33.76 74.13V75l-.77.14v3.7c0 .48.12.83.37 1.06.25.23.6.35 1.04.35.46 0 .8-.12 1.06-.35.25-.23.38-.58.38-1.05v-3.7l-.76-.16v-.87h2.95V75l-.76.14v3.7c0 .8-.27 1.42-.8 1.85-.52.43-1.2.64-2.06.64-.84 0-1.53-.2-2.05-.65-.52-.44-.78-1.05-.78-1.85v-3.7l-.76-.16v-.87z" clip-path="url(#n)"/><path d="M37.9 80.4l.5-.1 2.16-6.17h1.46l2.15 6.2.5.06v.84h-2.42v-.85l.5-.1-.32-.98h-2.3l-.32.98.5.1v.84h-2.4zm2.56-2.13h1.64l-.8-2.5h-.03z" clip-path="url(#n)"/><path d="M48.34 74.13c.8 0 1.43.2 1.9.56.45.36.68.87.68 1.52 0 .36-.1.67-.28.93-.2.26-.48.48-.85.64.4.1.7.32.9.6.18.3.27.65.27 1.08v.36c0 .16.03.28.1.36.06.1.16.14.3.16l.18.02v.86h-.74c-.45 0-.78-.12-.97-.37-.2-.26-.28-.58-.28-.98v-.4c0-.36-.1-.63-.28-.82-.18-.2-.44-.3-.78-.3H47.3v1.86l.77.15v.84h-2.96v-.85l.76-.16v-5.1l-.76-.15v-.87zm-1.02 3.14h1c.4 0 .7-.1.88-.26.2-.16.3-.4.3-.72 0-.32-.1-.57-.3-.76-.2-.2-.48-.3-.87-.3h-1z" clip-path="url(#n)"/><path d="M51.94 80.4l.5-.1 2.17-6.17h1.47l2.15 6.2.5.06v.84h-2.4v-.85l.48-.1-.3-.98h-2.32l-.3.98.5.1v.84h-2.44v-.85zm2.58-2.13h1.63l-.8-2.5h-.03z" clip-path="url(#n)"/><path d="M62.14 80.4v.84H59.2v-.85l.76-.16v-5.1L59.2 75v-.87H61.38l2.87 4.8.03-.02v-3.76l-.76-.15v-.87h2.95V75l-.77.14v6.1h-1.42l-2.87-4.78h-.02v3.78z" clip-path="url(#n)"/><path d="M68.53 81.24v-.85l.77-.16v-5H68l-.06.8h-1.1v-1.9h6.34v1.9h-1.1l-.05-.8h-1.3v5l.75.15v.84z" clip-path="url(#n)"/><path d="M73.65 80.4l.75-.16v-5.1l-.75-.15v-.87h5.61v1.95h-1.1l-.05-.85h-2.27v1.8h2.4v1.1h-2.4v2.02h2.3l.06-.85h1.07v1.94h-5.62z" clip-path="url(#n)"/><path d="M80.03 80.4l.76-.16v-5.1l-.77-.15v-.87H85.64v1.95h-1.1l-.06-.85H82.2v1.8h2.4v1.1h-2.4v2.02h2.3l.06-.85h1.08v1.94h-5.63z" clip-path="url(#n)"/></g><path fill="#7cb149" d="M56.77 58c-.54 0-1.08-.2-1.48-.64l-7.6-8.3c-.76-.8-.7-2.07.1-2.8.82-.76 2.1-.7 2.84.1l7.6 8.3c.75.8.7 2.07-.12 2.82-.38.35-.87.52-1.35.52" clip-path="url(#n)"/><path fill="#7cb149" d="M56.77 58c-.5 0-1.03-.2-1.42-.58-.78-.78-.78-2.05 0-2.83l15.9-15.9c.8-.8 2.05-.8 2.83 0 .78.77.78 2.03 0 2.82l-15.9 15.9c-.4.4-.9.58-1.4.58" clip-path="url(#n)"/></g></svg><svg width="88" height="89" y="548" enable-background="new 0 0 78 78.897" viewBox="-5 -5 88 88.897"><defs><path id="s" d="M.3.76h77.4v77.37H.3z"/></defs><clipPath id="t"><use width="100%" height="100%" xlink:href="#s" overflow="visible"/></clipPath><path fill="#b3b3b3" d="M39 78.13C17.67 78.13.3 60.78.3 39.45S17.68.75 39 .75c21.33 0 38.7 17.37 38.7 38.7 0 21.33-17.37 38.68-38.7 38.68m0-75.37c-20.23 0-36.7 16.46-36.7 36.7 0 20.22 16.47 36.68 36.7 36.68 20.23 0 36.7-16.46 36.7-36.7C75.7 19.23 59.22 2.77 39 2.77" clip-path="url(#t)"/><g fill="#0e7fab"><path d="M39 61.12c-11.58 0-21-9.42-21-21s9.42-21 21-21 21 9.42 21 21-9.42 21-21 21m0-38c-9.38 0-17 7.62-17 17 0 9.37 7.63 17 17 17 9.38 0 17-7.63 17-17 0-9.38-7.63-17-17-17" clip-path="url(#t)"/><path d="M36.02 15.43h6v4h-6z" clip-path="url(#t)"/><path d="M44.02 14.46c0 .53-.44.97-.97.97H35c-.55 0-.98-.44-.98-.97v-.06c0-.53.43-.97.97-.97h8.05c.53 0 .97.44.97.97z" clip-path="url(#t)"/></g><path fill="#feaa31" d="M40.02 45.43c0 .55-.45 1-1 1s-1-.45-1-1v-16c0-.55.45-1 1-1s1 .45 1 1z" clip-path="url(#t)"/><path fill="#b3b3b3" d="M36.9 40.12c0-1.18.95-2.12 2.12-2.12 1.17 0 2.12.94 2.12 2.12 0 1.17-.95 2.12-2.12 2.12-1.17 0-2.12-.95-2.12-2.12" clip-path="url(#t)"/><path fill="#0e7fab" d="M53.3 25.96l2.93-2.9c.73-.74.73-1.93 0-2.66l-.18-.18c-.73-.73-1.92-.73-2.65 0l-2.92 2.92z" clip-path="url(#t)"/><path fill="#7cb149" d="M39.02 54.3c-7.82 0-14.2-6.36-14.2-14.18 0-7.83 6.38-14.2 14.2-14.2 7.82 0 14.18 6.37 14.18 14.2 0 7.82-6.36 14.18-14.18 14.18m0-27.37c-7.27 0-13.2 5.92-13.2 13.2 0 7.26 5.93 13.17 13.2 13.17S52.2 47.4 52.2 40.12c0-7.27-5.9-13.2-13.18-13.2" clip-path="url(#t)"/></svg><svg width="34" height="58" y="637" enable-background="new 0 0 24 48" viewBox="-5 -5 34 58"><path fill="#7cb149" d="M24 48V0H0v48l12-9z"/><path fill="#fccf92" d="M7.2 21.45l3.32-.48 1.48-3 1.48 3 3.3.48-2.38 2.34.56 3.3L12 25.52l-2.96 1.55.56-3.3z"/></svg><svg width="34" height="58" y="695" enable-background="new 0 0 24 48" viewBox="-5 -5 34 58"><path fill="#f9b253" d="M24 48V0H0v48l12-9z"/><path fill="#fff" d="M7.2 21.45l3.32-.48 1.48-3 1.48 3 3.3.48-2.38 2.34.56 3.3L12 25.52l-2.96 1.55.56-3.3z"/></svg><svg width="42" height="42" y="753" enable-background="new 0 0 31.558 31.558" viewBox="-5 -5 41.558 41.558"><defs><path id="u" d="M0 0h31.56v31.56H0z"/></defs><clipPath id="v"><use width="100%" height="100%" xlink:href="#u" overflow="visible"/></clipPath><g fill="#7cb149"><path d="M15.76 15.6l.03.18 5.3 4.98c1.03-1.08 1.72-2.47 1.92-4.02v-1.92c-.47-3.58-3.52-6.34-7.23-6.34-.03 0-.04 0-.06 0z" clip-path="url(#v)"/><path d="M15.78 31.56C7.08 31.56 0 24.48 0 15.78S7.08 0 15.78 0s15.78 7.08 15.78 15.78-7.08 15.78-15.78 15.78m0-28.55C8.74 3 3 8.73 3 15.78c0 7.04 5.74 12.77 12.78 12.77 7.04 0 12.77-5.73 12.77-12.77C28.55 8.74 22.82 3 15.78 3" clip-path="url(#v)"/><path d="M16.02 20.37c0 .27-.22.5-.5.5-.27 0-.5-.23-.5-.5v-13c0-.28.23-.5.5-.5.28 0 .5.22.5.5z" clip-path="url(#v)"/><path d="M14.2 15.78c0-.88.7-1.6 1.6-1.6.87 0 1.6.72 1.6 1.6 0 .88-.73 1.6-1.6 1.6-.9 0-1.6-.72-1.6-1.6" clip-path="url(#v)"/><path d="M15.8 26.44c-5.88 0-10.66-4.78-10.66-10.66S9.92 5.12 15.8 5.12 26.44 9.9 26.44 15.78 21.67 26.44 15.8 26.44m0-20.57c-5.47 0-9.9 4.45-9.9 9.9 0 5.47 4.43 9.92 9.9 9.92 5.45 0 9.9-4.46 9.9-9.92s-4.45-9.9-9.9-9.9" clip-path="url(#v)"/></g></svg><svg width="45" height="45" y="795" enable-background="new 0 0 35 35.402" viewBox="-5 -5 45 45.402"><defs><path id="w" d="M.4.45H34.6v34.5H.4z"/></defs><clipPath id="x"><use width="100%" height="100%" xlink:href="#w" overflow="visible"/></clipPath><path fill="#7bb048" d="M21.37 14.95c-1.07 3.9-4.65 6.8-8.9 6.8-5.07 0-9.2-4.15-9.2-9.24 0-5.07 4.13-9.2 9.21-9.2 3.5 0 6.57 1.96 8.13 4.86l2.14-1.98C20.6 2.74 16.82.44 12.5.44 5.82.44.4 5.86.4 12.5c0 6.67 5.4 12.08 12.07 12.08 6.64 0 12.05-5.4 12.05-12.07 0-.18 0-.36-.02-.54z" clip-path="url(#x)"/><path fill="#7bb048" d="M34.17 32.03c.56.56.55 1.46 0 2.02l-.5.5c-.57.55-1.48.54-2.03-.02l-12.5-12.65c-.55-.56-.55-1.46 0-2.02l.52-.5c.56-.55 1.46-.54 2 .02z" clip-path="url(#x)"/><path fill="none" stroke="#7bb048" stroke-miterlimit="10" d="M6.1 9.7c-1.8 4.75 3.07 10.98 8.1 9.18" clip-path="url(#x)" stroke-linecap="round" stroke-linejoin="round"/><path fill="#7bb048" d="M17.34 16.58c-.38 0-.76-.15-1.04-.46l-5.42-5.9c-.53-.58-.5-1.48.1-2 .57-.54 1.47-.5 2 .08l5.4 5.9c.55.57.5 1.47-.07 2-.27.26-.6.38-.96.38" clip-path="url(#x)"/><path fill="#7bb048" d="M17.34 16.58c-.36 0-.72-.14-1-.42-.56-.55-.56-1.45 0-2L27.66 2.82c.55-.55 1.45-.55 2 0 .56.56.56 1.46 0 2.02l-11.3 11.3c-.3.3-.65.43-1.02.43" clip-path="url(#x)"/></svg><svg width="42" height="42" y="840" enable-background="new 0 0 31.5 31.5" viewBox="-5 -5 41.5 41.5"><defs><path id="y" d="M0 0h31.5v31.5H0z"/></defs><clipPath id="z"><use width="100%" height="100%" xlink:href="#y" overflow="visible"/></clipPath><path fill="#7cb149" d="M15.75 31.5C7.07 31.5 0 24.43 0 15.75S7.07 0 15.75 0 31.5 7.07 31.5 15.75 24.43 31.5 15.75 31.5m0-29.5C8.17 2 2 8.17 2 15.75S8.17 29.5 15.75 29.5 29.5 23.33 29.5 15.75 23.33 2 15.75 2" clip-path="url(#z)"/><path fill="#7cb149" d="M14.3 9.46c-1.02-.34-2.15.12-3.17.22-1.2.1-1.24.3-1.93 1.24-1.08 1.47-2.18 2.22-2.3 4.26-.1 1.32-.2 2.4.85 3.28.86.72 1.84.93 2.95 1.05.73.1 2.2-.13 2.65.54.24.34.07.98.1 1.38.1.82.13.8.65 1.5 1.17 1.52.36 3.22 1.9 4.66 1.42 1.34 3.64.85 4.85-.77.17-.22.07-.63.32-.92.3-.35 1.08-.46 1.4-.9.6-.85.14-2.04.4-3 .35-1.26 1.5-1.96 2.15-3 .45-.73.42-1.5.6-2.3-.86.06-1.6 1.08-2.52.2-.43-.42-.16-.77-.43-1.2-.28-.47-.83-.8-1.16-1.24-.25-.34-1.67-2.63-.74-2.53.53.07 1.1 1.5 1.4 1.88.34.46.82.84 1.12 1.4.48.86.62 1.8 1.82 1.35 1.3-.5.9-1.53 1.16-2.52.2-.73 1.1-1.3-.42-1.55-.8-.13-1.88.37-1.57-1.17.82-.2 1.14.42 1.76.75.52.27 1.03.27 1.53.5 1.32.6 1.65 1.85 2.2 2.98-.04-1.15.17-3.27-.34-4.56-.33-.8-.72-1.44-.96-2.3-.23-.82-.54-1.55-1.15-2.14-1.3-1.27-3.23-2.9-4.95-3.62-1.38-.6-2.58.02-3.8.43.08-.1.13-.47.2-.6-1.3-.05-3.72.17-4.45 1.48.45.46 1.3.62 1.9.83.06-.6.43-1.22 1.05-1.34.32.57-.53 1.48-1.03 1.68-1.2.48-1.8-.55-2.97.3-.73.56-1.4 1.25-2.1 1.8-.64.5-1.1 1.12-1.16 1.9 1.2.62 1.9-.48 2.54-1.12.45-.45.08-.45.8-.56.55-.07.83.34 1.37.12.17.57.3.85.56 1.34.2.35.52.18.44.75.77.1.57-.87.2-1.24.2.03.3.02.47.08-.53-.36-1.34-.88-1.63-1.44 1.27-.74 2.14 1.55 2.72 2.2.17-1.3.7-.5 1.42-1.15-1.63-1.74 2.52-1.47 2.84-.53.66 1.92-4.4-.6-3.4 1.35.26.5 4.23.35 2.35 1.8-.68.53-3.7.36-4.32.14-.06.15-.2.26-.25.4-.84-.17-1.28-.9-2.2-.85.12-.3.23-.68.3-1-.67-.23-2.12-.3-2.43.3" clip-path="url(#z)"/></svg><svg width="54" height="36" y="882" enable-background="new 0 0 44 26" viewBox="-5 -5 54 36"><path fill="#7cb149" d="M7 4h31v15H7z"/><path fill="#7cb149" d="M38 19H7l15.5 6.13z"/><defs><path id="A" d="M0 0h44v26H0z"/></defs><clipPath id="B"><use width="100%" height="100%" xlink:href="#A" overflow="visible"/></clipPath><path fill="#0e7fab" d="M44 1.5c0 .83-.67 1.5-1.5 1.5h-41C.67 3 0 2.33 0 1.5S.67 0 1.5 0h41c.83 0 1.5.67 1.5 1.5" clip-path="url(#B)"/><path fill="none" stroke="#0f7fac" stroke-miterlimit="10" d="M2.5 3v14" clip-path="url(#B)"/><g fill="#5d8082"><path d="M4.93 18.46c0 1.36-1.1 2.47-2.46 2.47-1.37 0-2.47-1.1-2.47-2.46C0 17.1 1.1 16 2.46 16c1.37 0 2.47 1.1 2.47 2.46" clip-path="url(#B)"/><path d="M2 19l-2 7h5l-1.84-7" clip-path="url(#B)"/><path d="M7 4h31v2H7z" clip-path="url(#B)"/></g></svg><svg width="37" height="43" y="918" enable-background="new 0 0 27.25 33.125" viewBox="-5 -5 37.25 43.125"><path fill="#7cb149" d="M2 2h20v26H2zM0 30h24V0H0z"/><defs><path id="C" d="M0 0h27.25v33.13H0z"/></defs><clipPath id="D"><use width="100%" height="100%" xlink:href="#C" overflow="visible"/></clipPath><path fill="#5d8082" d="M25.25 5.54v25.59H4.55l.02-.03c-.13 0-.25.02-.38.03l-1.65 2h24.7V3.1z" clip-path="url(#D)"/><path fill="#0e7fab" d="M8.44 13.88c-.1-.18-.03-.3.18-.4.2-.1.43-.23.65-.4.23-.17.4-.34.56-.52.16-.2.3-.3.46-.3h.86c.22 0 .33.1.33.32v7.1c0 .2-.12.3-.33.3h-.86c-.2 0-.32-.1-.32-.3v-5.55h-.02c-.1.14-.23.26-.36.36-.14.1-.27.17-.4.23-.17.07-.3.02-.4-.14z" clip-path="url(#D)"/><path fill="#0e7fab" d="M14.13 25.13c-.27 0-.4-.12-.4-.35v-.26c0-.2.08-.37.25-.56l1.6-1.7c.5-.5.93-.96 1.33-1.35.4-.4.6-.8.6-1.2 0-.4-.1-.7-.3-.9-.2-.2-.45-.3-.76-.3-.5 0-.84.12-1.03.35-.18.23-.32.48-.4.74-.1.24-.24.33-.46.26l-.54-.18c-.18-.06-.23-.23-.15-.5.14-.52.42-.96.85-1.32.43-.37 1.07-.56 1.9-.56.9 0 1.53.23 1.93.68.4.46.6.95.6 1.48 0 .7-.3 1.3-.87 1.83-.58.52-1.1 1.03-1.58 1.53l-.93.96c.22 0 .4 0 .54 0h2.5c.28 0 .4.1.4.34v.64c0 .23-.12.35-.4.35h-4.67z" clip-path="url(#D)"/></svg><svg width="52" height="58" y="961" enable-background="new 0 0 42.007 47.691" viewBox="-5 -5 52.007 57.691"><defs><path id="E" d="M0 0h42v47.7H0z"/></defs><clipPath id="F"><use width="100%" height="100%" xlink:href="#E" overflow="visible"/></clipPath><g fill="#0e7fab"><path d="M21 47.7c-11.58 0-21-9.43-21-21C0 15.1 9.42 5.67 21 5.67c11.6 0 21 9.43 21 21 0 11.6-9.4 21-21 21m0-38c-9.37 0-17 7.63-17 17 0 9.38 7.63 17 17 17 9.38 0 17-7.62 17-17 0-9.37-7.62-17-17-17" clip-path="url(#F)"/><path d="M18.02 2h6v4h-6z" clip-path="url(#F)"/><path d="M26.02 1.03c0 .53-.43.97-.97.97H17c-.54 0-.98-.44-.98-.97V.97c0-.53.44-.97.98-.97h8.05c.54 0 .97.43.97.97v.06z" clip-path="url(#F)"/></g><path fill="#feaa31" d="M22.02 32c0 .55-.45 1-1 1s-1-.45-1-1V16c0-.55.45-1 1-1s1 .45 1 1z" clip-path="url(#F)"/><path fill="#b3b3b3" d="M18.9 26.7c0-1.2.95-2.13 2.12-2.13 1.17 0 2.12.94 2.12 2.12 0 1.16-.95 2.1-2.12 2.1-1.17 0-2.12-.94-2.12-2.1" clip-path="url(#F)"/><path fill="#0e7fab" d="M35.31 12.54l2.93-2.92c.73-.73.73-1.92 0-2.65l-.17-.18c-.74-.74-1.92-.74-2.66 0l-2.9 2.9z" clip-path="url(#F)"/><path fill="#7cb149" d="M21.02 40.87c-7.82 0-14.18-6.36-14.18-14.18 0-7.83 6.36-14.2 14.18-14.2 7.82 0 14.2 6.36 14.2 14.2 0 7.8-6.37 14.17-14.2 14.17m0-27.37c-7.27 0-13.18 5.92-13.18 13.2 0 7.26 5.9 13.17 13.18 13.17 7.27 0 13.2-5.9 13.2-13.18 0-7.28-5.93-13.2-13.2-13.2" clip-path="url(#F)"/></svg><svg width="37" height="43" y="1019" enable-background="new 0 0 27.25 33.25" viewBox="-5 -5 37.25 43.25"><path fill="#7cb149" d="M2 2h20v26H2zM0 30h24V0H0z"/><defs><path id="G" d="M0 0h27.25v33.25H0z"/></defs><clipPath id="H"><use width="100%" height="100%" xlink:href="#G" overflow="visible"/></clipPath><g fill="#5d8082"><path d="M25.25 5.66v25.6H4.55l.02-.04c-.13.02-.25.03-.38.03l-1.65 2h24.7V3.23z" clip-path="url(#H)"/><path d="M6 5h12v2H6z" clip-path="url(#H)"/><path d="M6 9h12v2H6z" clip-path="url(#H)"/></g></svg><svg width="37" height="43" y="1062" enable-background="new 0 0 27.25 33.25" viewBox="-5 -5 37.25 43.25"><path fill="#7cb149" d="M2 2h20v26H2zM0 30h24V0H0z"/><defs><path id="I" d="M0 0h27.25v33.25H0z"/></defs><clipPath id="J"><use width="100%" height="100%" xlink:href="#I" overflow="visible"/></clipPath><path fill="#5d8082" d="M25.25 5.66v25.6H4.55l.02-.04c-.13.02-.25.03-.38.03l-1.65 2h24.7V3.23z" clip-path="url(#J)"/></svg><svg width="38" height="32" y="1105" enable-background="new 0 0 27.765 22.203" viewBox="-5 -5 37.765 32.203"><defs><path id="K" d="M0 0h27.77v22.2H0z"/></defs><clipPath id="L"><use width="100%" height="100%" xlink:href="#K" overflow="visible"/></clipPath><path fill="#7cb149" d="M26.12 20.25c-2.53 0-9.9-.64-12.25-7.8-1.2-3.7-3.62-6.08-6-5.93-2.28.14-4.23 2.45-5 6.46l-.92 3.77-.65-3.1.15-.78c.93-4.85 3.23-7.74 6.3-7.93 3.15-.2 6.16 2.55 7.62 7.02 2.43 7.43 11.1 6.7 11.46 6.68l.78-.07.16 1.57-.8.08s-.32.03-.84.03" clip-path="url(#L)"/><path fill="#5d8082" d="M6.4 17.98c-2.3 0-4.06-.12-4.23-.14l-.8-.05.13-1.6.8.07c.1 0 9.6.68 13.08-1.1 3.53-1.82 5.45-3.34 9.84-8.78l.5-.63 1.23 1-.5.6c-4.3 5.34-6.33 7.14-10.35 9.2-2.26 1.17-6.5 1.4-9.7 1.4" clip-path="url(#L)"/><path fill="none" stroke="#ccc" stroke-miterlimit="10" d="M1.6.4v21.4" clip-path="url(#L)" stroke-linecap="round" stroke-linejoin="round"/><path fill="none" stroke="#ccc" stroke-miterlimit="10" d="M.4 20.62h26.96" clip-path="url(#L)" stroke-linecap="round" stroke-linejoin="round"/></svg><svg width="45" height="55" y="1137" enable-background="new 0 0 35 45" viewBox="-5 -5 45 55"><path fill="#b3b3b3" d="M28.3 7.37H6.77c-.1 0-.2-.1-.2-.2 0-.12.1-.2.2-.2H28.3c.1 0 .2.08.2.2 0 .1-.1.2-.2.2"/><path fill="#fff" d="M27.55 44.86l4-3.92 2.64-2.78V.6H.87v44.26z"/><defs><path id="M" d="M.88.6h33.3v44.26H.9z"/></defs><clipPath><use width="100%" height="100%" xlink:href="#M" overflow="visible"/></clipPath><defs><path id="N" d="M.88.6h33.3v44.26H.9z"/></defs><clipPath id="O"><use width="100%" height="100%" xlink:href="#N" overflow="visible"/></clipPath><path fill="#ccc" d="M33.8 38.16l-6.65 6.1v-6.1z" clip-path="url(#O)"/><defs><path id="P" d="M33.58 59.5L2.98 46.4l17.45-40.7 30.6 13.15z"/></defs><clipPath id="Q"><use width="100%" height="100%" xlink:href="#P" overflow="visible"/></clipPath><path fill="#f69f1c" d="M22.37 11.56h1.83v30.26h-1.83z" transform="matrix(.98 .202 -.202 .98 5.858 -4.145)" clip-path="url(#Q)"/><defs><path id="R" d="M35.77 60.45L5.17 47.32 22.6 6.62l30.6 13.15z"/></defs><clipPath id="S"><use width="100%" height="100%" xlink:href="#R" overflow="visible"/></clipPath><path fill="#f9b253" d="M23.16 11.8h2.64v30.27h-2.64z" transform="matrix(.98 .201 -.201 .98 5.926 -4.377)" clip-path="url(#S)"/><defs><path id="T" d="M.88.6h33.3v44.26H.9z"/></defs><clipPath id="U"><use width="100%" height="100%" xlink:href="#T" overflow="visible"/></clipPath><path fill="none" stroke="#fcc472" stroke-miterlimit="10" d="M27.6 15.25l-4.08 19.9" clip-path="url(#U)" stroke-linecap="round" stroke-linejoin="round"/><defs><path id="V" d="M23 88.3L-7.6 75.2 9.8 34.5l30.62 13.1z"/></defs><clipPath id="W"><use width="100%" height="100%" xlink:href="#V" overflow="visible"/></clipPath><path fill="#736357" d="M19.2 41.67h3.46v1H19.2z" transform="matrix(.98 .2 -.2 .98 8.875 -3.339)" clip-path="url(#W)"/><path fill="none" stroke="#ccc" stroke-width=".3" stroke-miterlimit="10" d="M27.6 43.94H1.54"/><defs><path id="X" d="M.88.6h33.3v44.26H.9z"/></defs><clipPath id="Y"><use width="100%" height="100%" xlink:href="#X" overflow="visible"/></clipPath><path fill="#dd9eb8" d="M22.54 42.97c-.2.94-1.1 1.54-2.04 1.35-.94-.2-1.54-1.1-1.35-2.04" clip-path="url(#Y)"/><path fill="#b3b3b3" d="M28.3 7.37H6.77c-.1 0-.2-.1-.2-.2 0-.12.1-.2.2-.2H28.3c.1 0 .2.08.2.2 0 .1-.1.2-.2.2"/><defs><path id="Z" d="M.88.6h33.3v44.26H.9z"/></defs><clipPath id="aa"><use width="100%" height="100%" xlink:href="#Z" overflow="visible"/></clipPath><path fill="#736357" d="M28.1 11.55c-.07.4-.5.6-.93.5l-.1-.02c-.43-.1-.74-.44-.66-.83l.86-3.06c.08-.4.44-1.38.88-1.28h.1c.43.1.37 1.15.3 1.54z" clip-path="url(#aa)"/><defs><path id="ab" d="M.88.6h33.3v44.26H.9z"/></defs><clipPath id="ac"><use width="100%" height="100%" xlink:href="#ab" overflow="visible"/></clipPath><path fill="#efd9bd" d="M25.42 11.77l1.84-3.6-.94 3.8-.27 1z" clip-path="url(#ac)"/><defs><path id="ad" d="M.88.6h33.3v44.26H.9z"/></defs><clipPath id="ae"><use width="100%" height="100%" xlink:href="#ad" overflow="visible"/></clipPath><path fill="#efd9bd" d="M28.85 12.48l-.32-4.06-.62 3.87-.15 1z" clip-path="url(#ae)"/><defs><path id="af" d="M.88.6h33.3v44.26H.9z"/></defs><clipPath id="ag"><use width="100%" height="100%" xlink:href="#af" overflow="visible"/></clipPath><path fill="#f9ebd7" d="M26.05 12.96l1.06-.84.65 1.2.56-3.07-.4-1.94-1.15 1.7z" clip-path="url(#ag)"/><g fill="none" stroke="#ccc" stroke-width=".3" stroke-miterlimit="10"><path d="M33.65 1.5H1.63"/><path d="M33.5 1.5v36.85"/><path d="M1.63 1.37l-.1 42.7"/></g></svg><svg width="44" height="51" y="1192" enable-background="new 0 0 34 41" viewBox="-5 -5 44 51"><defs><path id="ah" d="M.22.2h33.56v40.6H.22z"/></defs><clipPath id="ai"><use width="100%" height="100%" xlink:href="#ah" overflow="visible"/></clipPath><path fill="#554e46" d="M1.48 16.52v-8.8c0-2.76 2.25-5 5.02-5H9c2.8 0 5.04 2.24 5.04 5v8.8" clip-path="url(#ai)"/><path fill="#bcada0" d="M5.66 18.2h3.77v3.35H5.66z" clip-path="url(#ai)"/><path fill="#c6b5a5" d="M13.2 13.6c0 2.77-2.25 5.02-5.02 5.02h-.84c-2.78 0-5.02-2.25-5.02-5.03V8.56c0-2.77 2.24-5.02 5.02-5.02h.84c2.77 0 5.02 2.25 5.02 5.02z" clip-path="url(#ai)"/><path fill="none" stroke="#666" stroke-miterlimit="10" d="M1.2 12.34c0 3.78 3.06 6.83 6.83 6.83" clip-path="url(#ai)"/><path fill="#666" d="M10.27 19.1c0 .2-.16.35-.35.35H7.27c-.2 0-.35-.15-.35-.35v-.14c0-.2.15-.34.35-.34h2.65c.2 0 .35.15.35.34z" clip-path="url(#ai)"/><path fill="#554e46" d="M8.18 4.94C7.16 7 5.4 7.2 3.7 8.44c-1.23.85-1.55 2.2-2.3 3.38.04-1.95-.1-4.15.62-5.98.6-1.6 1.44-2.35 3.03-2.94.88-.32 2.44-.7 3.14.14.8.95-.16 1.6-.37 2.53" clip-path="url(#ai)"/><path fill="#554e46" d="M7.18 4.94c1 2.05 2.77 2.27 4.48 3.5 1.22.85 1.54 2.2 2.3 3.38-.05-1.95.08-4.15-.63-5.98-.6-1.6-1.44-2.35-3.03-2.94-.88-.32-2.44-.7-3.14.14-.8.95.16 1.6.37 2.53" clip-path="url(#ai)"/><path fill="#fff" d="M4.83 14.43c0 .05 0 .1 0 .14 0 1.62 1.3 2.93 2.93 2.93 1.6 0 2.93-1.3 2.93-2.93 0-.05-.02-.1-.02-.14z" clip-path="url(#ai)"/><path fill="#c6ce67" d="M15.7 33.7c0 2.76-2.24 5-5 5H5.24c-2.78 0-5.03-2.24-5.03-5v-7.13c0-2.77 2.25-5.02 5.03-5.02h5.44c2.76 0 5 2.25 5 5.02v7.12z" clip-path="url(#ai)"/><path fill="#bcada0" d="M4.4 21.55s2.68 7.9 6.58.05c-4.2-.2-6.57-.05-6.57-.05" clip-path="url(#ai)"/><g fill="#5d8082"><path d="M1.9 11.5V5.64c0-2.54 2.06-4.6 4.6-4.6H9c2.55 0 4.62 2.06 4.62 4.6v5.86h.83V5.64C14.45 2.64 12 .2 9 .2H6.5c-3 0-5.44 2.44-5.44 5.44v5.86z" clip-path="url(#ai)"/><path d="M1.9 15.27c0 .46-.38.84-.84.84-.46 0-.84-.37-.84-.83v-5.02c0-.47.38-.84.84-.84.46 0 .84.38.84.85z" clip-path="url(#ai)"/><path d="M15.3 15.27c0 .46-.38.84-.85.84-.46 0-.83-.37-.83-.83v-5.02c0-.47.37-.84.83-.84.47 0 .84.38.84.85z" clip-path="url(#ai)"/></g><path fill="#fff" d="M32.45 23.64v13.4c0 .22-.18.4-.42.4H13.2c-6.56.43-3.5 3.36-5.44 3.36V23.64c0-.23.18-.42.4-.42h23.87c.23 0 .42.2.42.42" clip-path="url(#ai)"/><g fill="#b3b3b3"><path d="M23.66 34.52h-11.3c-.23 0-.42-.2-.42-.42 0-.23.2-.42.42-.42h11.3c.23 0 .42.2.42.42 0 .23-.2.42-.42.42" clip-path="url(#ai)"/><path d="M29.1 31.17H12.36c-.23 0-.42-.18-.42-.42 0-.23.2-.4.42-.4H29.1c.23 0 .42.17.42.4 0 .24-.2.42-.42.42" clip-path="url(#ai)"/><path d="M23.66 27.4h-11.3c-.23 0-.42-.18-.42-.4 0-.24.2-.43.42-.43h11.3c.23 0 .42.2.42.42 0 .22-.2.4-.42.4" clip-path="url(#ai)"/></g><path fill="#c6ce67" d="M33.78 23.7c0 .97-.78 1.75-1.75 1.75-.96 0-1.74-.78-1.74-1.74 0-.95.77-1.73 1.73-1.73.97 0 1.75.78 1.75 1.74" clip-path="url(#ai)"/></svg><svg width="45" height="54" y="1243" viewBox="-5 -5 45 54" enable-background="new 0 0 35 44" transform="translate(0 .054)"><path fill="#fff" d="M27.6 43.7l3.35-3.3 2.88-3.07V-.05H.9V43.7z"/><path fill="#ccc" d="M33.43 37.14h-6.17v5.97z"/><g fill="#f9b253"><path d="M14.27 8.7l2.4-.34 1.1-2.2 1.08 2.2 2.4.35-1.73 1.72.4 2.4-2.16-1.13-2.16 1.13.42-2.4z"/><path d="M23.23 12.9l1.7-.24.77-1.54.76 1.54 1.7.25-1.23 1.22.3 1.7-1.53-.8-1.53.8.3-1.7z"/><path d="M8.5 12.9l1.7-.24.76-1.54.76 1.54 1.7.25-1.22 1.22.3 1.7-1.54-.8-1.53.8.3-1.7z"/><path d="M5.1 18.44l1.16-.17.5-1.04.53 1.04 1.14.17-.83.8.2 1.16-1.03-.55-1.03.55.2-1.15z"/><path d="M28.4 18.24l1.16-.17.5-1.04.53 1.04 1.14.17-.83.8.2 1.16-1.03-.54-1.03.54.2-1.15z"/></g><defs><path id="aj" d="M1.17.3h32.66v43.4H1.17z"/></defs><clipPath id="ak"><use width="100%" height="100%" overflow="visible" xlink:href="#aj"/></clipPath><path fill="#f69f1c" d="M20.5 28.76c-.25 0-.46-.1-.6-.3-.47-.7.27-2.77.62-3.62l.1-.25h2.72l-.07.45c-.02.1-.42 2.6-2.22 3.55-.2.1-.4.16-.56.16m0-.8v.4zm.66-2.57c-.43 1.1-.7 2.2-.6 2.55.02 0 .06-.03.12-.06 1.04-.55 1.5-1.83 1.7-2.52z" clip-path="url(#ak)"/><defs><path id="al" d="M1.17.3h32.66v43.4H1.17z"/></defs><clipPath id="am"><use width="100%" height="100%" overflow="visible" xlink:href="#al"/></clipPath><path fill="#f69f1c" d="M14.47 28.6c-1.8-.94-2.2-3.45-2.22-3.55l-.07-.46h2.73l.1.24c.35.85 1.1 2.9.62 3.62-.14.2-.34.3-.58.3-.17 0-.36-.05-.56-.16m.56-.63v.4zm-1.9-2.58c.2.67.67 1.95 1.7 2.5.06.02.1.04.14.05.08-.34-.2-1.45-.6-2.56z" clip-path="url(#am)"/><defs><path id="an" d="M1.17.3h32.66v43.4H1.17z"/></defs><clipPath id="ao"><use width="100%" height="100%" overflow="visible" xlink:href="#an"/></clipPath><path fill="#f9b253" d="M21.28 22.2v5.28c0 1.92-1.56 3.48-3.48 3.48s-3.5-1.56-3.5-3.48V22.2" clip-path="url(#ao)"/><defs><path id="ap" d="M1.17.3h32.66v43.4H1.17z"/></defs><clipPath id="aq"><use width="100%" height="100%" overflow="visible" xlink:href="#ap"/></clipPath><path fill="#f9b253" d="M17.1 30.17h1.4v3.18h-1.4z" clip-path="url(#aq)"/><defs><path id="ar" d="M1.17.3h32.66v43.4H1.17z"/></defs><clipPath id="as"><use width="100%" height="100%" overflow="visible" xlink:href="#ar"/></clipPath><path fill="#f69f1c" d="M14.3 22.2h6.98v1H14.3z" clip-path="url(#as)"/><defs><path id="at" d="M1.17.3h32.66v43.4H1.17z"/></defs><clipPath id="au"><use width="100%" height="100%" overflow="visible" xlink:href="#at"/></clipPath><path fill="#f69f1c" d="M20.5 33.75c0 .22-.2.4-.4.4h-4.4c-.2 0-.4-.18-.4-.4 0-.22.2-.4.4-.4h4.4c.2 0 .4.18.4.4" clip-path="url(#au)"/><defs><path id="av" d="M1.17.3h32.66v43.4H1.17z"/></defs><clipPath><use width="100%" height="100%" overflow="visible" xlink:href="#av"/></clipPath><defs><path id="aw" d="M1.17.3h32.66v43.4H1.17z"/></defs><clipPath><use width="100%" height="100%" overflow="visible" xlink:href="#aw"/></clipPath><defs><path id="ax" d="M1.17.3h32.66v43.4H1.17z"/></defs><clipPath id="ay"><use width="100%" height="100%" overflow="visible" xlink:href="#ax"/></clipPath><path fill="#f69f1c" d="M16.08 9.15l1.16-.17.53-1.06.52 1.06 1.15.17-.84.82.2 1.17-1.04-.55-1.04.54.2-1.17z" clip-path="url(#ay)"/><defs><path id="az" d="M1.17.3h32.66v43.4H1.17z"/></defs><clipPath><use width="100%" height="100%" overflow="visible" xlink:href="#az"/></clipPath><defs><path id="aA" d="M1.17.3h32.66v43.4H1.17z"/></defs><clipPath><use width="100%" height="100%" overflow="visible" xlink:href="#aA"/></clipPath><g fill="none" stroke="#ccc" stroke-width=".3" stroke-miterlimit="10"><path d="M27.3 42.83H1.23"/><path d="M33.34.4H1.32"/><path d="M33.2.4v36.83"/><path d="M1.32.25l-.1 42.72"/></g></svg><svg width="71" height="59" y="1297" viewBox="-5 -5 71 59.319" enable-background="new 0 0 61 49.319" transform="translate(0 .054)"><defs><path id="aB" d="M0 0h61v49.32H0z"/></defs><clipPath id="aC"><use width="100%" height="100%" overflow="visible" xlink:href="#aB"/></clipPath><g clip-path="url(#aC)"><defs><path id="aD" d="M0 0h61v49.32H0z"/></defs><clipPath id="aE"><use width="100%" height="100%" overflow="visible" xlink:href="#aD"/></clipPath><path fill="#ccc" d="M47.37 44.78c0 .7-.58 1.3-1.3 1.3H1.3c-.72 0-1.3-.6-1.3-1.3v-33.1c0-.72.58-1.3 1.3-1.3h44.77c.72 0 1.3.58 1.3 1.3z" clip-path="url(#aE)"/><path fill="#b3b3b3" d="M0 14.93v-3.25c0-.72.58-1.3 1.3-1.3h44.77c.72 0 1.3.58 1.3 1.3v3.25" clip-path="url(#aE)"/><path fill="#ea535e" d="M2.76 12.66c0 .27-.2.5-.48.5-.28 0-.5-.23-.5-.5 0-.28.22-.5.5-.5.27 0 .48.23.48.5z" clip-path="url(#aE)"/><path fill="#feaa31" d="M5.36 12.66c0 .27-.22.5-.5.5-.26 0-.48-.23-.48-.5 0-.28.22-.5.5-.5.26 0 .48.23.48.5z" clip-path="url(#aE)"/><path fill="#7cb149" d="M7.96 12.66c0 .27-.22.5-.5.5-.26 0-.48-.23-.48-.5 0-.28.2-.5.48-.5.28 0 .5.23.5.5z" clip-path="url(#aE)"/><path fill="#fff" d="M3.25 17.52h14.27V31.8H3.25z" clip-path="url(#aE)"/><path fill="#bcada0" d="M9.1 25.3h1.93v2.6H9.1z" clip-path="url(#aE)"/><path fill="#c6b5a5" d="M12.33 23.9c0 1.13-.93 2.06-2.07 2.06h-.4c-1.15 0-2.07-.93-2.07-2.07v-2.36c0-1.15.9-2.07 2.06-2.07h.4c1.14 0 2.07.93 2.07 2.07v2.35z" clip-path="url(#aE)"/><path fill="#554e46" d="M10.32 20.43c-.42.85-1.1.53-1.82 1.03-.5.36-.58.85-.7 1.63-.22-.6-.3-1.54-.02-2.3.25-.66.6-.96 1.25-1.2.36-.14 1-.3 1.3.05.32.4-.07.66-.16 1.04" clip-path="url(#aE)"/><path fill="#fff" d="M8.94 24.66s0-.12 0-.1c0 .67.54 1.13 1.2 1.13.67 0 1.2-.43 1.2-1.1 0-.02 0 .06 0 .06z" clip-path="url(#aE)"/><path fill="#c6ce67" d="M7.14 31.8v-3.05c0-1.2.83-1.5 1.97-1.5h2.25c1.15 0 1.63.3 1.63 1.5v3.05" clip-path="url(#aE)"/><path fill="#bcada0" d="M8.8 27.25s1.08 1.84 2.55 0c-1.72-.1-2.54 0-2.54 0" clip-path="url(#aE)"/><path fill="#554e46" d="M12.32 19.95c.12.22.3.4.43.62.1.22.1.47.1.72-.07-.17-.22-.24-.4-.2.03 0 .04.22.04.5-.02.42-.04 1-.08 1.1.1-.27-.35-1-.48-1.24-.17-.34-.5-.98-.93-1-.68-.02-1 .4-1 .4s-.95-.48-.96-.48c-.37-.2-1.26.7-1.66.55.05-.15.13-.3.25-.42-.06.03-.17.02-.24.04.06-1 .76-1.4 1.7-1.64 0-.2-.24-.2-.42-.17.35-.15 1.9-.24 2.04.12.43-.04.85.07 1.16.38.23.23.33.5.43.8.12.3.35.62.4.95.03.22 0 .5 0 .72-.08-.05-.16-.03-.24-.05-.02.3.06.64-.04.9" clip-path="url(#aE)"/><path fill="#5d8082" d="M40.88 18.5c0 .54-.43.97-.95.97H21.08c-.53 0-.96-.43-.96-.96v-.02c0-.53.43-.96.96-.96h18.84c.53 0 .96.43.96.96v.03z" clip-path="url(#aE)"/><g fill="#808080"><path d="M35.7 22.16c0 .3-.26.55-.57.55H20.67c-.3 0-.55-.24-.55-.54v-.2c0-.3.25-.55.55-.55h14.46c.3.02.56.26.56.57z" clip-path="url(#aE)"/><path d="M29.2 29.94c0 .3-.25.56-.55.56h-7.98c-.3 0-.55-.25-.55-.56v-.18c0-.3.25-.56.55-.56h7.98c.3 0 .55.25.55.56z" clip-path="url(#aE)"/><path d="M35.7 24.75c0 .3-.26.56-.57.56H20.67c-.3 0-.55-.24-.55-.55v-.18c0-.3.25-.56.55-.56h14.46c.3 0 .56.26.56.57z" clip-path="url(#aE)"/><path d="M42.18 27.35c0 .3-.25.55-.56.55H20.67c-.3 0-.55-.24-.55-.55v-.2c0-.3.25-.54.55-.54h20.95c.3 0 .56.26.56.56z" clip-path="url(#aE)"/><path d="M38.3 35.13c0 .3-.26.56-.57.56H3.8c-.3 0-.56-.26-.56-.57v-.18c0-.3.25-.56.56-.56h33.93c.3 0 .56.24.56.55z" clip-path="url(#aE)"/><path d="M43.48 38.38c0 .3-.25.56-.56.56H3.8c-.3 0-.56-.25-.56-.56v-.18c0-.3.25-.56.56-.56h39.12c.3 0 .56.25.56.55z" clip-path="url(#aE)"/><path d="M43.48 41.62c0 .3-.25.56-.56.56H3.8c-.3 0-.56-.25-.56-.56v-.18c0-.3.25-.56.56-.56h39.12c.3 0 .56.25.56.56z" clip-path="url(#aE)"/></g><path fill="#ccc" d="M59.7 48.02c0 .72-.58 1.3-1.3 1.3H13.63c-.72 0-1.3-.58-1.3-1.3v-33.1c0-.7.58-1.3 1.3-1.3H58.4c.72 0 1.3.6 1.3 1.3z" clip-path="url(#aE)"/><path fill="#b3b3b3" d="M12.33 18.17v-3.25c0-.7.58-1.3 1.3-1.3H58.4c.72 0 1.3.6 1.3 1.3v3.25" clip-path="url(#aE)"/><path fill="#ea535e" d="M15.1 15.9c0 .27-.22.5-.5.5-.27 0-.5-.23-.5-.5s.23-.5.5-.5c.28 0 .5.23.5.5z" clip-path="url(#aE)"/><path fill="#feaa31" d="M17.7 15.9c0 .27-.23.5-.5.5s-.5-.23-.5-.5.23-.5.5-.5.5.23.5.5z" clip-path="url(#aE)"/><path fill="#7cb149" d="M20.29 15.9c-.02.27-.23.5-.5.5-.28 0-.5-.23-.5-.5s.22-.5.5-.5c.27 0 .48.23.48.5z" clip-path="url(#aE)"/><path fill="#fff" d="M15.57 20.77h14.28v14.27H15.57z" clip-path="url(#aE)"/><path fill="#bcada0" d="M21.41 28.55h1.96v2.6H21.4z" clip-path="url(#aE)"/><path fill="#c6b5a5" d="M24.66 27.13c0 1.15-.93 2.07-2.07 2.07h-.4c-1.16 0-2.08-.92-2.08-2.07v-2.35c0-1.14.92-2.07 2.07-2.07h.4c1.13 0 2.06.94 2.06 2.08z" clip-path="url(#aE)"/><path fill="#554e46" d="M22.65 23.68c-.42.84-1.1.53-1.82 1.03-.5.36-.58.86-.7 1.64-.23-.6-.3-1.54-.02-2.3.26-.65.6-.96 1.26-1.2.36-.14 1-.3 1.3.06.32.4-.07.65-.16 1.04" clip-path="url(#aE)"/><path fill="#fff" d="M21.27 27.9s0-.1 0-.1c0 .67.54 1.13 1.2 1.13.67 0 1.2-.42 1.2-1.1 0 0 0 .07 0 .07z" clip-path="url(#aE)"/><path fill="#c6ce67" d="M19.47 35.04V32c0-1.2.83-1.5 1.97-1.5h2.24c1.14 0 1.63.3 1.63 1.5v3.04" clip-path="url(#aE)"/><path fill="#bcada0" d="M21.14 30.5s1.07 1.83 2.54 0c-1.73-.1-2.54 0-2.54 0" clip-path="url(#aE)"/><path fill="#554e46" d="M24.65 23.2c.12.2.32.4.43.6.1.23.1.5.1.73-.07-.16-.22-.22-.4-.18.03 0 .04.2.04.5 0 .42-.03 1-.07 1.08.1-.26-.36-1-.48-1.23-.18-.33-.5-.97-.93-1-.7-.02-1.02.4-1.02.4s-.94-.48-.95-.48c-.37-.2-1.26.7-1.66.55.06-.15.14-.3.26-.4-.06 0-.17 0-.24.02.07-1.03.77-1.4 1.7-1.65 0-.2-.23-.2-.42-.18.36-.15 1.9-.24 2.05.12.43-.05.84.07 1.16.38.24.22.34.5.44.8.1.3.34.6.4.94.02.22 0 .5-.02.73-.07-.05-.16-.03-.23-.06-.03.28.05.63-.05.9" clip-path="url(#aE)"/><path fill="#5d8082" d="M53.2 21.75c0 .53-.42.96-.95.96H33.4c-.52 0-.95-.42-.95-.95v-.02c0-.53.43-.96.96-.96h18.85c.53 0 .96.43.96.96z" clip-path="url(#aE)"/><g fill="#808080"><path d="M48.02 25.4c0 .3-.25.56-.56.56H33c-.3 0-.55-.25-.55-.56v-.18c0-.3.24-.56.55-.56h14.46c.3 0 .56.25.56.56z" clip-path="url(#aE)"/><path d="M41.53 33.2c0 .3-.25.54-.56.54H33c-.3 0-.55-.25-.55-.55V33c0-.3.25-.55.55-.55h7.97c.3 0 .56.25.56.55z" clip-path="url(#aE)"/><path d="M48.02 28c0 .3-.25.55-.56.55H33c-.3 0-.55-.25-.55-.55v-.2c0-.3.24-.54.55-.54h14.46c.3 0 .56.25.56.55z" clip-path="url(#aE)"/><path d="M54.5 30.6c0 .3-.24.55-.55.55H33c-.3 0-.55-.25-.55-.56v-.2c0-.3.25-.55.55-.55h20.95c.3 0 .56.25.56.56z" clip-path="url(#aE)"/><path d="M50.62 38.38c0 .3-.25.56-.56.56H16.13c-.3 0-.56-.25-.56-.56v-.18c0-.3.25-.56.56-.56h33.93c.3 0 .56.25.56.55v.18z" clip-path="url(#aE)"/><path d="M55.8 41.62c0 .3-.24.56-.55.56H16.13c-.3 0-.56-.25-.56-.56v-.18c0-.3.25-.56.56-.56h39.12c.3 0 .56.25.56.56z" clip-path="url(#aE)"/><path d="M55.8 44.87c0 .3-.24.56-.55.56H16.13c-.3 0-.56-.25-.56-.56v-.2c0-.3.25-.54.56-.54h39.12c.3 0 .56.25.56.55z" clip-path="url(#aE)"/></g><path fill="#e6e6e6" d="M52.56 36.34c0 .72-.58 1.3-1.3 1.3H6.5c-.73 0-1.3-.58-1.3-1.3V3.24c0-.7.57-1.3 1.3-1.3h44.77c.7 0 1.3.6 1.3 1.3z" clip-path="url(#aE)"/><path fill="#ccc" d="M5.2 6.5V3.24c0-.72.57-1.3 1.3-1.3h44.77c.7 0 1.3.58 1.3 1.3V6.5" clip-path="url(#aE)"/><path fill="#ea535e" d="M7.96 4.22c0 .27-.22.5-.5.5-.26 0-.48-.23-.48-.5s.2-.5.48-.5c.28 0 .5.23.5.5z" clip-path="url(#aE)"/><path fill="#feaa31" d="M10.55 4.22c0 .27-.22.5-.5.5-.26 0-.48-.23-.48-.5s.22-.5.5-.5c.26 0 .48.23.48.5z" clip-path="url(#aE)"/><path fill="#7cb149" d="M13.15 4.22c0 .27-.22.5-.5.5-.26 0-.48-.23-.48-.5s.22-.5.48-.5c.28 0 .5.23.5.5z" clip-path="url(#aE)"/><path fill="#fff" d="M8.44 9.1H22.7v14.26H8.45z" clip-path="url(#aE)"/><path fill="#bcada0" d="M14.28 16.87h1.94v2.6h-1.94z" clip-path="url(#aE)"/><path fill="#c6b5a5" d="M17.52 15.45c0 1.15-.93 2.07-2.07 2.07h-.4c-1.14 0-2.07-.92-2.07-2.07V13.1c0-1.14.93-2.07 2.07-2.07h.4c1.14 0 2.07.93 2.07 2.07z" clip-path="url(#aE)"/><path fill="#554e46" d="M15.5 12c-.4.84-1.1.52-1.8 1.02-.5.36-.6.86-.72 1.63-.2-.6-.3-1.53 0-2.3.24-.64.58-.95 1.24-1.2.36-.13 1-.28 1.3.06.32.4-.07.67-.16 1.06" clip-path="url(#aE)"/><path fill="#fff" d="M14.13 16.22s0-.12 0-.1c0 .67.54 1.13 1.2 1.13.67 0 1.2-.42 1.2-1.1 0 0 0 .08 0 .08h-2.4z" clip-path="url(#aE)"/><path fill="#c6ce67" d="M12.33 23.36V20.3c0-1.18.83-1.48 1.97-1.48h2.24c1.15 0 1.63.3 1.63 1.5v3.04" clip-path="url(#aE)"/><path fill="#bcada0" d="M14 18.82s1.07 1.83 2.54 0c-1.72-.1-2.54 0-2.54 0" clip-path="url(#aE)"/><path fill="#554e46" d="M17.5 11.5c.13.23.33.4.44.63.1.22.1.48.1.72-.07-.16-.22-.22-.4-.18.03 0 .04.2.04.5 0 .4-.03.98-.06 1.08.08-.26-.36-1-.5-1.23-.16-.33-.47-.97-.92-1-.7-.02-1 .4-1 .4s-.96-.48-.97-.48c-.37-.2-1.26.7-1.66.55.05-.16.13-.3.25-.42-.06.02-.17 0-.24.03.07-1 .77-1.4 1.7-1.63 0-.2-.23-.2-.4-.18.34-.16 1.9-.25 2.03.1.44-.03.86.1 1.17.4.23.22.33.5.43.8.1.3.34.6.4.94.02.22 0 .5-.02.73-.07-.05-.15-.03-.23-.06 0 .3.06.65-.03.92" clip-path="url(#aE)"/><path fill="#5d8082" d="M46.08 10.07c0 .53-.43.96-.96.96H26.27c-.53 0-.96-.43-.96-.96v-.02c0-.54.44-.96.97-.96h18.85c.53 0 .96.42.96.95z" clip-path="url(#aE)"/><g fill="#808080"><path d="M40.88 13.72c0 .3-.25.56-.55.56H25.87c-.3 0-.56-.25-.56-.56v-.18c0-.3.26-.56.56-.56h14.47c.3 0 .55.25.55.55z" clip-path="url(#aE)"/><path d="M34.4 21.5c0 .32-.26.56-.56.56h-7.97c-.3 0-.56-.24-.56-.55v-.18c0-.3.26-.55.57-.55h7.97c.3 0 .55.25.55.55z" clip-path="url(#aE)"/><path d="M40.88 16.32c0 .3-.25.55-.55.55H25.87c-.3 0-.56-.25-.56-.56v-.17c0-.3.26-.56.56-.56h14.47c.3 0 .55.25.55.56z" clip-path="url(#aE)"/><path d="M47.37 18.9c0 .32-.25.57-.55.57H25.85c-.3 0-.55-.25-.55-.56v-.17c0-.3.26-.56.56-.56h20.95c.32 0 .57.25.57.56z" clip-path="url(#aE)"/><path d="M43.48 26.7c0 .3-.25.56-.56.56H9c-.3 0-.56-.25-.56-.56v-.2c0-.3.25-.54.55-.54H42.9c.3 0 .56.25.56.55z" clip-path="url(#aE)"/><path d="M48.67 29.94c0 .3-.25.56-.56.56H9c-.3 0-.56-.25-.56-.56v-.18c0-.3.25-.56.55-.56h39.1c.32 0 .57.25.57.56v.18z" clip-path="url(#aE)"/><path d="M48.67 33.2c0 .3-.25.54-.56.54H9c-.3 0-.56-.25-.56-.55V33c0-.3.25-.55.55-.55h39.1c.32 0 .57.25.57.55v.2z" clip-path="url(#aE)"/></g><path fill="#fff" d="M52.36 26.13l4.6 4.6-.92.9-4.6-4.6-.83 2.3-3.3-7.3 7.34 3.3z" clip-path="url(#aE)"/></g></svg><svg width="81" height="55" y="1356" viewBox="-5 -5 81 55.227" enable-background="new 0 0 71 45.227" transform="translate(0 .054)"><defs><path id="aF" d="M0 0h71v45.23H0z"/></defs><clipPath id="aG"><use width="100%" height="100%" overflow="visible" xlink:href="#aF"/></clipPath><path fill="#e6e6e6" d="M48.4 45.23c-12.48 0-22.63-10.15-22.63-22.62C25.77 10.15 35.92 0 48.4 0 60.85 0 71 10.14 71 22.6c0 12.48-10.14 22.63-22.6 22.63m0-43.74c-11.66 0-21.14 9.46-21.14 21.1 0 11.66 9.48 21.14 21.13 21.14 11.64 0 21.1-9.48 21.1-21.13 0-11.63-9.46-21.1-21.1-21.1" clip-path="url(#aG)"/><path fill="#bcada0" d="M45.35 22.18h5.2v6.7h-5.2z" clip-path="url(#aG)"/><path fill="#c6b5a5" d="M53.53 19c0 3-2.25 5.4-5 5.4H47.5c-2.76 0-5.12-2.4-5.12-5.4v-6.3c0-2.97 2.36-5.4 5.13-5.4h1.02c2.76 0 5 2.43 5 5.4z" clip-path="url(#aG)"/><path fill="#554e46" d="M48.44 9.62c-1.1 2.2-2.9 1.38-4.73 2.68-1.3.93-.98 2.46-1.32 4.5-.56-1.6-1.33-4.24-.56-6.22.66-1.72 1.55-2.52 3.26-3.16.95-.35 2.63-.75 3.38.15.86 1.03-.17 1.73-.4 2.72" clip-path="url(#aG)"/><path fill="#fff" d="M44.85 20.7s0-.34 0-.3c0 1.75 1.4 2.95 3.14 2.95 1.73 0 3.14-1.1 3.14-2.83 0-.05 0 .17 0 .17z" clip-path="url(#aG)"/><path fill="#c6ce67" d="M40.15 39.28v-7.96c0-3.1 2.15-3.94 5.14-3.94h5.84c3 0 4.62.84 4.62 3.94v7.96" clip-path="url(#aG)"/><path fill="#bcada0" d="M44.5 27.42s2.8 4.8 6.64 0c-4.5-.26-6.63 0-6.63 0" clip-path="url(#aG)"/><path fill="#554e46" d="M53.68 8.35c.3.57.8 1.03 1.1 1.62.3.57.28 1.24.26 1.88-.17-.42-.57-.6-1-.47.05-.02.07.55.07 1.27 0 1.12-.07 2.6-.16 2.86.23-.68-.94-2.6-1.26-3.2-.46-.9-1.27-2.56-2.44-2.6-1.8-.08-2.64 1-2.64 1s-2.48-1.23-2.5-1.23c-.96-.5-3.3 1.86-4.33 1.45.14-.4.35-.8.65-1.1-.16.05-.44.02-.63.1.17-2.67 2.02-3.67 4.47-4.3-.02-.55-.63-.5-1.1-.45.9-.4 4.94-.63 5.33.3 1.12-.1 2.2.2 3 1 .62.6.88 1.34 1.15 2.1.3.8.88 1.6 1 2.46.1.6.02 1.3 0 1.9-.2-.13-.42-.08-.62-.13-.04.74.16 1.66-.1 2.35" clip-path="url(#aG)"/><g fill="none" stroke="#808080" stroke-miterlimit="10"><path d="M47.2 15.86c0 .4-.32.74-.73.74h-3.72c-.4 0-.74-.33-.74-.74v-.74c0-.4.34-.75.75-.75h3.72c.4 0 .74.33.74.75z" clip-path="url(#aG)"/><path d="M53.9 15.86c0 .4-.33.74-.74.74h-3.72c-.4 0-.74-.33-.74-.74v-.74c0-.4.33-.75.74-.75h3.72c.4 0 .74.33.74.75z" clip-path="url(#aG)"/><path d="M47.2 15.48c.46-.47.94-.44 1.36-.08" clip-path="url(#aG)"/></g><path fill="#fff" d="M31.97 2.85v34.5L29.47 40l-3.76 3.74H.75V2.84z" clip-path="url(#aG)"/><path fill="#e6e6e6" d="M31.23 3.6v33.6l-2.2 2.72-3.48 3.82H.75V3.6zm.74-.75H0v41.63h25.86l3.7-4.04 2.4-2.95z" clip-path="url(#aG)"/><g fill="#b3b3b3"><path d="M18.53 8.8H6.3c-.12 0-.2-.27-.2-.38 0-.1.08-.37.2-.37h12.23c.1 0 .2.27.2.38 0 .1-.1.37-.2.37" clip-path="url(#aG)"/><path d="M25.41 12.52H6.3c-.12 0-.2-.27-.2-.38 0-.1.08-.37.2-.37h19.1c.12 0 .2.27.2.37 0 .1-.08.38-.2.38" clip-path="url(#aG)"/><path d="M18.53 16.23H6.3c-.12 0-.2-.26-.2-.37 0-.1.08-.37.2-.37h12.23c.1 0 .2.25.2.36 0 .1-.1.37-.2.37" clip-path="url(#aG)"/><path d="M18.53 33.33H6.3c-.12 0-.2-.27-.2-.37 0-.1.08-.37.2-.37h12.23c.1 0 .2.25.2.36 0 .1-.1.37-.2.37" clip-path="url(#aG)"/><path d="M28.13 28.13H6.3c-.12 0-.2-.27-.2-.38 0-.1.08-.37.2-.37h21.83c.1 0 .2.27.2.38 0 .1-.1.37-.2.37" clip-path="url(#aG)"/><path d="M25.41 20.7H6.3c-.12 0-.2-.27-.2-.38 0-.1.08-.37.2-.37h19.1c.12 0 .2.26.2.37 0 .1-.08.37-.2.37" clip-path="url(#aG)"/><path d="M25.41 24.4H6.3c-.12 0-.2-.26-.2-.36 0-.1.08-.37.2-.37h19.1c.12 0 .2.26.2.37 0 .1-.08.37-.2.37" clip-path="url(#aG)"/></g><path fill="#86b028" d="M32.1 37.8l-6.24 6.3-.06-6.3z" clip-path="url(#aG)"/><path fill="#e6e6e6" d="M30.85 3.35v34.5z" clip-path="url(#aG)"/><path fill="none" stroke="#e6e6e6" stroke-miterlimit="10" d="M30.85 3.35v34.5z" clip-path="url(#aG)"/><path fill="#e6e6e6" d="M25.56 41.88H.74z" clip-path="url(#aG)"/><path fill="none" stroke="#e6e6e6" stroke-miterlimit="10" d="M25.56 41.88H.74z" clip-path="url(#aG)"/><g fill="#ccc"><path d="M28.62 17.97c0 .34-.27.62-.62.62-.34 0-.62-.3-.62-.63 0-.35.28-.62.62-.62.35 0 .62.27.62.62" clip-path="url(#aG)"/><path d="M34.57 17.97c0 .34-.28.62-.62.62-.34 0-.62-.3-.62-.63 0-.35.28-.62.62-.62.34 0 .62.27.62.62" clip-path="url(#aG)"/><path d="M36.8 17.97c0 .34-.28.62-.62.62-.34 0-.62-.3-.62-.63 0-.35.28-.62.62-.62.34 0 .62.27.62.62" clip-path="url(#aG)"/><path d="M39.03 17.97c0 .34-.28.62-.62.62-.33 0-.6-.3-.6-.63 0-.35.27-.62.6-.62.35 0 .63.27.63.62" clip-path="url(#aG)"/><path d="M41.26 17.97c0 .34-.27.62-.62.62-.34 0-.62-.3-.62-.63 0-.35.28-.62.62-.62.34 0 .62.27.62.62" clip-path="url(#aG)"/></g></svg><svg width="53" height="68" y="1411" viewBox="-5 -5 53.188 68" enable-background="new 0 0 43.188 58" transform="translate(0 .054)"><path fill="#fff" d="M43 2v46.4l-3.37 3.57L34.59 57H1V2z"/><path fill="#e6e6e6" d="M1 3h41v45.2l-2.95 3.66L34.37 57H1zM0 2v56h34.78l4.97-5.43L43 48.6V2z"/><path fill="#86b028" d="M43.2 49h-8.5l.08 8.5z"/><g fill="#f9b253"><path d="M16.3 13.98l3.04-.44 1.36-2.76 1.37 2.76 3.04.44-2.2 2.15.53 3.03-2.73-1.43-2.72 1.43.52-3.03z"/><path d="M27.58 19.26l2.15-.3.96-1.95.95 1.95 2.15.3-1.55 1.53.36 2.14-1.9-1-1.93 1 .37-2.14z"/><path d="M9.03 19.26l2.15-.3.96-1.95.96 1.95 2.14.3-1.55 1.53.36 2.14-1.92-1-1.92 1 .36-2.14z"/><path d="M4.77 26.22l1.45-.2.64-1.32.65 1.3 1.46.22-1.05 1.02.26 1.45-1.3-.7-1.3.7.26-1.46z"/><path d="M34.1 25.97l1.45-.2.65-1.32.65 1.3 1.45.22L37.25 27l.25 1.43-1.3-.68-1.3.68.25-1.44z"/></g><defs><path id="aH" d="M0 0h43.2v58H0z"/></defs><clipPath id="aI"><use width="100%" height="100%" overflow="visible" xlink:href="#aH"/></clipPath><path fill="#f69f1c" d="M24.13 39.22c-.3 0-.56-.14-.73-.38-.6-.9.34-3.47.77-4.54l.13-.3h3.43l-.1.56c0 .13-.53 3.28-2.8 4.46-.25.14-.5.2-.7.2m0-1v.5zm.85-3.22c-.54 1-.87 2.78-.77 3.2.05 0 .1 0 .18-.05 1.3-.68 1.9-2.15 2.13-3.15z" clip-path="url(#aI)"/><path fill="#f69f1c" d="M16.56 39c-2.26-1.17-2.77-4.3-2.8-4.44L13.7 34h3.43l.13.3c.44 1.07 1.38 3.65.77 4.55-.17.24-.42.37-.73.37-.2 0-.44-.07-.7-.2m.7-.8v.5zM14.9 35c.22 1 .82 2.46 2.13 3.14.07.04.13.07.16.08.1-.43-.24-2.22-.77-3.22z" clip-path="url(#aI)"/><path fill="#f9b253" d="M25 31v6.6c0 2.42-2.08 4.4-4.5 4.4S16 40 16 37.6V31" clip-path="url(#aI)"/><path fill="#f9b253" d="M19 41h3v4h-3z" clip-path="url(#aI)"/><path fill="#f69f1c" d="M16 31h9v1h-9z" clip-path="url(#aI)"/><path fill="#f69f1c" d="M24 45.5c0 .28-.22.5-.5.5h-6c-.28 0-.5-.22-.5-.5s.22-.5.5-.5h6c.28 0 .5.22.5.5" clip-path="url(#aI)"/><path fill="#e6e6e6" d="M41.5 2.67v46.4z" clip-path="url(#aI)"/><path fill="none" stroke="#e6e6e6" stroke-miterlimit="10" d="M41.5 2.67v46.4z" clip-path="url(#aI)"/><path fill="#e6e6e6" d="M34.38 54.5H1z" clip-path="url(#aI)"/><path fill="none" stroke="#e6e6e6" stroke-miterlimit="10" d="M34.38 54.5H1z" clip-path="url(#aI)"/><path fill="#f9b253" d="M2 14.5V0h7v14.5l-3.5-2.7z" clip-path="url(#aI)"/><path fill="#fff" d="M3.2 6.6l1.56-.22.7-1.4.7 1.4 1.54.23L6.6 7.7l.27 1.55-1.4-.73-1.38.73.26-1.55z" clip-path="url(#aI)"/></svg><svg width="76" height="71" y="1479" viewBox="-5 -5 76 70.632" enable-background="new 0 0 66 60.632" transform="translate(0 .054)"><defs><path id="aJ" d="M0 0h66v60.63H0z"/></defs><clipPath id="aK"><use width="100%" height="100%" overflow="visible" xlink:href="#aJ"/></clipPath><g clip-path="url(#aK)"><defs><path id="aL" d="M0 0h66v60.63H0z"/></defs><clipPath id="aM"><use width="100%" height="100%" overflow="visible" xlink:href="#aL"/></clipPath><g fill="#b3b3b3"><path d="M37.13 21.83h-13.3c-.13 0-.22-.3-.22-.4 0-.12.1-.4.22-.4h13.3c.12 0 .2.28.2.4 0 .1-.08.4-.2.4" clip-path="url(#aM)"/><path d="M44.6 25.87H23.83c-.12 0-.2-.3-.2-.4 0-.12.08-.4.2-.4h20.8c.1 0 .2.28.2.4 0 .1-.1.4-.2.4" clip-path="url(#aM)"/><path d="M37.13 29.9h-13.3c-.13 0-.22-.28-.22-.4 0-.1.1-.4.22-.4h13.3c.12 0 .2.3.2.4 0 .12-.08.4-.2.4" clip-path="url(#aM)"/><path d="M37.13 48.5h-13.3c-.13 0-.22-.28-.22-.4 0-.1.1-.4.22-.4h13.3c.12 0 .2.3.2.4 0 .12-.08.4-.2.4" clip-path="url(#aM)"/><path d="M44.6 34.76H23.83c-.12 0-.2-.3-.2-.4 0-.12.08-.4.2-.4h20.8c.1 0 .2.28.2.4 0 .1-.1.4-.2.4" clip-path="url(#aM)"/><path d="M44.6 38.8H23.83c-.12 0-.2-.28-.2-.4 0-.1.08-.4.2-.4h20.8c.1 0 .2.3.2.4 0 .1-.1.4-.2.4" clip-path="url(#aM)"/></g><path fill="#fff" d="M34.76 12.13v37.5l-2.72 2.9-4.1 4.06H.82V12.12z" clip-path="url(#aM)"/><path fill="#e6e6e6" d="M33.95 12.94v36.53l-2.4 2.96-3.76 4.16H.8V12.93zm.8-.8H0V57.4h28.12l4-4.4 2.64-3.2z" clip-path="url(#aM)"/><g fill="#b3b3b3"><path d="M20.15 18.6H6.85c-.13 0-.22-.3-.22-.4 0-.12.1-.4.2-.4h13.32c.1 0 .2.28.2.4 0 .1-.1.4-.2.4" clip-path="url(#aM)"/><path d="M27.64 22.64H6.84c-.12 0-.2-.3-.2-.4 0-.12.08-.4.2-.4h20.8c.1 0 .2.28.2.4 0 .1-.1.4-.2.4" clip-path="url(#aM)"/><path d="M20.15 26.68H6.85c-.13 0-.22-.3-.22-.4 0-.12.1-.4.2-.4h13.32c.1 0 .2.28.2.4 0 .1-.1.4-.2.4" clip-path="url(#aM)"/><path d="M20.15 45.27H6.85c-.13 0-.22-.3-.22-.4 0-.12.1-.4.2-.4h13.32c.1 0 .2.28.2.4 0 .1-.1.4-.2.4" clip-path="url(#aM)"/><path d="M30.58 39.6H6.84c-.12 0-.2-.28-.2-.4 0-.1.08-.4.2-.4h23.74c.12 0 .2.3.2.4 0 .12-.08.4-.2.4" clip-path="url(#aM)"/><path d="M27.64 31.53H6.84c-.12 0-.2-.3-.2-.4 0-.12.08-.4.2-.4h20.8c.1 0 .2.28.2.4 0 .1-.1.4-.2.4" clip-path="url(#aM)"/><path d="M27.64 35.57H6.84c-.12 0-.2-.3-.2-.4 0-.12.08-.4.2-.4h20.8c.1 0 .2.28.2.4 0 .1-.1.4-.2.4" clip-path="url(#aM)"/></g><path fill="#86b028" d="M34.9 50.12L28.13 57l-.07-6.88z" clip-path="url(#aM)"/><path fill="#e6e6e6" d="M33.55 12.66v37.52z" clip-path="url(#aM)"/><path fill="none" stroke="#e6e6e6" stroke-miterlimit="10" d="M33.55 12.66v37.52z" clip-path="url(#aM)"/><path fill="#e6e6e6" d="M27.8 54.57H.8z" clip-path="url(#aM)"/><path fill="none" stroke="#e6e6e6" stroke-miterlimit="10" d="M27.8 54.57H.8z" clip-path="url(#aM)"/><path fill="#fff" d="M45.27 3.23v37.5l-2.72 2.9-4.1 4.07H11.33V3.23z" clip-path="url(#aM)"/><path fill="#e6e6e6" d="M44.46 4.04v36.54l-2.4 2.96-3.76 4.16H11.32V4.04zm.8-.8H10.52V48.5h28.13l4-4.4 2.64-3.2V3.23z" clip-path="url(#aM)"/><g fill="#b3b3b3"><path d="M30.66 9.7h-13.3c-.13 0-.22-.3-.22-.4 0-.12.1-.4.2-.4h13.32c.1 0 .2.28.2.4 0 .1-.1.4-.2.4" clip-path="url(#aM)"/><path d="M38.15 13.74h-20.8c-.12 0-.2-.3-.2-.4 0-.1.08-.4.2-.4h20.8c.1 0 .2.3.2.4 0 .1-.1.4-.2.4" clip-path="url(#aM)"/><path d="M30.66 17.79h-13.3c-.13-.02-.22-.3-.22-.42 0-.1.1-.4.2-.4h13.32c.1 0 .2.3.2.4 0 .12-.1.4-.2.4" clip-path="url(#aM)"/><path d="M30.66 36.38h-13.3c-.13 0-.22-.3-.22-.4 0-.12.1-.4.2-.4h13.32c.1 0 .2.28.2.4 0 .1-.1.4-.2.4" clip-path="url(#aM)"/><path d="M41.1 30.72H17.34c-.12 0-.2-.3-.2-.4 0-.12.08-.4.2-.4H41.1c.1 0 .2.28.2.4 0 .1-.1.4-.2.4" clip-path="url(#aM)"/><path d="M38.15 22.64h-20.8c-.12 0-.2-.3-.2-.4 0-.12.08-.4.2-.4h20.8c.1 0 .2.28.2.4 0 .1-.1.4-.2.4" clip-path="url(#aM)"/><path d="M38.15 26.68h-20.8c-.12 0-.2-.3-.2-.4 0-.12.08-.4.2-.4h20.8c.1 0 .2.28.2.4 0 .1-.1.4-.2.4" clip-path="url(#aM)"/></g><path fill="#86b028" d="M45.42 41.23l-6.8 6.86-.06-6.87z" clip-path="url(#aM)"/><path fill="#e6e6e6" d="M44.06 3.77v37.5z" clip-path="url(#aM)"/><path fill="none" stroke="#e6e6e6" stroke-miterlimit="10" d="M44.06 3.77v37.5z" clip-path="url(#aM)"/><path fill="#e6e6e6" d="M38.3 45.68H11.32z" clip-path="url(#aM)"/><path fill="none" stroke="#e6e6e6" stroke-miterlimit="10" d="M38.3 45.68H11.32z" clip-path="url(#aM)"/><path fill="#f9b253" d="M14.55 14.15V2.43h5.66v11.72l-2.82-2.2z" clip-path="url(#aM)"/><path fill="#fff" d="M15.53 7.76l1.25-.18.57-1.13.56 1.13 1.26.18-.9.9.2 1.24-1.1-.6-1.14.6.22-1.25z" clip-path="url(#aM)"/><path fill="#0e7fab" d="M51 21.53c-1.23 4.44-5.3 7.7-10.1 7.7-5.78 0-10.48-4.7-10.48-10.47C30.42 13 35.12 8.3 40.9 8.3c3.98 0 7.45 2.23 9.22 5.5l2.42-2.23c-2.42-3.9-6.73-6.52-11.65-6.52-7.57 0-13.72 6.15-13.72 13.7 0 7.57 6.15 13.72 13.7 13.72 7.57 0 13.72-6.15 13.72-13.7 0-.22-.02-.43-.03-.64z" clip-path="url(#aM)"/><path fill="#0e7fab" d="M65.53 40.94c.63.63.62 1.65 0 2.28l-.6.57c-.62.62-1.64.6-2.27-.02L48.46 29.4c-.63-.64-.63-1.66 0-2.3l.58-.56c.64-.62 1.66-.62 2.3.02z" clip-path="url(#aM)"/><path fill="none" stroke="#0e7fab" stroke-miterlimit="10" d="M33.64 15.56c-2.06 5.4 3.5 12.48 9.2 10.43" clip-path="url(#aM)" stroke-linecap="round" stroke-linejoin="round"/><path fill="#7cb149" d="M46.42 23.38c-.44 0-.88-.17-1.2-.52l-6.14-6.7c-.6-.66-.56-1.68.1-2.28.65-.6 1.68-.56 2.28.1l6.15 6.7c.6.65.57 1.67-.1 2.28-.3.28-.7.42-1.08.42" clip-path="url(#aM)"/><path fill="#7cb149" d="M46.42 23.38c-.42 0-.83-.16-1.15-.47-.63-.62-.63-1.65 0-2.28L58.13 7.77c.63-.63 1.65-.63 2.28 0 .65.63.65 1.65 0 2.28L47.57 22.9c-.32.33-.73.48-1.14.48" clip-path="url(#aM)"/></g></svg><svg width="42" height="42" y="1550" viewBox="-5 -5 41.902 42.083" enable-background="new 0 0 31.902 32.083" transform="translate(0 .054)"><defs><path id="aN" d="M0 0h31.9v32.08H0z"/></defs><clipPath id="aO"><use width="100%" height="100%" overflow="visible" xlink:href="#aN"/></clipPath><path fill="#7cb149" d="M4.73 0C4.33 0 4 .33 4 .73V18.3c0 .4.33.72.73.72h26.34c.4 0 .73-.33.73-.73V.72c0-.4-.32-.73-.73-.73zm23.42 13.17c0 .4-.33.73-.74.73h-19c-.4 0-.74-.33-.74-.73v-.73c0-.4.33-.73.73-.73h19c.42 0 .75.34.75.74zm0-3.66c0 .42-.33.74-.74.74h-19c-.4 0-.74-.33-.74-.73V8.8c0-.4.33-.73.73-.73h19c.42 0 .75.33.75.73zm0-3.65c0 .4-.33.74-.74.74h-19c-.4 0-.74-.34-.74-.75v-.73c0-.4.33-.73.73-.73h19c.42 0 .75.32.75.72z" clip-path="url(#aO)"/><path fill="#7cb149" d="M24.6 17.6l7.3-.18v5z" clip-path="url(#aO)"/><path fill="#5d8082" d="M.73 16.98c-.4 0-.73.33-.73.73v11c0 .4.33.74.73.74h16.44c.4 0 .73-.33.73-.73V17.73c0-.4-.33-.74-.73-.74H.73zm15.08 8.4c0 .38-.32.7-.72.7H3.13c-.4 0-.73-.32-.73-.7 0-.4.33-.73.73-.73h11.95c.4 0 .73.32.73.72m0-2.4c0 .4-.32.72-.72.72H3.13c-.4 0-.73-.33-.73-.73 0-.4.33-.72.73-.72h11.95c.4 0 .73.33.73.72m0-2.4c0 .4-.32.73-.72.73H3.13c-.4 0-.73-.33-.73-.72 0-.4.33-.72.73-.72h11.95c.4 0 .73.32.73.72" clip-path="url(#aO)"/><path fill="#5d8082" d="M12.87 28.43l5.03-.26v3.9z" clip-path="url(#aO)"/></svg><svg width="63" height="63" y="1592" viewBox="-5 -5 63 63" enable-background="new 0 0 53 53" transform="translate(0 .054)"><g><path fill="#5d8082" d="M26.93.72C36.6 7.2 49.5 8.34 49.5 8.34S50.1 36 26.93 52.92C3.77 36 4.35 8.34 4.35 8.34S17.25 7.2 26.93.7"/><path fill="#c6ce67" d="M26.93 47.2C13.13 35.53 9.86 19.4 9.1 12.18c4.4-.8 11.43-2.57 17.83-6.2 6.4 3.63 13.43 5.4 17.83 6.2-.76 7.22-4 23.35-17.83 35.02"/><path fill="#fff" d="M18.8 38.36l21.76-9.9s1.8-3.64 3.35-10.87L14.15 30.33s2.65 5.7 4.67 8.02z" enable-background="new" opacity=".3"/><g><g><path fill-opacity=".119" d="M49.5 8.46S36.6 7.32 26.93.84v52.2C50.1 36.1 49.5 8.46 49.5 8.46"/></g></g></g></svg><g><path fill="none" stroke="#0b80ac" stroke-width=".75438" stroke-miterlimit="10" d="M49.95 1673.53h21.97" stroke-linecap="round" stroke-linejoin="round"/><path fill="#b3b2b3" d="M60.92 1657.7c-21.46 0-39 17.53-39 39 0 21.46 17.54 39 39 39 21.47 0 39-17.54 39-39 0-21.47-17.53-39-39-39m0 75.98c-20.35 0-36.98-16.62-36.98-36.98 0-20.36 16.63-37 36.98-37 20.36 0 37 16.64 37 37s-16.64 36.98-37 36.98"/><path fill="none" stroke="#0b80ac" stroke-width="1.5125700000000002" stroke-miterlimit="10" d="M77.7 1674.2c-1.77-.82-4.16-.37-5.7.1.1-1.66.1-2.7.1-2.7H49.5s0 1.08.1 2.77c-1.52-.48-4.1-1.04-5.96-.18-2.96 1.35-3.42 6.08-1.07 11.25 2.3 5.06 6.16 7.53 11.82 7.53.03 0 .84-.1.9-.1 1.78 1.9 3.45 2.7 3.45 4.26v5.83h4.1v-5.83c0-1.57 1.68-2.4 3.48-4.28.28.05.6.12.6.12 5.67 0 9.54-2.47 11.83-7.53 2.34-5.17 1.9-9.9-1.07-11.26zm-32.38 10c-1.73-3.83-1.4-6.8-.42-7.26 1.04-.48 3.7.38 5.03.94.4 3.45 1.2 7.7 2.75 11.16.14.3.28.58.43.85-3.74-.32-6.16-2.12-7.78-5.7zm30.7 0c-1.6 3.5-3.93 5.3-7.52 5.68.14-.27.28-.55.42-.84 1.6-3.54 2.4-7.96 2.78-11.46 1.34-.55 3.7-1.1 4.73-.64 1 .45 1.3 3.43-.42 7.26z" stroke-linecap="round" stroke-linejoin="round"/><path fill="#fff" d="M62.9 1699.78h-4.18c-.77 0-1.4-.64-1.4-1.42 0-.78.63-1.4 1.4-1.4h4.18c.78 0 1.42.62 1.42 1.4 0 .78-.64 1.42-1.42 1.42"/><path fill="none" stroke="#0b80ac" stroke-width="1.5125700000000002" stroke-miterlimit="10" d="M62.9 1699.78h-4.18c-.77 0-1.4-.64-1.4-1.42 0-.78.63-1.4 1.4-1.4h4.18c.78 0 1.42.62 1.42 1.4 0 .78-.64 1.42-1.42 1.42z" stroke-linecap="round" stroke-linejoin="round"/><path fill="none" stroke="#0b80ac" stroke-width="1.5125700000000002" stroke-miterlimit="10" d="M52.6 1705.77h16.54v3.88H52.6z" stroke-linecap="round" stroke-linejoin="round"/><path fill="none" stroke="#0b80ac" stroke-width="1.5125700000000002" stroke-miterlimit="10" d="M55.6 1702.97h10.8v2.8H55.6z" stroke-linecap="round" stroke-linejoin="round"/><path fill="none" stroke="#7bb047" stroke-width=".75438" stroke-miterlimit="10" d="M52.6 1676.35s-.17 12.52 7.38 16.85" stroke-linecap="round" stroke-linejoin="round"/><path fill="#7baf48" d="M20 1713.6h81.43v13.1H20z"/><path fill="#7baf48" d="M20.04 1728.74v-10.08h-14l4.32 5.14-4.33 4.94z"/><g enable-background="new" opacity=".3"><g transform="matrix(1.009 0 0 1.009 -113.286 1569.511)"><defs><path d="M130.28 147.98h2v10h-2z"/></defs><clipPath><use width="100%" height="100%" xlink:href="#SVGID_1_" overflow="visible"/></clipPath><g clip-path="url(#aP)"><defs><path d="M130.28 147.98h2v10h-2z"/></defs><clipPath><use width="100%" height="100%" xlink:href="#SVGID_3_" overflow="visible"/></clipPath><path fill="#5d833a" d="M130.28 147.98h2v10h-2z" clip-path="url(#aQ)"/></g></g></g><path fill="#7baf48" d="M101.6 1728.74v-10.08h14.3l-4.33 5.14 4.33 4.94z"/><path fill="#5d833a" d="M101.6 1728.74l-1.02-2h1z"/><g enable-background="new" opacity=".3"><g transform="matrix(1.009 0 0 1.009 -113.286 1569.511)"><defs><path d="M213.18 147.98h2v10h-2z"/></defs><clipPath><use width="100%" height="100%" xlink:href="#SVGID_5_" overflow="visible"/></clipPath><g clip-path="url(#aR)"><defs><path d="M213.18 147.98h2v10h-2z"/></defs><clipPath><use width="100%" height="100%" xlink:href="#SVGID_7_" overflow="visible"/></clipPath><path fill="#5d833a" d="M213.18 147.98h2v10h-2z" clip-path="url(#aS)"/></g></g></g><g fill="#fff"><path d="M40.75 1718.5h-.02l-1.25.6-.25-1.14 1.73-.8h1.27v6.54h-1.48v-5.2z"/><path d="M49.6 1720.4c0 2.02-.8 3.4-2.48 3.4-1.7 0-2.44-1.5-2.45-3.36 0-1.9.8-3.4 2.5-3.4 1.75 0 2.44 1.56 2.44 3.36zm-3.4.04c0 1.5.37 2.2.96 2.2.6 0 .92-.73.92-2.22 0-1.45-.32-2.22-.93-2.22-.56 0-.95.72-.94 2.24z"/><path d="M54.58 1723.7v-2.78l-2.15-4h1.76l.68 1.62c.2.5.35.86.52 1.3h.03c.15-.42.3-.8.5-1.3l.7-1.63h1.72l-2.24 3.97v2.83z"/><path d="M63.32 1720.83h-2.5v1.6h2.8v1.27h-4.34v-6.8h4.2v1.27H60.8v1.4h2.5v1.26z"/><path d="M66.62 1721.96l-.48 1.74h-1.6l2.08-6.8h2.02l2.1 6.8H69.1l-.53-1.74zm1.73-1.15l-.43-1.43c-.12-.4-.24-.9-.34-1.3h-.02c-.1.4-.2.9-.3 1.3l-.4 1.44z"/><path d="M72.04 1717c.5-.08 1.23-.14 2.04-.14 1 0 1.72.15 2.2.53.4.32.63.8.63 1.4 0 .88-.6 1.47-1.2 1.7v.02c.48.2.74.64.9 1.27.22.75.44 1.64.57 1.9H75.6c-.12-.2-.28-.75-.48-1.58-.18-.85-.47-1.08-1.1-1.1h-.46v2.68h-1.52v-6.7zm1.52 2.92h.6c.77 0 1.22-.38 1.22-.97 0-.63-.42-.94-1.13-.95-.37 0-.58.03-.7.05z"/><path d="M78.45 1722.12c.4.2 1.05.42 1.7.42.7 0 1.08-.3 1.08-.73 0-.42-.32-.66-1.14-.95-1.14-.4-1.87-1.02-1.87-2 0-1.16.96-2.05 2.57-2.05.76 0 1.33.16 1.73.34l-.34 1.24c-.3-.13-.77-.32-1.43-.32-.67 0-1 .3-1 .66 0 .43.4.62 1.27.95 1.2.45 1.76 1.07 1.76 2.03 0 1.14-.87 2.1-2.74 2.1-.77 0-1.54-.2-1.92-.4z"/></g></g><g><g transform="matrix(1.008 0 0 1.008 -15.069 1737.947)"><path fill="none" stroke="#0980ad" stroke-width="1.5" stroke-miterlimit="10" d="M63.18 54.02h-26.9c-1.55 0-2.83-1.27-2.83-2.83V30.06c0-1.56 1.28-2.84 2.84-2.84h26.88c1.56 0 2.84 1.28 2.84 2.84V51.2c0 1.55-1.28 2.82-2.84 2.82z" stroke-linecap="round" stroke-linejoin="round"/><path fill="#fff" d="M46.46 31.2c0 5.1-4.13 9.23-9.23 9.23-5.1 0-9.23-4.14-9.23-9.23 0-5.1 4.13-9.23 9.23-9.23 5.1 0 9.23 4.13 9.23 9.23"/><circle cx="37.228" cy="31.196" r="9.231" fill="none" stroke="#7baf48" stroke-width="1.5" stroke-miterlimit="10" stroke-linecap="round" stroke-linejoin="round"/><path fill="none" stroke="#7baf48" stroke-width="1.5" stroke-miterlimit="10" d="M37.23 24.88v6.3l3.98 3.78" stroke-linecap="round" stroke-linejoin="round"/><circle cx="71.318" cy="54.565" r="4.896" fill="none" stroke="#0980ad" stroke-width="1.5" stroke-miterlimit="10" stroke-linecap="round" stroke-linejoin="round"/><circle cx="71.318" cy="54.565" r="1.88" fill="none" stroke="#0980ad" stroke-width="1.5" stroke-miterlimit="10" stroke-linecap="round" stroke-linejoin="round"/><path fill="none" stroke="#0980ad" stroke-width="1.5" stroke-miterlimit="10" d="M76.15 53.8h1.77c.83 0 1.4-.12 1.4-1.6v-6.46c0-2.4-1.17-4.17-4.67-4.17h-8.63" stroke-linecap="round" stroke-linejoin="round"/><path fill="none" stroke="#0980ad" stroke-width="1.5" stroke-miterlimit="10" d="M66.02 34.74h7.2c1.08 0 1.78-.06 1.78-1.1 0-1.05-.84-2.35-3.97-2.35h-5" stroke-linecap="round" stroke-linejoin="round"/><path fill="none" stroke="#0980ad" stroke-width="1.5" stroke-miterlimit="10" d="M76.2 41.8l-1.9-6.9" stroke-linecap="round" stroke-linejoin="round"/><path fill="none" stroke="#0980ad" stroke-width="1.5" stroke-miterlimit="10" d="M79.3 44.84h-3.1c-.8 0-.94-.07-.94 1.15v1.2c0 1.27 1.02 1.53 2.02 1.53h2.03" stroke-linecap="round" stroke-linejoin="round"/><path fill="none" stroke="#faa831" stroke-width=".75" stroke-miterlimit="10" d="M63.1 49.92H49.87" stroke-linecap="round" stroke-linejoin="round"/><path fill="none" stroke="#faa831" stroke-width=".75" stroke-miterlimit="10" d="M43.06 46.8H31.45" stroke-linecap="round" stroke-linejoin="round"/><path fill="none" stroke="#faa831" stroke-width=".75" stroke-miterlimit="10" d="M38.5 49.26h-8.4" stroke-linecap="round" stroke-linejoin="round"/><path fill="#fff" d="M48.67 54.56c0 2.7-2.2 4.9-4.9 4.9s-4.9-2.2-4.9-4.9 2.2-4.9 4.9-4.9 4.9 2.2 4.9 4.9"/><circle cx="43.772" cy="54.565" r="4.897" fill="none" stroke="#0980ad" stroke-width="1.5" stroke-miterlimit="10" stroke-linecap="round" stroke-linejoin="round"/><circle cx="43.772" cy="54.565" r="1.88" fill="none" stroke="#0980ad" stroke-width="1.5" stroke-miterlimit="10" stroke-linecap="round" stroke-linejoin="round"/></g><path fill="#b3b2b3" d="M45 1739.98c-21.46 0-39 17.54-39 39 0 21.48 17.54 39.02 39 39.02 21.5 0 39.02-17.54 39.02-39.02 0-21.46-17.53-39-39-39m0 76c-20.37 0-37-16.63-37-37 0-20.36 16.63-37 37-37 20.36 0 37 16.64 37 37 0 20.37-16.64 37-37 37"/></g><g><g><g transform="translate(-5.172 1737.384)"><path fill="#faa832" d="M49.74 94.77l1.6 3.2 3.5.5-2.6 2.5.6 3.5-3.1-1.7-3.2 1.7.6-3.5-2.5-2.5 3.5-.5z"/><path fill="#faa832" d="M38.34 97.17l1.2 2.4 2.5.3-1.8 1.9.4 2.5-2.3-1.2-2.3 1.2.5-2.5-1.9-1.9 2.6-.3z"/><path fill="#faa832" d="M61.34 97.17l1.2 2.4 2.5.3-1.8 1.9.4 2.5-2.3-1.2-2.3 1.2.5-2.5-1.9-1.9 2.6-.3z"/><path fill="none" stroke="#7baf48" stroke-width="1.5" stroke-miterlimit="10" d="M58.1 138.2c-.12.1-.23.2-.32.3L56.7 140c-.4.53-1.05.8-1.7.7l-1.83-.3c-.1 0-.22.02-.33.02l-1.02.43 5.5 12.27 2.6-3.74 4.54.54-5.43-12.1z" stroke-linecap="round" stroke-linejoin="round"/><path fill="none" stroke="#7baf48" stroke-width="1.5" stroke-miterlimit="10" d="M46.53 140.4l-1.82.3c-.65.1-1.3-.17-1.7-.7l-1.08-1.5c-.1-.12-.2-.22-.33-.3l-.9-.4-5.43 12.12 4.53-.54 2.6 3.74 5.5-12.27-1-.43c-.12 0-.24-.03-.37 0z" stroke-linecap="round" stroke-linejoin="round"/><path fill="#0a7fab" d="M66.5 126.72l-.95 1.58c-.22.35-.3.78-.24 1.2l.3 1.82c.1.65-.17 1.3-.7 1.7l-1.5 1.08c-.34.25-.58.6-.68 1l-.43 1.8c-.17.66-.67 1.16-1.3 1.3l-1.8.45c-.42.1-.78.34-1.02.67l-1.1 1.5c-.38.53-1.04.8-1.7.7l-1.82-.28c-.4-.07-.83.02-1.2.23l-1.57.97c-.57.34-1.28.34-1.85 0l-1.58-.97c-.35-.22-.78-.3-1.2-.23l-1.82.28c-.65.1-1.3-.17-1.7-.7l-1.08-1.5c-.25-.33-.6-.58-1.02-.67l-1.8-.44c-.64-.14-1.14-.65-1.3-1.3l-.43-1.8c-.1-.4-.34-.75-.68-1l-1.5-1.08c-.53-.4-.8-1.05-.7-1.7l.3-1.83c.06-.42-.03-.85-.24-1.2l-.97-1.58c-.34-.57-.34-1.28 0-1.84l.97-1.58c.2-.36.3-.78.23-1.2l-.28-1.82c-.1-.65.16-1.3.7-1.7l1.5-1.1c.33-.23.57-.6.67-1l.44-1.8c.15-.64.65-1.14 1.3-1.3l1.8-.43c.4-.1.76-.34 1-.68l1.1-1.5c.38-.53 1.04-.8 1.7-.7l1.82.3c.4.05.83-.03 1.2-.25l1.57-.96c.57-.34 1.27-.34 1.84 0l1.57.96c.36.22.78.3 1.2.24l1.82-.3c.64-.1 1.3.18 1.7.72l1.07 1.5c.25.33.6.57 1.02.67l1.8.43c.63.16 1.13.66 1.3 1.3l.42 1.8c.1.4.34.77.68 1l1.5 1.1c.53.4.8 1.05.7 1.7l-.3 1.83c-.05.42.03.84.25 1.2l.96 1.58c.35.56.35 1.27 0 1.84"/><path fill="#fff" d="M49.87 112.45c7.37 0 13.35 5.98 13.35 13.35 0 7.37-5.98 13.35-13.35 13.35-7.37 0-13.35-5.98-13.35-13.35 0-7.37 5.98-13.35 13.35-13.35"/><path fill="none" stroke="#7baf48" stroke-width="1.5" stroke-miterlimit="10" d="M49.87 130.9l-4.23 2.37c-.44.25-.97-.13-.87-.63l.95-4.76-3.57-3.3c-.37-.33-.17-.95.34-1l4.8-.58 2.03-4.4c.22-.47.87-.47 1.08 0l2.04 4.4 4.82.57c.5.06.7.68.33 1.02l-3.57 3.28.94 4.76c.1.5-.43.88-.87.63z" stroke-linecap="round" stroke-linejoin="round"/><circle cx="49.872" cy="125.798" r="12.087" fill="none" stroke="#7baf48" stroke-width=".75" stroke-miterlimit="10" stroke-linecap="round" stroke-linejoin="round"/></g><path fill="#b3b2b3" d="M44.7 1822.63c-21.3 0-38.7 17.4-38.7 38.7 0 21.3 17.4 38.7 38.7 38.7 21.3 0 38.7-17.4 38.7-38.7 0-21.3-17.4-38.7-38.7-38.7m0 75.4c-20.2 0-36.7-16.5-36.7-36.7 0-20.2 16.5-36.7 36.7-36.7 20.2 0 36.7 16.5 36.7 36.7 0 20.2-16.5 36.7-36.7 36.7"/></g></g></g></svg>