<?xml version="1.0" encoding="iso-8859-1"?>
<!-- Generator: Adobe Illustrator 19.0.0, SVG Export Plug-In . SVG Version: 6.00 Build 0)  -->
<svg version="1.1" id="Capa_1" xmlns="http://www.w3.org/2000/svg" xmlns:xlink="http://www.w3.org/1999/xlink" x="0px" y="0px"
	 viewBox="0 0 506.334 506.334" style="enable-background:new 0 0 506.334 506.334;" xml:space="preserve">
<path style="fill:#F3F3F3;" d="M500.785,306.71l-283.733-58.667c-1.067,0-3.2,0-4.267,0L26.119,322.71
	c-6.4,2.133-5.333,11.733,1.067,12.8l283.733,78.933c2.133,0,3.2,0,5.333,0l186.667-93.867
	C508.252,317.377,507.185,307.777,500.785,306.71z"/>
<polygon style="fill:#F3705A;" points="399.452,318.444 289.585,374.977 309.852,381.377 337.585,367.51 422.919,323.777 "/>
<polygon style="fill:#66C6B9;" points="319.452,335.51 256.519,366.444 234.119,360.044 295.985,330.177 "/>
<polygon style="fill:#ADB3BA;" points="231.985,284.31 125.319,330.177 148.785,336.577 257.585,289.644 "/>
<path style="fill:#CED6E0;" d="M22.919,254.444c0,0,10.667,18.133,17.067,22.4s16,7.467,16,7.467s37.333-90.667,27.733-112
	s-11.733-21.333-11.733-21.333L22.919,254.444z"/>
<path style="fill:#FFD15C;" d="M301.319,182.977c12.8,1.067,20.267,10.667,20.267,22.4s0,21.333,0,21.333l8.533,23.467l-52.267-28.8
	l-33.067-45.867C266.119,177.644,292.785,181.91,301.319,182.977z"/>
<path style="fill:#F7B64C;" d="M265.052,210.71C265.052,210.71,266.119,210.71,265.052,210.71c1.067,1.067,2.133,1.067,3.2,1.067
	c1.067,0,2.133,1.067,3.2,1.067c1.067,1.067,3.2,1.067,4.267,2.133c3.2,1.067,6.4,3.2,10.667,5.333c1.067,0,2.133,1.067,3.2,2.133
	c1.067,1.067,2.133,1.067,3.2,2.133c2.133,1.067,4.267,2.133,6.4,3.2c2.133,1.067,4.267,2.133,6.4,3.2
	c1.067,1.067,2.133,1.067,3.2,2.133c1.067,1.067,2.133,1.067,3.2,2.133c3.2,2.133,7.467,4.267,9.6,6.4
	c1.067,1.067,3.2,2.133,4.267,3.2c1.067,1.067,2.133,1.067,3.2,2.133c1.067,1.067,1.067,1.067,2.133,1.067h1.067c0,0,0,0-1.067,0
	c0,0-1.067-1.067-2.133-1.067s-2.133-1.067-3.2-1.067c-1.067-1.067-3.2-1.067-4.267-2.133c-3.2-1.067-6.4-3.2-10.667-5.333
	c-1.067,0-2.133-1.067-3.2-2.133c-1.067-1.067-2.133-1.067-3.2-2.133c-2.133-1.067-4.267-2.133-6.4-3.2
	c-2.133-1.067-4.267-2.133-6.4-3.2c-1.067-1.067-2.133-1.067-3.2-2.133c-1.067-1.067-2.133-1.067-3.2-2.133
	c-3.2-2.133-7.467-4.267-9.6-6.4c-1.067-1.067-3.2-2.133-4.267-3.2c-1.067-1.067-2.133-1.067-3.2-2.133
	C267.185,211.777,266.119,211.777,265.052,210.71C266.119,210.71,265.052,210.71,265.052,210.71z"/>
<path style="fill:#415A6B;" d="M176.519,98.71l-13.867,10.667c1.067,8.533,11.733,25.6,45.867,69.333
	c5.333,7.467,11.733,13.867,17.067,20.267c21.333,23.467,41.6,48,60.8,72.533l10.667,13.867c14.933,18.133,32,33.067,52.267,44.8
	l0,0l0,0c-7.467-22.4-18.133-42.667-33.067-60.8l-10.667-13.867c-19.2-24.533-38.4-50.133-57.6-75.733
	c-5.333-6.4-10.667-13.867-16-21.333C198.919,115.777,183.985,101.91,176.519,98.71z"/>
<path style="fill:#CED6E0;" d="M350.385,329.11c-4.267-2.133-8.533-5.333-12.8-8.533l7.467-6.4
	C347.185,319.51,349.319,324.844,350.385,329.11z"/>
<path style="fill:#4ABAA5;" d="M298.119,284.31c4.267,4.267,7.467,9.6,11.733,13.867l18.133-13.867
	c-3.2-5.333-6.4-9.6-10.667-14.933l-11.733-16c-3.2-3.2-5.333-7.467-8.533-10.667l-19.2,14.933c3.2,3.2,5.333,7.467,8.533,10.667
	L298.119,284.31z"/>
<g>
	<path style="fill:#F3705A;" d="M170.119,94.444l4.267,5.333l-9.6,8.533l-4.267-5.333c-2.133-3.2-2.133-6.4,1.067-9.6
		C163.719,91.244,167.985,91.244,170.119,94.444z"/>
	<path style="fill:#F3705A;" d="M213.852,133.91c-6.4-2.133-12.8-2.133-18.133,2.133c-5.333,4.267-6.4,10.667-6.4,17.067
		c-5.333-6.4-9.6-12.8-12.8-18.133c0-4.267-1.067-9.6-2.133-13.867c-1.067-4.267-1.067-7.467,2.133-9.6c2.133-2.133,6.4-1.067,9.6,0
		c4.267,2.133,8.533,4.267,12.8,5.333C203.185,122.177,208.519,127.51,213.852,133.91z"/>
	
		<ellipse transform="matrix(-0.6253 -0.7804 0.7804 -0.6253 224.1556 423.8858)" style="fill:#F3705A;" cx="213.843" cy="158.128" rx="51.201" ry="6.4"/>
</g>
<path style="fill:#FFD15C;" d="M330.119,249.11c0,0,20.267,16,21.333,24.533s-4.267,32-30.933,26.667c0,0,8.533,1.067,0,10.667
	c-8.533,10.667-11.733,6.4-11.733,6.4s-10.667,13.867-39.467,6.4c0,0-9.6,6.4-21.333,8.533c-11.733,2.133-33.067,4.267-42.667,2.133
	s-9.6-2.133-9.6-2.133s-30.933,6.4-67.2,3.2s-39.467-1.067-58.667-28.8s-19.2-32-19.2-32l-36.267-25.6
	c0,0,10.667-52.267,41.6-77.867c29.867-25.6,54.4-8.533,54.4-8.533s11.733-12.8,22.4-16c10.667-3.2,29.867-11.733,49.067-1.067
	c0,0,13.867,13.867,17.067,19.2c4.267,5.333,36.267,22.4,46.933,29.867c10.667,7.467,19.2,18.133,19.2,18.133L330.119,249.11z"/>
<g>
	<path style="fill:#F7B64C;" d="M320.519,299.243c0,0-1.067,0-2.133,0s-3.2-1.067-6.4-2.133c-2.133-1.067-5.333-1.067-9.6-3.2
		c-3.2-1.067-7.467-2.133-11.733-4.267c-4.267-1.067-9.6-3.2-13.867-5.333c-5.333-2.133-9.6-4.267-14.933-6.4
		c-3.2-1.067-5.333-2.133-8.533-3.2c-3.2-1.067-5.333-2.133-8.533-3.2c-5.333-2.133-11.733-4.267-17.067-7.467
		c-1.067-1.067-3.2-1.067-4.267-2.133l0,0l0,0l-1.067-1.067l-2.133-1.067c-2.133-2.133-5.333-3.2-7.467-5.333
		c-5.333-3.2-9.6-6.4-14.933-10.667c-2.133-2.133-4.267-3.2-6.4-5.333c-2.133-2.133-4.267-3.2-6.4-5.333
		c-2.133-1.067-4.267-3.2-6.4-4.267c-2.133-1.067-4.267-3.2-5.333-4.267c-2.133-1.067-3.2-3.2-5.333-4.267
		c-2.133-1.067-3.2-2.133-4.267-3.2c-3.2-2.133-5.333-4.267-7.467-6.4c-2.133-2.133-3.2-3.2-5.333-4.267
		c-1.067-1.067-2.133-1.067-2.133-1.067s1.067,0,2.133,1.067c1.067,1.067,3.2,2.133,5.333,3.2c2.133,1.067,5.333,3.2,7.467,5.333
		c3.2,2.133,6.4,4.267,10.667,7.467c7.467,5.333,16,11.733,25.6,18.133c2.133,2.133,4.267,3.2,7.467,5.333
		c1.067,1.067,2.133,2.133,3.2,2.133c1.067,1.067,2.133,2.133,3.2,2.133c2.133,2.133,5.333,3.2,7.467,5.333l2.133,1.067l1.067,1.067
		l0,0l0,0c1.067,1.067,2.133,1.067,4.267,2.133c5.333,3.2,10.667,5.333,16,7.467c5.333,2.133,10.667,4.267,17.067,6.4
		c5.333,2.133,10.667,4.267,14.933,6.4c1.067,0,2.133,1.067,3.2,1.067s2.133,1.067,3.2,1.067c2.133,1.067,4.267,2.133,6.4,2.133
		c4.267,2.133,8.533,3.2,11.733,4.267c3.2,1.067,6.4,2.133,9.6,3.2c2.133,1.067,4.267,2.133,5.333,2.133
		C320.519,299.243,320.519,299.243,320.519,299.243z"/>
	<path style="fill:#F7B64C;" d="M269.319,323.777c-1.067,0-2.133,0-4.267,0c-1.067,0-2.133,0-4.267,0c-1.067,0-2.133,0-4.267,0
		l-3.2-2.133h-2.133c-1.067,0-1.067,0-2.133,0c-1.067,0-2.133,0-4.267-1.067c-1.067,0-1.067,0-2.133,0s-1.067,0-2.133,0
		c-1.067,0-1.067,0-2.133,0h-2.133l0,0c-1.067,0-2.133,0-3.2,0c-1.067,0-2.133,0-3.2,0c-2.133,0-5.333-1.067-7.467-1.067
		c-2.133-1.067-4.267-1.067-7.467-2.133l-2.133-1.067l-2.133-1.067l-2.133-1.067l-2.133-1.067l-2.133-1.067l-2.133-1.067
		l-2.133-1.067l-2.133-1.067c-1.067,0-2.133-1.067-3.2-2.133c-1.067-1.067-2.133-1.067-3.2-2.133l-3.2-2.133
		c-1.067-1.067-2.133-1.067-3.2-2.133c-2.133-1.067-4.267-2.133-6.4-4.267c-2.133-1.067-4.267-3.2-6.4-4.267l-6.4-4.267l-6.4-4.267
		l-6.4-4.267c-2.133-1.067-4.267-3.2-6.4-4.267l-3.2-2.133l5.333,2.133c-1.067-1.067-2.133-1.067-3.2-2.133s-2.133-1.067-3.2-2.133
		l-1.067-1.067h-1.067l0,0l0,0l-4.267-2.133l3.2,1.067l0,0l0,0h1.067l2.133,1.067c1.067,0,2.133,1.067,3.2,1.067
		c1.067,0,2.133,1.067,3.2,1.067l3.2,2.133c1.067,1.067,2.133,1.067,3.2,2.133c2.133,1.067,4.267,2.133,6.4,3.2
		c2.133,1.067,4.267,2.133,6.4,4.267c2.133,1.067,4.267,2.133,6.4,4.267l11.733,7.467c2.133,1.067,4.267,2.133,6.4,4.267
		c1.067,1.067,2.133,1.067,3.2,2.133l3.2,2.133c2.133,1.067,4.267,2.133,6.4,3.2l1.067,1.067l2.133,1.067l2.133,1.067l2.133,1.067
		l2.133,1.067l2.133,1.067l2.133,1.067l2.133,1.067c2.133,1.067,4.267,1.067,6.4,2.133c2.133,1.067,4.267,1.067,6.4,1.067h2.133
		c1.067,0,1.067,0,2.133,0s2.133,0,3.2,0l0,0l0,0c1.067,0,2.133,1.067,4.267,1.067c1.067,0,1.067,0,2.133,0c1.067,0,1.067,0,2.133,0
		s2.133,1.067,4.267,1.067l4.267,1.067l4.267,1.067l4.267,1.067L269.319,323.777z"/>
	<path style="fill:#F7B64C;" d="M195.719,332.31L195.719,332.31c-1.067,0-2.133,0-3.2,0c-1.067,0-2.133,0-3.2-1.067
		c-1.067,0-3.2-1.067-4.267-1.067c-2.133,0-3.2-1.067-5.333-1.067s-4.267-1.067-6.4-2.133c-2.133-1.067-4.267-1.067-6.4-2.133
		c-2.133-1.067-4.267-1.067-6.4-2.133c-1.067,0-2.133-1.067-3.2-1.067c-1.067,0-2.133-1.067-3.2-1.067c-1.067,0-1.067,0-2.133-1.067
		c0,0-1.067,0-1.067-1.067c0,0,0,0-1.067,0c0,0,0,0-1.067,0h-1.067c-1.067,0-2.133-1.067-3.2-1.067c-1.067,0-2.133-1.067-3.2-1.067
		c-1.067,0-2.133,0-3.2-1.067c-1.067,0-2.133,0-3.2-1.067c-2.133,0-3.2-1.067-4.267-1.067c-1.067,0-2.133,0-3.2-1.067
		c-2.133,0-3.2,0-3.2,0s0,0,1.067,0c1.067,0,1.067,0,2.133,0c1.067,0,2.133,0,4.267,0c1.067,0,1.067,0,2.133,0
		c1.067,0,2.133,0,2.133,0c1.067,0,2.133,0,3.2,0c1.067,0,2.133,0,3.2,0s2.133,0,3.2,1.067c0,0,1.067,0,2.133,0
		c1.067,0,1.067,0,2.133,0c1.067,0,2.133,1.067,3.2,1.067c1.067,0,2.133,1.067,3.2,1.067s1.067,0,2.133,1.067l0,0l0,0h1.067
		c1.067,0,2.133,1.067,3.2,1.067c2.133,1.067,4.267,2.133,6.4,2.133c2.133,1.067,4.267,1.067,6.4,2.133
		c2.133,1.067,4.267,1.067,6.4,2.133c2.133,1.067,3.2,1.067,5.333,2.133c2.133,1.067,3.2,1.067,4.267,2.133
		c1.067,0,2.133,1.067,3.2,1.067C193.585,331.243,194.652,331.243,195.719,332.31L195.719,332.31z"/>
</g>
<path style="fill:#415A6B;" d="M110.385,161.644c0,0-24.533,9.6-46.933,28.8s-36.267,70.4-28.8,78.933s19.2,12.8,19.2,12.8
	s-14.933-2.133-30.933-14.933S7.985,255.51,7.985,255.51c-3.2-10.667-6.4-21.333-7.467-32c-4.267-37.333,18.133-73.6,54.4-81.067
	c9.6-2.133,20.267-2.133,32,1.067l32,10.667L110.385,161.644z"/>
<g>
</g>
<g>
</g>
<g>
</g>
<g>
</g>
<g>
</g>
<g>
</g>
<g>
</g>
<g>
</g>
<g>
</g>
<g>
</g>
<g>
</g>
<g>
</g>
<g>
</g>
<g>
</g>
<g>
</g>
</svg>
